<?xml version="1.0" encoding="UTF-8" standalone="no"?><!DOCTYPE svg PUBLIC "-//W3C//DTD SVG 1.1//EN" "http://www.w3.org/Graphics/SVG/1.1/DTD/svg11.dtd"><svg width="100%" height="100%" viewBox="0 0 805 209" version="1.1" xmlns="http://www.w3.org/2000/svg" xmlns:xlink="http://www.w3.org/1999/xlink" xml:space="preserve" xmlns:serif="http://www.serif.com/" style="fill-rule:evenodd;clip-rule:evenodd;stroke-linejoin:round;stroke-miterlimit:2;"><path d="M804.405,0l-97.481,105.011l93.258,103.322l-126.584,0l-28.821,-32.376l-30.23,32.376l-245.53,0l-0,-25.619l-10.734,25.619l-62.183,0l-10.733,-25.619l-0,25.056l-119.792,0l-13.583,-33.22l-30.511,-0l-13.831,33.22l-107.65,0l90.125,-207.77l92.976,0l12.141,24.775l-0,-24.775l109.902,0l24.036,53.491l23.438,-53.491l266.152,0l27.414,31.813l29.385,-31.813l128.836,0Zm-372.114,178.21l-0,-148.93l-59.614,-0l-42.934,101.069l-46.91,-101.069l-58.206,-0l-0,141.047l-60.741,-141.047l-53.139,-0l-63.872,148.93l38.992,-0l13.865,-33.221l74.606,-0l13.549,33.221l72.6,-0l-0,-116.836l51.731,116.836l31.919,-0l51.696,-116.836l-0,116.836l36.458,-0Zm-319.573,-64.19l24.317,-59.121l24.282,59.121l-48.599,0Zm622.747,64.753l-66.653,-74.606l69.503,-74.606l-46.91,0l-45.502,48.987l-44.06,-48.987l-143.827,0l-0,149.212l141.54,-0l45.502,-49.268l44.095,49.268l46.312,-0Zm-242.152,-118.243l89.879,-0l38.71,43.074l-40.716,44.2l-87.873,0l-0,-29.842l78.582,-0l0,-30.405l-78.582,-0l-0,-27.027Z" style="fill:#fff;"/></svg>