<?xml version="1.0" encoding="UTF-8" standalone="no"?><!DOCTYPE svg PUBLIC "-//W3C//DTD SVG 1.1//EN" "http://www.w3.org/Graphics/SVG/1.1/DTD/svg11.dtd"><svg width="100%" height="100%" viewBox="0 0 170 209" version="1.1" xmlns="http://www.w3.org/2000/svg" xmlns:xlink="http://www.w3.org/1999/xlink" xml:space="preserve" xmlns:serif="http://www.serif.com/" style="fill-rule:evenodd;clip-rule:evenodd;stroke-linejoin:round;stroke-miterlimit:2;"><path d="M87.281,48.077c9.408,-0 21.195,-6.358 28.212,-14.834c6.36,-7.682 10.987,-18.41 10.987,-29.138c0,-1.456 -0.131,-2.913 -0.394,-4.105c-10.461,0.397 -23.049,7.02 -30.593,15.894c-5.964,6.754 -11.392,17.349 -11.392,28.21c-0,1.589 0.263,3.178 0.395,3.708c0.668,0.132 1.721,0.265 2.785,0.265Zm-33.114,160.256c12.851,0 18.541,-8.608 34.572,-8.608c16.294,-0 19.868,8.343 34.167,8.343c14.046,-0 23.443,-12.979 32.313,-25.694c9.935,-14.568 14.046,-28.872 14.31,-29.534c-0.933,-0.265 -27.818,-11.258 -27.818,-42.117c-0,-26.754 21.195,-38.806 22.39,-39.733c-14.046,-20.131 -35.362,-20.661 -41.195,-20.661c-15.757,-0 -28.608,9.535 -36.689,9.535c-8.739,0 -20.263,-9.005 -33.903,-9.005c-25.954,-0 -52.314,21.455 -52.314,61.983c-0,25.163 9.803,51.785 21.853,69.002c10.329,14.569 19.342,26.489 32.314,26.489Z" style="fill:#fff;fill-rule:nonzero;"/></svg>