<svg width="16" height="16" viewBox="0 0 16 16" fill="none" xmlns="http://www.w3.org/2000/svg">
<g clip-path="url(#clip0_2_178)">
<path d="M11.03 0.470072C11.1705 0.610698 11.2493 0.801322 11.2493 1.00007C11.2493 1.19882 11.1705 1.38945 11.03 1.53007L4.56 8.00007L11.03 14.4701C11.1037 14.5387 11.1628 14.6215 11.2038 14.7135C11.2448 14.8055 11.2668 14.9048 11.2686 15.0056C11.2704 15.1063 11.2518 15.2063 11.2141 15.2997C11.1764 15.3931 11.1203 15.4779 11.049 15.5491C10.9778 15.6203 10.893 15.6765 10.7996 15.7142C10.7062 15.7519 10.6062 15.7704 10.5055 15.7687C10.4048 15.7669 10.3055 15.7448 10.2135 15.7039C10.1215 15.6629 10.0387 15.6038 9.97 15.5301L2.44 8.00007L9.97 0.470072C10.1106 0.329622 10.3013 0.250732 10.5 0.250732C10.6988 0.250732 10.8894 0.329622 11.03 0.470072Z" fill="white"/>
</g>
<defs>
<clipPath id="clip0_2_178">
<rect width="16" height="16" fill="white"/>
</clipPath>
</defs>
</svg>
