<?xml version="1.0" encoding="UTF-8" standalone="no"?><!DOCTYPE svg PUBLIC "-//W3C//DTD SVG 1.1//EN" "http://www.w3.org/Graphics/SVG/1.1/DTD/svg11.dtd"><svg width="100%" height="100%" viewBox="0 0 209 209" version="1.1" xmlns="http://www.w3.org/2000/svg" xmlns:xlink="http://www.w3.org/1999/xlink" xml:space="preserve" xmlns:serif="http://www.serif.com/" style="fill-rule:evenodd;clip-rule:evenodd;stroke-linejoin:round;stroke-miterlimit:2;"><path d="M130.208,1.396c1.584,-0.915 3.381,-1.396 5.209,-1.396c1.828,-0 3.625,0.481 5.208,1.396l62.5,36.083c1.583,0.915 2.898,2.229 3.813,3.813c0.914,1.583 1.395,3.38 1.395,5.208l0,151.417c0,2.762 -1.098,5.412 -3.051,7.365c-1.953,1.953 -4.603,3.051 -7.365,3.051l-62.5,0c-2.763,0 -5.413,-1.098 -7.366,-3.051c-1.953,-1.953 -3.051,-4.603 -3.051,-7.365l0,-187.5c0,-1.828 0.481,-3.625 1.396,-5.209c0.913,-1.583 2.229,-2.898 3.812,-3.812Zm15.625,27.062l0,159.042l41.667,-0l0,-134.99l-41.667,-24.052Zm-135.416,179.875c-2.763,0 -5.413,-1.098 -7.366,-3.051c-1.953,-1.953 -3.051,-4.603 -3.051,-7.365l0,-187.5c0,-2.763 1.098,-5.413 3.051,-7.366c1.953,-1.953 4.603,-3.051 7.366,-3.051c2.762,-0 5.412,1.098 7.365,3.051c1.953,1.953 3.051,4.603 3.051,7.366l0,187.5c0,2.762 -1.098,5.412 -3.051,7.365c-1.953,1.953 -4.603,3.051 -7.365,3.051Zm62.5,0c-2.763,0 -5.413,-1.098 -7.366,-3.051c-1.953,-1.953 -3.051,-4.603 -3.051,-7.365l0,-187.5c0,-2.763 1.098,-5.413 3.051,-7.366c1.953,-1.953 4.603,-3.051 7.366,-3.051c2.762,-0 5.412,1.098 7.365,3.051c1.953,1.953 3.051,4.603 3.051,7.366l0,187.5c0,2.762 -1.098,5.412 -3.051,7.365c-1.953,1.953 -4.603,3.051 -7.365,3.051Z" style="fill:#fff;fill-rule:nonzero;"/></svg>