<?xml version="1.0" encoding="UTF-8" standalone="no"?><!DOCTYPE svg PUBLIC "-//W3C//DTD SVG 1.1//EN" "http://www.w3.org/Graphics/SVG/1.1/DTD/svg11.dtd"><svg width="100%" height="100%" viewBox="0 0 237 158" version="1.1" xmlns="http://www.w3.org/2000/svg" xmlns:xlink="http://www.w3.org/1999/xlink" xml:space="preserve" xmlns:serif="http://www.serif.com/" style="fill-rule:evenodd;clip-rule:evenodd;stroke-linejoin:round;stroke-miterlimit:2;"><g><path d="M1.564,75.117c20.105,-44.288 64.733,-75.117 116.503,-75.117c51.77,-0 96.398,30.829 116.503,75.117l1.564,3.445l-1.564,3.444c-20.105,44.288 -64.733,75.117 -116.503,75.117c-51.77,0 -96.398,-30.829 -116.503,-75.117l-1.564,-3.444l1.564,-3.445Zm16.813,3.445c18.192,36.664 56.018,61.894 99.69,61.894c43.673,0 81.498,-25.229 99.69,-61.897c-18.193,-36.663 -56.018,-61.892 -99.69,-61.892c-43.673,-0 -81.498,25.231 -99.69,61.895Z" style="fill:#fff;"/><path d="M118.067,28.142c27.827,-0 50.42,22.592 50.42,50.42c-0,27.827 -22.593,50.419 -50.42,50.419c-27.827,0 -50.42,-22.592 -50.42,-50.419c0,-27.828 22.593,-50.42 50.42,-50.42Zm0,16.667c-18.629,-0 -33.753,15.124 -33.753,33.753c0,18.628 15.124,33.753 33.753,33.753c18.629,-0 33.753,-15.125 33.753,-33.753c-0,-18.629 -15.124,-33.753 -33.753,-33.753Z" style="fill:#fff;"/></g></svg>