<?xml version="1.0" encoding="UTF-8" standalone="no"?><!DOCTYPE svg PUBLIC "-//W3C//DTD SVG 1.1//EN" "http://www.w3.org/Graphics/SVG/1.1/DTD/svg11.dtd"><svg width="100%" height="100%" viewBox="0 0 209 209" version="1.1" xmlns="http://www.w3.org/2000/svg" xmlns:xlink="http://www.w3.org/1999/xlink" xml:space="preserve" xmlns:serif="http://www.serif.com/" style="fill-rule:evenodd;clip-rule:evenodd;stroke-linejoin:round;stroke-miterlimit:2;"><g><path d="M208.333,104.167c0,57.491 -46.675,104.166 -104.166,104.166c-57.491,0 -104.167,-46.675 -104.167,-104.166c0,-57.491 46.676,-104.167 104.167,-104.167c57.491,-0 104.166,46.676 104.166,104.167Z" style="fill-opacity:0.7;"/><g><path d="M123.893,55.144c0.915,0.915 1.428,2.156 1.428,3.45c-0,1.294 -0.513,2.535 -1.428,3.451l-42.122,42.122l42.122,42.123c0.48,0.446 0.865,0.985 1.132,1.584c0.267,0.599 0.41,1.246 0.422,1.902c0.011,0.656 -0.11,1.307 -0.355,1.915c-0.246,0.608 -0.611,1.16 -1.075,1.623c-0.464,0.464 -1.016,0.83 -1.624,1.075c-0.608,0.246 -1.259,0.366 -1.914,0.355c-0.656,-0.012 -1.303,-0.155 -1.902,-0.422c-0.598,-0.267 -1.138,-0.651 -1.585,-1.131l-49.023,-49.024l49.023,-49.023c0.916,-0.915 2.157,-1.429 3.451,-1.429c1.294,0 2.535,0.514 3.45,1.429Z" style="fill:#fff;fill-rule:nonzero;"/></g></g></svg>