<?xml version="1.0" encoding="UTF-8" standalone="no"?><!DOCTYPE svg PUBLIC "-//W3C//DTD SVG 1.1//EN" "http://www.w3.org/Graphics/SVG/1.1/DTD/svg11.dtd"><svg width="100%" height="100%" viewBox="0 0 209 209" version="1.1" xmlns="http://www.w3.org/2000/svg" xmlns:xlink="http://www.w3.org/1999/xlink" xml:space="preserve" xmlns:serif="http://www.serif.com/" style="fill-rule:evenodd;clip-rule:evenodd;stroke-linejoin:round;stroke-miterlimit:2;"><g><path d="M208.333,104.167c0,57.491 -46.675,104.166 -104.166,104.166c-57.491,0 -104.167,-46.675 -104.167,-104.166c-0,-57.491 46.676,-104.167 104.167,-104.167c57.491,-0 104.166,46.676 104.166,104.167Z" style="fill-opacity:0.7;"/><g><path d="M84.44,55.144c-0.914,0.915 -1.428,2.156 -1.428,3.45c0,1.294 0.514,2.535 1.428,3.451l42.122,42.122l-42.122,42.123c-0.48,0.446 -0.864,0.985 -1.131,1.584c-0.267,0.599 -0.411,1.246 -0.422,1.902c-0.012,0.656 0.109,1.307 0.355,1.915c0.245,0.608 0.61,1.16 1.074,1.623c0.464,0.464 1.016,0.83 1.624,1.075c0.608,0.246 1.259,0.366 1.915,0.355c0.655,-0.012 1.302,-0.155 1.901,-0.422c0.599,-0.267 1.138,-0.651 1.585,-1.131l49.024,-49.024l-49.024,-49.023c-0.915,-0.915 -2.156,-1.429 -3.45,-1.429c-1.294,0 -2.536,0.514 -3.451,1.429Z" style="fill:#fff;fill-rule:nonzero;"/></g></g></svg>