<?xml version="1.0" encoding="UTF-8" standalone="no"?><!DOCTYPE svg PUBLIC "-//W3C//DTD SVG 1.1//EN" "http://www.w3.org/Graphics/SVG/1.1/DTD/svg11.dtd"><svg width="100%" height="100%" viewBox="0 0 236 209" version="1.1" xmlns="http://www.w3.org/2000/svg" xmlns:xlink="http://www.w3.org/1999/xlink" xml:space="preserve" xmlns:serif="http://www.serif.com/" style="fill-rule:evenodd;clip-rule:evenodd;stroke-linejoin:round;stroke-miterlimit:2;"><path d="M218.811,17.036c0.952,-0.914 1.705,-2.008 2.22,-3.216c0.525,-1.209 0.793,-2.509 0.803,-3.825c0.01,-1.316 -0.238,-2.62 -0.734,-3.838c-0.495,-1.218 -1.238,-2.325 -2.17,-3.255c-0.921,-0.931 -2.031,-1.666 -3.25,-2.164c-1.219,-0.499 -2.527,-0.749 -3.835,-0.738c-1.318,0.011 -2.616,0.285 -3.825,0.804c-1.208,0.519 -2.308,1.274 -3.22,2.221l-36.099,36.098c-15.151,-6.837 -32.006,-10.434 -51.031,-10.434c-32.987,0 -59.494,10.811 -81.829,30.609c-8.879,7.868 -22.791,23.316 -33.502,44.125l-2.339,4.538l2.339,4.539c10.721,20.809 24.623,36.257 33.502,44.125c2.755,2.437 5.569,4.746 8.452,6.906l-27.765,27.765c-0.951,0.915 -1.704,2.008 -2.219,3.217c-0.526,1.209 -0.793,2.509 -0.803,3.825c-0.01,1.316 0.238,2.621 0.733,3.839c0.496,1.217 1.239,2.323 2.17,3.254c0.922,0.93 2.032,1.666 3.251,2.164c1.218,0.498 2.526,0.749 3.834,0.738c1.318,-0.012 2.616,-0.285 3.825,-0.805c1.209,-0.519 2.309,-1.274 3.221,-2.22l30.975,-30.976l0.03,0.02l14.893,-14.893l-0.039,-0.01l17.142,-17.143l0.04,0.01l15.527,-15.527l-0.039,-0l46.374,-46.385l0.01,0.04l15.805,-15.805l-0.02,-0.03l1.09,-1.08l0.02,0.02l14.309,-14.309l-0.03,-0.019l32.184,-32.185Zm-72.563,44.551l-55.194,55.193c-3.795,-3.739 -6.797,-8.199 -8.839,-13.117c-2.041,-4.918 -3.081,-10.195 -3.062,-15.52c0,-22.097 17.45,-39.636 38.507,-39.636c11.267,0 21.503,5.014 28.578,13.07l0.01,0.01Zm-69.205,69.205l-18.56,18.559c-3.3,-2.347 -6.461,-4.871 -9.483,-7.56c-6.678,-5.906 -17.539,-17.767 -26.586,-33.83c9.047,-16.052 19.917,-27.923 26.586,-33.829c5.143,-4.558 10.514,-8.552 16.192,-11.931c-3.865,8.103 -5.867,16.967 -5.857,25.942c0,16.657 6.768,31.808 17.708,42.649Zm114.628,-51.527l14.021,-14.022c10.89,11.347 20.085,24.206 27.309,38.18l2.339,4.538l-2.339,4.539c-10.721,20.809 -24.624,36.257 -33.502,44.125c-22.335,19.788 -48.852,30.609 -81.829,30.609c-10.276,0.051 -20.522,-1.106 -30.52,-3.449l17.103,-17.103c4.31,0.496 8.779,0.734 13.417,0.734c28.072,-0 49.912,-8.988 68.679,-25.625c6.679,-5.906 17.539,-17.767 26.586,-33.83c-5.866,-10.411 -13.01,-20.052 -21.264,-28.696Z" style="fill:#fff;fill-rule:nonzero;"/></svg>