<?xml version="1.0" encoding="UTF-8" standalone="no"?><!DOCTYPE svg PUBLIC "-//W3C//DTD SVG 1.1//EN" "http://www.w3.org/Graphics/SVG/1.1/DTD/svg11.dtd"><svg width="100%" height="100%" viewBox="0 0 1401 417" version="1.1" xmlns="http://www.w3.org/2000/svg" xmlns:xlink="http://www.w3.org/1999/xlink" xml:space="preserve" xmlns:serif="http://www.serif.com/" style="fill-rule:evenodd;clip-rule:evenodd;stroke-linejoin:round;stroke-miterlimit:2;"><g><g><path d="M464.987,207.006l0,-0.471c0,-45.158 34.03,-82.098 82.784,-82.098c29.363,-0 47.17,9.631 61.766,23.67c0.471,0.471 0.514,1.199 0.085,1.713l-20.674,23.842c-0.428,0.513 -1.198,0.556 -1.712,0.085c-11.942,-10.615 -24.184,-17.079 -39.679,-17.079c-26.753,0 -46.058,22.216 -46.058,49.439c0,38.652 42.976,62.965 75.25,41.734c3.938,-2.568 7.747,-5.693 11.643,-9.203c0.471,-0.428 1.198,-0.428 1.669,0l20.589,20.803c0.471,0.471 0.471,1.241 -0,1.712c-16.137,16.95 -34.158,27.48 -64.292,27.48c-46.742,0 -81.413,-36.084 -81.413,-81.67l0.042,0.043Z" style="fill:#fff;fill-rule:nonzero;"/><path d="M617.67,225.84l-0,-0.471c-0,-34.928 28.122,-63.307 66.004,-63.307c37.881,-0 65.533,27.908 65.533,62.836l-0,0.471c-0,34.928 -28.123,63.307 -66.004,63.307c-37.882,0 -65.576,-27.908 -65.576,-62.836l0.043,-0Zm97.55,-0l0,-0.471c0,-17.935 -12.927,-33.559 -31.974,-33.559c-19.048,0 -31.547,15.196 -31.547,33.131l-0,0.471c-0,17.935 12.927,33.558 31.975,33.558c19.047,0 31.546,-15.195 31.546,-33.13Z" style="fill:#fff;fill-rule:nonzero;"/><path d="M765.429,164.373l32.061,0c0.685,0 1.198,0.556 1.198,1.199l0,12.712c0,1.156 1.413,1.627 2.183,0.728c8.219,-9.931 19.305,-16.95 35.699,-16.95c28.336,-0 55.345,22.215 55.345,62.836l0,0.471c0,40.621 -26.538,62.836 -55.345,62.836c-16.822,0 -27.78,-7.062 -35.784,-15.752c-0.771,-0.813 -2.098,-0.299 -2.098,0.814l0,47.769c0,0.685 -0.556,1.199 -1.198,1.199l-32.061,-0c-0.684,-0 -1.198,-0.557 -1.198,-1.199l-0,-155.464c-0,-0.685 0.556,-1.199 1.198,-1.199Zm92.029,60.996l0,-0.471c0,-20.204 -13.612,-33.558 -29.706,-33.558c-16.094,-0 -29.492,13.397 -29.492,33.558l0,0.471c0,20.203 13.398,33.558 29.492,33.558c16.094,0 29.706,-13.141 29.706,-33.558Z" style="fill:#fff;fill-rule:nonzero;"/><path d="M981.547,164.373l-25.425,79.273c-0.343,1.113 -1.927,1.113 -2.312,0l-26.239,-78.46c-0.171,-0.513 -0.642,-0.813 -1.155,-0.813l-33.858,0c-0.857,0 -1.456,0.856 -1.113,1.669l46.784,119.852c0.129,0.342 0.086,0.728 -0.042,1.027c-2.868,5.693 -6.036,7.405 -11.771,7.405c-4.152,0 -9.289,-1.712 -13.612,-4.109c-0.599,-0.342 -1.37,-0.086 -1.669,0.557l-10.53,22.728c-0.257,0.557 -0.043,1.285 0.513,1.584c8.561,4.88 17.636,7.833 29.664,7.833c20.631,0 30.605,-9.288 39.936,-34.029l35.356,-94.254c0.171,-0.471 0.642,-0.771 1.156,-0.771l25.126,0c0.685,0 1.198,0.557 1.198,1.199l0,56.415c0,28.123 14.297,36.512 35.399,36.512c11.258,0 19.476,-2.568 26.624,-6.677c0.386,-0.214 0.6,-0.642 0.6,-1.07l-0,-24.998c-0,-0.899 -0.942,-1.455 -1.755,-1.07c-4.538,2.183 -9.631,3.424 -15.281,3.424c-7.705,0 -11.13,-3.852 -11.13,-11.814l0,-50.722c0,-0.685 0.557,-1.199 1.199,-1.199l26.153,0c0.685,0 1.199,-0.556 1.199,-1.198l-0,-27.053c-0,-0.685 -0.557,-1.198 -1.199,-1.198l-26.153,-0c-0.685,-0 -1.199,-0.557 -1.199,-1.199l0,-28.636c0,-0.684 -0.556,-1.198 -1.198,-1.198l-32.06,-0c-0.685,-0 -1.199,0.556 -1.199,1.198l0,29.878" style="fill:#fff;fill-rule:nonzero;"/><path d="M1114.8,164.373l32.061,0c0.684,0 1.198,0.556 1.198,1.199l0,119.166c0,0.685 -0.556,1.199 -1.198,1.199l-32.061,-0c-0.685,-0 -1.198,-0.557 -1.198,-1.199l-0,-119.166c-0,-0.685 0.556,-1.199 1.198,-1.199Z" style="fill:#fff;fill-rule:nonzero;"/><path d="M1130.83,118.304c10.373,0 18.783,8.41 18.783,18.784l-0,0.006c-0,10.374 -8.41,18.783 -18.783,18.783l-0.007,0c-10.373,0 -18.783,-8.409 -18.783,-18.783l0,-0.006c0,-10.374 8.41,-18.784 18.783,-18.784l0.007,0Z" style="fill:#fff;"/><path d="M1210.42,164.373l-0,-3.381c-0,-9.075 4.537,-13.141 12.456,-13.141c5.265,-0 9.631,0.899 14.039,2.397c0.771,0.257 1.627,-0.3 1.627,-1.156l-0,-25.982c-0,-0.514 -0.342,-1.027 -0.856,-1.156c-6.164,-1.883 -13.227,-3.125 -23.628,-3.125c-12.242,0 -21.53,3.168 -27.908,9.546c-6.335,6.335 -9.76,16.094 -9.76,29.492l0,6.506c0,0.685 -0.556,1.199 -1.198,1.199l-11.857,-0c-0.685,-0 -1.198,0.556 -1.198,1.198l-0,25.939c-0,0.685 0.556,1.199 1.198,1.199l11.857,-0c0.685,-0 1.198,0.556 1.198,1.198l0,89.675c0,0.685 0.557,1.198 1.199,1.198l32.06,0c0.685,0 1.199,-0.556 1.199,-1.198l-0,-89.675c-0,-0.684 0.556,-1.198 1.198,-1.198l22.858,-0c0.513,-0 0.941,0.299 1.113,0.77l35.613,91.259c0.128,0.342 0.085,0.727 -0.043,1.027c-2.868,5.693 -6.036,7.405 -11.771,7.405c-4.152,0 -9.289,-1.712 -13.612,-4.109c-0.599,-0.343 -1.37,-0.086 -1.669,0.556l-10.53,22.729c-0.257,0.557 -0.043,1.284 0.513,1.584c8.561,4.88 17.636,7.833 29.664,7.833c20.631,0 30.605,-9.288 39.936,-34.029l46.1,-122.891c0.299,-0.813 -0.3,-1.626 -1.156,-1.626l-33.216,-0c-0.513,-0 -0.984,0.342 -1.156,0.856l-25.126,78.417c-0.342,1.113 -1.926,1.113 -2.311,0l-26.496,-79.273" style="fill:#fff;fill-rule:nonzero;"/><path d="M1376.24,163.774c-12.756,-0 -22.986,10.23 -22.986,22.986c-0,12.755 10.23,22.985 22.986,22.985c12.755,0 24.27,-10.23 24.27,-22.985c-0,-12.756 -11.515,-22.986 -24.27,-22.986Zm-0,43.446c-11.515,-0 -20.461,-8.946 -20.461,-20.46c0,-11.515 8.946,-20.461 20.461,-20.461c11.514,0 21.744,8.946 21.744,20.461c0,11.514 -10.23,20.46 -21.744,20.46Z" style="fill:#fff;fill-rule:nonzero;"/><path d="M1363.96,198.274l6.421,-0l5.136,-7.662l5.094,-0l-0,7.662l5.093,-0l0,-24.27l-10.23,-0c-5.136,-0 -10.23,2.568 -10.23,7.662c0,3.852 2.568,6.378 6.378,7.662l-7.662,8.946Zm6.421,-16.608c-0,-2.568 2.568,-3.852 5.136,-3.852l5.094,-0l-0,7.661l-5.094,0c-2.568,0 -5.136,-1.284 -5.136,-3.852l-0,0.043Z" style="fill:#fff;fill-rule:nonzero;"/></g><path d="M0,207.708c0,114.417 94.542,208.959 208.958,208.959c114.417,-0 208.959,-94.542 208.959,-208.959c-0,-114.416 -94.542,-207.708 -208.959,-207.708c-114.416,-0 -208.958,93.292 -208.958,207.708Zm286.083,97c-48.5,-29.833 -110.708,-37.291 -182.833,-21.125c-17.417,2.5 -19.917,-22.375 -4.958,-24.875c79.583,-18.666 146.75,-9.958 201.5,23.625c13.666,8.709 -0,29.834 -13.667,22.375l-0.042,0Zm21.125,-55.958c-55.958,-34.833 -141.791,-44.792 -207.708,-24.875c-21.125,6.208 -28.625,-26.125 -8.708,-31.083c75.875,-22.375 169.166,-11.209 233.833,28.625c17.417,11.208 -0,38.541 -17.417,27.375l0,-0.042Zm-217.666,-88.292c-21.125,7.459 -34.834,-28.625 -11.209,-37.333c73.375,-22.375 197.75,-18.667 274.875,27.375c21.125,11.208 1.25,46 -21.125,33.583c-67.166,-39.791 -179.125,-43.541 -242.541,-23.625Z" style="fill:#fff;fill-rule:nonzero;"/></g></svg>