<?xml version="1.0" encoding="UTF-8" standalone="no"?><!DOCTYPE svg PUBLIC "-//W3C//DTD SVG 1.1//EN" "http://www.w3.org/Graphics/SVG/1.1/DTD/svg11.dtd"><svg width="100%" height="100%" viewBox="0 0 3899 853" version="1.1" xmlns="http://www.w3.org/2000/svg" xmlns:xlink="http://www.w3.org/1999/xlink" xml:space="preserve" xmlns:serif="http://www.serif.com/" style="fill-rule:evenodd;clip-rule:evenodd;stroke-linejoin:round;stroke-miterlimit:2;"><g><path d="M0.175,369.592l-0,-1.963c-0,-188.158 141.792,-342.075 344.933,-342.075c122.346,0 196.542,40.129 257.359,98.625c1.962,1.963 2.141,4.996 0.354,7.138l-86.142,99.341c-1.783,2.138 -4.991,2.317 -7.133,0.354c-49.758,-44.229 -100.767,-71.162 -165.329,-71.162c-111.471,-0 -191.909,92.567 -191.909,205.996c0,161.05 179.067,262.354 313.542,173.891c16.408,-10.7 32.279,-23.72 48.513,-38.345c1.962,-1.784 4.991,-1.784 6.954,-0l85.787,86.679c1.963,1.962 1.963,5.171 0,7.133c-67.237,70.625 -142.325,114.5 -267.883,114.5c-194.759,0 -339.221,-150.35 -339.221,-340.292l0.175,0.18Z" style="fill:#fff;fill-rule:nonzero;"/><path d="M636.354,448.067l0,-1.963c0,-145.533 117.175,-263.779 275.017,-263.779c157.837,0 273.054,116.283 273.054,261.817l-0,1.962c-0,145.534 -117.179,263.779 -275.017,263.779c-157.841,0 -273.233,-116.283 -273.233,-261.816l0.179,-0Zm406.458,-0l0,-1.963c0,-74.729 -53.862,-139.829 -133.225,-139.829c-79.366,0 -131.445,63.317 -131.445,138.046l-0,1.962c-0,74.73 53.862,139.825 133.229,139.825c79.362,0 131.441,-63.312 131.441,-138.041Z" style="fill:#fff;fill-rule:nonzero;"/><path d="M1252.02,191.954l133.587,0c2.854,0 4.992,2.317 4.992,4.996l-0,52.967c-0,4.816 5.887,6.779 9.096,3.033c34.245,-41.379 80.437,-70.625 148.745,-70.625c118.067,0 230.605,92.563 230.605,261.817l-0,1.962c-0,169.254 -110.575,261.817 -230.605,261.817c-70.091,-0 -115.75,-29.425 -149.1,-65.633c-3.212,-3.388 -8.741,-1.246 -8.741,3.391l-0,199.038c-0,2.854 -2.317,4.996 -4.992,4.996l-133.587,-0c-2.85,-0 -4.992,-2.321 -4.992,-4.996l-0,-647.767c-0,-2.854 2.317,-4.996 4.992,-4.996Zm383.454,254.15l-0,-1.962c-0,-84.184 -56.717,-139.825 -123.775,-139.825c-67.059,-0 -122.884,55.821 -122.884,139.825l0,1.962c0,84.179 55.826,139.825 122.884,139.825c67.058,0 123.775,-54.754 123.775,-139.825Z" style="fill:#fff;fill-rule:nonzero;"/><path d="M2152.51,191.954l-105.937,330.304c-1.429,4.638 -8.029,4.638 -9.634,0l-109.329,-326.916c-0.712,-2.138 -2.675,-3.388 -4.812,-3.388l-141.075,0c-3.571,0 -6.067,3.567 -4.638,6.954l194.934,499.384c0.537,1.425 0.358,3.033 -0.175,4.279c-11.95,23.721 -25.15,30.854 -49.046,30.854c-17.3,-0 -38.704,-7.133 -56.717,-17.121c-2.496,-1.425 -5.708,-0.358 -6.954,2.321l-43.875,94.7c-1.071,2.321 -0.179,5.354 2.138,6.6c35.67,20.333 73.483,32.638 123.6,32.638c85.962,-0 127.52,-38.701 166.4,-141.788l147.316,-392.725c0.713,-1.963 2.675,-3.212 4.817,-3.212l104.692,-0c2.854,-0 4.991,2.32 4.991,4.995l0,235.063c0,117.179 59.571,152.133 147.496,152.133c46.908,0 81.15,-10.7 110.933,-27.821c1.609,-0.891 2.5,-2.675 2.5,-4.458l0,-104.158c0,-3.746 -3.925,-6.063 -7.312,-4.459c-18.909,9.096 -40.129,14.267 -63.671,14.267c-32.104,-0 -46.375,-16.05 -46.375,-49.225l0,-211.342c0,-2.854 2.321,-4.996 4.996,-4.996l108.971,0c2.854,0 4.996,-2.316 4.996,-4.991l-0,-112.721c-0,-2.854 -2.321,-4.992 -4.996,-4.992l-108.971,0c-2.854,0 -4.996,-2.321 -4.996,-4.996l0,-119.316c0,-2.85 -2.317,-4.992 -4.992,-4.992l-133.583,0c-2.854,0 -4.996,2.317 -4.996,4.992l0,124.491" style="fill:#fff;fill-rule:nonzero;"/><path d="M2707.73,191.954l133.588,0c2.85,0 4.991,2.317 4.991,4.996l0,496.525c0,2.854 -2.316,4.996 -4.991,4.996l-133.588,-0c-2.854,-0 -4.992,-2.321 -4.992,-4.996l0,-496.525c0,-2.854 2.317,-4.996 4.992,-4.996Z" style="fill:#fff;fill-rule:nonzero;"/><path d="M2774.52,0c43.221,0 78.262,35.042 78.262,78.267l0,0.025c0,43.225 -35.041,78.262 -78.262,78.262l-0.029,0c-43.221,0 -78.263,-35.037 -78.263,-78.262l0,-0.025c0,-43.225 35.042,-78.267 78.263,-78.267l0.029,0Z" style="fill:#fff;"/><path d="M3106.15,191.954l-0,-14.087c-0,-37.813 18.904,-54.755 51.9,-54.755c21.937,0 40.129,3.746 58.496,9.988c3.212,1.071 6.779,-1.25 6.779,-4.817l-0,-108.258c-0,-2.142 -1.425,-4.279 -3.567,-4.817c-25.683,-7.846 -55.112,-13.021 -98.45,-13.021c-51.008,0 -89.708,13.2 -116.283,39.775c-26.396,26.396 -40.667,67.059 -40.667,122.884l0,27.108c0,2.854 -2.317,4.996 -4.992,4.996l-49.404,-0c-2.854,-0 -4.991,2.317 -4.991,4.992l-0,108.079c-0,2.854 2.316,4.996 4.991,4.996l49.404,-0c2.855,-0 4.992,2.316 4.992,4.991l0,373.646c0,2.854 2.321,4.992 4.996,4.992l133.583,-0c2.854,-0 4.996,-2.317 4.996,-4.992l0,-373.646c0,-2.85 2.317,-4.991 4.992,-4.991l95.241,-0c2.138,-0 3.921,1.245 4.638,3.208l148.387,380.246c0.534,1.425 0.355,3.029 -0.179,4.279c-11.95,23.721 -25.15,30.854 -49.045,30.854c-17.3,0 -38.705,-7.133 -56.717,-17.121c-2.496,-1.429 -5.708,-0.358 -6.954,2.317l-43.875,94.704c-1.071,2.321 -0.179,5.35 2.137,6.6c35.671,20.333 73.483,32.638 123.6,32.638c85.963,-0 127.521,-38.7 166.4,-141.788l192.083,-512.046c1.246,-3.387 -1.25,-6.775 -4.816,-6.775l-138.4,0c-2.138,0 -4.1,1.425 -4.817,3.567l-104.691,326.737c-1.426,4.638 -8.025,4.638 -9.63,0l-110.4,-330.304" style="fill:#fff;fill-rule:nonzero;"/><path d="M3797.06,189.458c-53.151,0 -95.776,42.625 -95.776,95.775c0,53.146 42.625,95.771 95.775,95.771c53.146,0 101.125,-42.625 101.125,-95.771c0,-53.15 -47.979,-95.775 -101.125,-95.775Zm0,181.025c-47.979,0 -85.254,-37.275 -85.254,-85.25c0,-47.979 37.275,-85.254 85.254,-85.254c47.975,0 90.6,37.275 90.6,85.254c0,47.975 -42.625,85.25 -90.6,85.25Z" style="fill:#fff;fill-rule:nonzero;"/><path d="M3745.9,333.208l26.754,0l21.4,-31.925l21.225,0l0,31.925l21.221,0l-0,-101.125l-42.625,0c-21.4,0 -42.625,10.7 -42.625,31.925c-0,16.05 10.7,26.575 26.575,31.925l-31.925,37.275Zm26.754,-69.2c0,-10.7 10.7,-16.05 21.4,-16.05l21.225,0l0,31.921l-21.225,0c-10.7,0 -21.4,-5.35 -21.4,-16.05l0,0.179Z" style="fill:#fff;fill-rule:nonzero;"/></g></svg>