<?xml version="1.0" encoding="UTF-8" standalone="no"?><!DOCTYPE svg PUBLIC "-//W3C//DTD SVG 1.1//EN" "http://www.w3.org/Graphics/SVG/1.1/DTD/svg11.dtd"><svg width="100%" height="100%" viewBox="0 0 835 925" version="1.1" xmlns="http://www.w3.org/2000/svg" xmlns:xlink="http://www.w3.org/1999/xlink" xml:space="preserve" xmlns:serif="http://www.serif.com/" style="fill-rule:evenodd;clip-rule:evenodd;stroke-linejoin:round;stroke-miterlimit:2;"><path d="M834.491,685.596c-0,22.996 -18.671,41.667 -41.667,41.667c-22.997,-0 -41.667,-18.671 -41.667,-41.667l0,-602.263l-512.722,0c-22.996,0 -41.667,-18.67 -41.667,-41.666c0,-22.997 18.671,-41.667 41.667,-41.667l554.389,0c23.012,-0 41.667,18.655 41.667,41.667l-0,643.929Z"/><path d="M0,238.435c0,-22.996 18.67,-41.667 41.667,-41.667l554.389,0c23.011,0 41.666,18.655 41.666,41.667l0,643.929c0,22.997 -18.67,41.667 -41.666,41.667l-554.389,0c-23.012,0 -41.667,-18.655 -41.667,-41.667l0,-643.929Zm554.389,602.263l-0,-560.596l-471.056,-0l0,560.596l471.056,-0Z"/></svg>