<svg width="16" height="17" viewBox="0 0 16 17" fill="none" xmlns="http://www.w3.org/2000/svg">
<g clip-path="url(#clip0_0_1296)">
<path d="M6 2.95312C6 1.98712 6.784 1.20312 7.75 1.20312H14.25C15.216 1.20312 16 1.98712 16 2.95312V13.4531C16 13.9173 15.8156 14.3624 15.4874 14.6906C15.1592 15.0188 14.7141 15.2031 14.25 15.2031H7.75C7.28587 15.2031 6.84075 15.0188 6.51256 14.6906C6.18437 14.3624 6 13.9173 6 13.4531V2.95312ZM7.75 2.70312C7.6837 2.70312 7.62011 2.72946 7.57322 2.77635C7.52634 2.82323 7.5 2.88682 7.5 2.95312V13.4531C7.5 13.5911 7.612 13.7031 7.75 13.7031H14.25C14.3163 13.7031 14.3799 13.6768 14.4268 13.6299C14.4737 13.583 14.5 13.5194 14.5 13.4531V2.95312C14.5 2.88682 14.4737 2.82323 14.4268 2.77635C14.3799 2.72946 14.3163 2.70312 14.25 2.70312H7.75ZM1.75 2.70312C1.6837 2.70312 1.62011 2.72946 1.57322 2.77635C1.52634 2.82323 1.5 2.88682 1.5 2.95312V9.45312C1.5 9.59112 1.612 9.70312 1.75 9.70312H4V11.2031H1.75C1.28587 11.2031 0.840752 11.0188 0.512563 10.6906C0.184374 10.3624 0 9.91725 0 9.45312L0 2.95312C0 1.98712 0.784 1.20312 1.75 1.20312H4V2.70312H1.75ZM4 15.2031H2V13.7031H4V15.2031Z" fill="white" fill-opacity="0.698"/>
<path d="M13 10.2031C13 10.7336 12.7893 11.2423 12.4142 11.6173C12.0391 11.9924 11.5304 12.2031 11 12.2031C10.4696 12.2031 9.96086 11.9924 9.58579 11.6173C9.21071 11.2423 9 10.7336 9 10.2031C9 9.67269 9.21071 9.16398 9.58579 8.78891C9.96086 8.41384 10.4696 8.20312 11 8.20312C11.5304 8.20312 12.0391 8.41384 12.4142 8.78891C12.7893 9.16398 13 9.67269 13 10.2031ZM12 5.20312C12 5.46834 11.8946 5.7227 11.7071 5.91023C11.5196 6.09777 11.2652 6.20312 11 6.20312C10.7348 6.20312 10.4804 6.09777 10.2929 5.91023C10.1054 5.7227 10 5.46834 10 5.20312C10 4.93791 10.1054 4.68355 10.2929 4.49602C10.4804 4.30848 10.7348 4.20312 11 4.20312C11.2652 4.20312 11.5196 4.30848 11.7071 4.49602C11.8946 4.68355 12 4.93791 12 5.20312Z" fill="white" fill-opacity="0.698"/>
</g>
<defs>
<clipPath id="clip0_0_1296">
<rect width="16" height="16" fill="white" transform="translate(0 0.203125)"/>
</clipPath>
</defs>
</svg>
