<?xml version="1.0" encoding="UTF-8" standalone="no"?><!DOCTYPE svg PUBLIC "-//W3C//DTD SVG 1.1//EN" "http://www.w3.org/Graphics/SVG/1.1/DTD/svg11.dtd"><svg width="100%" height="100%" viewBox="0 0 223 209" version="1.1" xmlns="http://www.w3.org/2000/svg" xmlns:xlink="http://www.w3.org/1999/xlink" xml:space="preserve" xmlns:serif="http://www.serif.com/" style="fill-rule:evenodd;clip-rule:evenodd;stroke-linejoin:round;stroke-miterlimit:2;"><g><g><path d="M4.489,151.797c-0,-4.253 -2.212,-3.973 -4.332,-4.02l0,-1.229c1.845,0.091 3.73,0.091 5.575,0.091c1.976,0 4.659,-0.091 8.153,-0.091c12.209,-0 18.857,8.18 18.857,16.555c-0,4.684 -2.735,16.458 -19.42,16.458c-2.408,-0 -4.633,-0.093 -6.844,-0.093c-2.12,-0 -4.201,0.047 -6.321,0.093l0,-1.228c2.827,-0.285 4.201,-0.379 4.332,-3.597l-0,-22.939Zm4.632,22.184c0,3.643 2.591,4.067 4.894,4.067c10.195,-0 13.545,-7.711 13.545,-14.758c-0,-8.841 -5.667,-15.226 -14.762,-15.226c-1.936,0 -2.826,0.139 -3.677,0.189l0,25.728Zm25.27,4.352l0.903,0c1.321,0 2.264,0 2.264,-1.564l-0,-12.815c-0,-2.08 -0.707,-2.369 -2.461,-3.308l0,-0.758c2.225,-0.669 4.869,-1.56 5.052,-1.703c0.327,-0.189 0.615,-0.239 0.85,-0.239c0.236,-0 0.328,0.285 0.328,0.666l-0,18.157c-0,1.564 1.033,1.564 2.355,1.564l0.798,0l0,1.23c-1.596,0 -3.245,-0.094 -4.946,-0.094c-1.702,-0 -3.39,0.046 -5.143,0.094l-0,-1.23Zm5.051,-27.67c-1.23,0 -2.316,-1.133 -2.316,-2.363c-0,-1.184 1.138,-2.276 2.316,-2.276c1.217,0 2.316,0.999 2.316,2.276c0,1.277 -1.047,2.363 -2.316,2.363Zm9.527,13.572c-0,-1.748 -0.524,-2.219 -2.735,-3.118l-0,-0.898c2.028,-0.661 3.952,-1.277 6.216,-2.272c0.144,0 0.288,0.096 0.288,0.471l-0,3.077c2.682,-1.937 4.999,-3.549 8.166,-3.549c4.004,-0 5.417,2.933 5.417,6.622l0,12.201c0,1.564 1.034,1.564 2.356,1.564l0.85,0l0,1.23c-1.662,0 -3.31,-0.094 -4.999,-0.094c-1.701,-0 -3.402,0.046 -5.09,0.094l-0,-1.23l0.837,0c1.335,0 2.264,0 2.264,-1.564l0,-12.247c0,-2.699 -1.635,-4.02 -4.331,-4.02c-1.505,-0 -3.913,1.228 -5.47,2.271l-0,13.995c-0,1.565 1.034,1.565 2.355,1.565l0.851,0l-0,1.23c-1.649,0 -3.298,-0.094 -4.999,-0.094c-1.701,-0 -3.403,0.046 -5.091,0.094l0,-1.23l0.851,0c1.322,0 2.264,0 2.264,-1.565l-0,-12.533Zm24.144,2.273c-0.105,0.427 -0.105,1.135 0,2.746c0.275,4.491 3.154,8.179 6.923,8.179c2.604,-0 4.632,-1.419 6.373,-3.169l0.654,0.665c-2.172,2.883 -4.855,5.342 -8.715,5.342c-7.499,0 -9.017,-7.285 -9.017,-10.309c0,-9.272 6.229,-12.016 9.527,-12.016c3.821,-0 7.93,2.41 7.97,7.424c-0,0.288 -0,0.568 -0.04,0.854l-0.432,0.284l-13.243,0Zm8.349,-1.514c1.178,0 1.309,-0.615 1.309,-1.182c-0,-2.411 -1.453,-4.352 -4.096,-4.352c-2.879,-0 -4.855,2.125 -5.418,5.534l8.205,0Zm6.452,13.339l1.269,0c1.322,0 2.264,0 2.264,-1.564l-0,-13.289c-0,-1.466 -1.74,-1.75 -2.447,-2.128l-0,-0.706c3.442,-1.469 5.326,-2.7 5.758,-2.7c0.275,-0 0.419,0.143 0.419,0.618l-0,4.255l0.091,0c1.178,-1.842 3.167,-4.873 6.033,-4.873c1.191,-0 2.696,0.802 2.696,2.507c-0,1.277 -0.903,2.416 -2.212,2.416c-1.466,-0 -1.466,-1.139 -3.114,-1.139c-0.812,0 -3.442,1.089 -3.442,3.928l-0,11.111c-0,1.564 0.942,1.564 2.264,1.564l2.63,0l0,1.23c-2.591,-0.048 -4.567,-0.094 -6.595,-0.094c-1.937,-0 -3.913,0.046 -5.614,0.094l-0,-1.23Zm18.15,-5.347c0.615,3.122 2.5,5.772 5.955,5.772c2.774,0 3.808,-1.702 3.808,-3.358c-0,-5.581 -10.273,-3.784 -10.273,-11.398c0,-2.65 2.12,-6.056 7.302,-6.056c1.505,-0 3.533,0.429 5.379,1.375l0.327,4.82l-1.086,-0c-0.471,-2.976 -2.12,-4.68 -5.143,-4.68c-1.885,0 -3.664,1.089 -3.664,3.12c-0,5.538 10.927,3.832 10.927,11.257c-0,3.12 -2.5,6.434 -8.101,6.434c-1.897,0 -4.109,-0.663 -5.758,-1.607l-0.523,-5.44l0.85,-0.239Zm56.114,-17.877l-1.177,-0c-0.89,-5.532 -4.803,-7.756 -10.09,-7.756c-5.418,-0 -13.296,3.639 -13.296,14.99c0,9.559 6.792,16.415 14.055,16.415c4.659,0 8.532,-3.215 9.475,-8.183l1.086,0.282l-1.086,6.905c-1.976,1.233 -7.303,2.509 -10.43,2.509c-11.019,0 -18.007,-7.142 -18.007,-17.784c0,-9.696 8.637,-16.651 17.876,-16.651c3.821,-0 7.498,1.234 11.123,2.512l0.471,6.761Zm1.702,23.224l0.889,0c1.322,0 2.277,0 2.277,-1.564l0,-26.34c0,-3.076 -0.706,-3.171 -2.512,-3.69l-0,-0.758c1.897,-0.612 3.873,-1.466 4.868,-2.035c0.51,-0.282 0.89,-0.521 1.034,-0.521c0.288,0 0.379,0.286 0.379,0.666l0,32.678c0,1.564 1.034,1.564 2.356,1.564l0.798,0l0,1.23c-1.596,0 -3.245,-0.094 -4.946,-0.094c-1.702,-0 -3.39,0.046 -5.143,0.094l-0,-1.23Zm30.281,-1.375c0,0.854 0.511,0.901 1.309,0.901c0.576,0 1.269,-0.047 1.884,-0.047l0,0.995c-2.028,0.188 -5.889,1.183 -6.791,1.464l-0.236,-0.143l-0,-3.827c-2.827,2.316 -4.999,3.97 -8.349,3.97c-2.539,0 -5.182,-1.654 -5.182,-5.624l-0,-12.113c-0,-1.228 -0.183,-2.412 -2.827,-2.646l0,-0.9c1.701,-0.046 5.47,-0.33 6.085,-0.33c0.524,-0 0.524,0.331 0.524,1.371l-0,12.198c-0,1.422 -0,5.488 4.096,5.488c1.596,0 3.729,-1.228 5.705,-2.879l0,-12.73c0,-0.942 -2.264,-1.46 -3.952,-1.935l0,-0.852c4.227,-0.284 6.884,-0.661 7.342,-0.661c0.392,-0 0.392,0.33 0.392,0.853l0,17.447Zm9.383,-15.606c1.885,-1.608 4.423,-3.406 7.014,-3.406c5.484,-0 8.768,4.782 8.768,9.932c0,6.197 -4.515,12.393 -11.267,12.393c-3.481,0 -5.326,-1.136 -6.556,-1.654l-1.414,1.085l-0.981,-0.518c0.419,-2.79 0.654,-5.535 0.654,-8.417l0,-20.338c0,-3.076 -0.706,-3.171 -2.499,-3.69l-0,-0.758c1.897,-0.612 3.873,-1.466 4.855,-2.035c0.523,-0.282 0.903,-0.521 1.047,-0.521c0.274,0 0.379,0.286 0.379,0.666l0,17.261Zm0,12.864c0,1.798 1.688,4.828 4.855,4.828c5.038,-0 7.158,-4.969 7.158,-9.18c0,-5.107 -3.86,-9.362 -7.537,-9.362c-1.754,-0 -3.206,1.136 -4.476,2.226l0,11.488Zm-203.439,32.845l0.366,0c0.916,0 1.898,-0.125 1.898,-1.465l-0,-13.483c-0,-1.341 -0.982,-1.468 -1.898,-1.468l-0.366,-0l-0,-0.772c1.007,-0 2.538,0.102 3.808,0.102c1.282,-0 2.813,-0.102 4.017,-0.102l0,0.772l-0.353,-0c-0.929,-0 -1.898,0.127 -1.898,1.468l0,13.483c0,1.34 0.969,1.465 1.898,1.465l0.353,0l0,0.776c-1.23,0 -2.774,-0.102 -4.043,-0.102c-1.27,0 -2.775,0.102 -3.782,0.102l-0,-0.776Z" style="fill:#211e1f;fill-rule:nonzero;"/><path d="M7.93,207.946c-1.23,-0 -2.774,-0.105 -4.043,-0.105c-1.257,0 -2.775,0.105 -3.782,0.105l-0.105,-0l0,-0.996l0.471,0c0.929,-0.021 1.78,-0.097 1.78,-1.354l-0,-13.483c-0,-1.258 -0.851,-1.341 -1.78,-1.36l-0.471,0l0,-0.996l0.105,0c1.007,0 2.552,0.102 3.808,0.102c1.269,0 2.813,-0.102 4.017,-0.102l0.118,0l0,0.996l-0.471,0c-0.929,0.019 -1.78,0.102 -1.793,1.36l0,13.483c0.013,1.257 0.864,1.332 1.793,1.354l0.471,0l0,0.995l-0.118,-0l0,0.001Zm-0.104,-0.22l-0,-0.549l-0.249,-0c-0.916,-0 -2.002,-0.16 -2.015,-1.581l-0,-13.483c0.013,-1.423 1.099,-1.582 2.015,-1.582l0.249,-0l-0,-0.547c-1.191,-0 -2.67,0.101 -3.913,0.101c-1.217,-0 -2.696,-0.093 -3.691,-0.101l0,0.547l0.249,-0c0.916,-0 2.002,0.159 2.002,1.582l0,13.483c0,1.422 -1.086,1.581 -2.002,1.581l-0.249,-0l0,0.549c0.995,-0.01 2.448,-0.105 3.665,-0.105c1.243,0 2.735,0.097 3.939,0.105Zm17.732,-4.962l0.052,-0.051l-0,-9.649c-0,-2.113 -1.466,-2.418 -2.225,-2.418l-0.576,-0l0,-0.775c1.217,0 2.395,0.102 3.599,0.102c1.047,0 2.107,-0.102 3.154,-0.102l-0,0.774l-0.38,-0c-1.086,-0 -2.29,0.205 -2.29,3.266l0,11.712c0,0.9 0.026,1.8 0.157,2.596l-0.981,0l-13.204,-14.771l-0,10.603c-0,2.241 0.432,3.009 2.408,3.009l0.432,0l-0,0.776c-1.1,0 -2.199,-0.101 -3.311,-0.101c-1.152,0 -2.33,0.101 -3.481,0.101l-0,-0.776l0.353,0c1.78,0 2.316,-1.207 2.316,-3.264l0,-10.839c0,-1.44 -1.19,-2.312 -2.342,-2.312l-0.327,-0l-0,-0.774c0.968,0 1.976,0.102 2.944,0.102c0.772,0 1.518,-0.102 2.29,-0.102l11.412,12.893Z" style="fill:#211e1f;fill-rule:nonzero;"/><path d="M27.049,208.333l-1.06,-0.039l-13.02,-14.554l-0,10.313c0.026,2.239 0.366,2.872 2.303,2.898l0.549,0l0,0.995l-0.117,-0c-1.113,-0 -2.212,-0.103 -3.311,-0.103c-1.139,-0 -2.317,0.104 -3.481,0.104l-0.118,0l-0,-0.996l0.471,0c1.701,-0.009 2.186,-1.1 2.199,-3.152l-0,-10.839c-0,-1.371 -1.126,-2.202 -2.225,-2.204l-0.445,-0l-0,-0.993l0.118,-0c0.981,-0 1.976,0.098 2.944,0.098c0.759,-0 1.505,-0.098 2.369,-0.06l11.28,12.73l0,-9.464c-0.013,-2.048 -1.374,-2.294 -2.12,-2.311l-0.68,-0l-0,-0.993l0.104,-0c1.217,-0 2.395,0.098 3.599,0.098c1.047,-0 2.094,-0.098 3.154,-0.098l0.118,-0l-0,0.992l-0.498,-0c-1.06,0.031 -2.146,0.123 -2.172,3.157l0,11.711c0,0.899 0.026,1.8 0.144,2.579l0.026,0.131l-0.131,0Zm-0.981,-0.226l0.85,-0c-0.117,-0.773 -0.13,-1.629 -0.13,-2.484l-0,-11.711c-0,-3.088 1.295,-3.381 2.394,-3.381l0.275,-0l0,-0.545c-1.02,0.007 -2.028,0.1 -3.049,0.1c-1.178,-0 -2.316,-0.093 -3.481,-0.1l0,0.545l0.458,-0c0.785,-0 2.343,0.354 2.343,2.536l-0.04,9.724l-0.13,0.135l-11.412,-12.94c-0.772,0 -1.505,0.1 -2.29,0.1c-0.942,-0 -1.91,-0.093 -2.84,-0.1l0,0.545l0.223,-0c1.204,-0 2.447,0.922 2.447,2.429l0,10.838c0,2.057 -0.576,3.373 -2.421,3.381l-0.249,-0.008l0,0.555c1.113,-0.01 2.264,-0.103 3.377,-0.103c1.073,-0 2.146,0.094 3.206,0.104l-0,-0.548l-0.327,0c-2.016,-0.008 -2.526,-0.888 -2.526,-3.126l0,-10.893l13.322,14.947Zm-0.563,-5.394l0,-0.008l-0.026,-0.018l0.026,0.026Zm7.904,-11.554c-1.923,-0 -2.002,0.463 -2.381,2.34l-0.772,-0c0.104,-0.719 0.222,-1.438 0.3,-2.188c0.105,-0.72 0.158,-1.438 0.158,-2.183l0.615,-0c0.209,0.772 0.85,0.745 1.544,0.745l13.23,-0c0.694,-0 1.335,-0.024 1.4,-0.799l0.602,0.104c-0.091,0.695 -0.196,1.389 -0.275,2.086c-0.052,0.693 -0.052,1.389 -0.052,2.083l-0.772,0.287c-0.052,-0.953 -0.183,-2.475 -1.898,-2.475l-4.2,-0l-0,13.692c-0,1.984 0.89,2.21 2.12,2.21l0.497,0l-0,0.776c-1.008,0 -2.8,-0.1 -4.188,-0.1c-1.544,-0 -3.337,0.1 -4.344,0.1l-0,-0.776l0.497,0c1.413,0 2.12,-0.125 2.12,-2.156l-0,-13.746l-4.201,-0Z" style="fill:#211e1f;fill-rule:nonzero;"/><path d="M43.525,207.945c-1.008,-0 -2.814,-0.105 -4.188,-0.105c-1.531,-0 -3.337,0.105 -4.331,0.105l-0.118,-0l0,-0.996l0.602,-0c1.413,-0.034 1.976,-0.053 2.015,-2.047l0,-13.634l-4.096,-0l0,-0.228l4.319,-0l-0,13.861c-0,2.065 -0.825,2.273 -2.238,2.274l-0.379,0l-0,0.543c1.007,-0.005 2.735,-0.098 4.226,-0.098c1.335,0 3.049,0.093 4.07,0.098l0,-0.543l-0.379,0c-1.243,-0.001 -2.238,-0.306 -2.238,-2.328l-0,-13.807l4.318,-0c1.728,0.008 1.95,1.476 2.003,2.431l0.562,-0.205c0,-0.672 0,-1.344 0.04,-2.022c0.078,-0.662 0.17,-1.319 0.274,-1.976l-0.392,-0.066c-0.118,0.75 -0.838,0.787 -1.492,0.78l-13.361,0c-0.602,0 -1.256,-0.028 -1.492,-0.747l-0.419,0c-0.013,0.698 -0.052,1.395 -0.157,2.086c-0.078,0.708 -0.196,1.387 -0.288,2.066l0.55,0c0.34,-1.792 0.563,-2.373 2.473,-2.347l0,0.228c-1.897,0.032 -1.858,0.354 -2.277,2.256l-0.013,0.087l-0.994,0l0.013,-0.133c0.104,-0.721 0.235,-1.438 0.314,-2.188c0.104,-0.713 0.157,-1.428 0.157,-2.167l-0,-0.112l0.811,0l0.013,0.08c0.183,0.649 0.655,0.653 1.309,0.664l13.361,-0c0.72,-0.011 1.243,-0.021 1.282,-0.694l0.014,-0.122l0.117,0.025l0.72,0.115l-0.013,0.112c-0.105,0.689 -0.196,1.382 -0.275,2.077c-0.052,0.684 -0.052,1.38 -0.052,2.074l-0,0.081l-0.079,0.027l-0.903,0.333l-0.013,-0.151c-0.065,-0.967 -0.17,-2.366 -1.793,-2.366l-4.096,0l0,13.58c0.027,1.942 0.799,2.077 2.016,2.1l0.602,0l-0,0.996l-0.105,0l-0,0.003Zm5.405,-0.886l0.366,-0c0.916,-0 1.898,-0.125 1.898,-1.465l-0,-13.482c-0,-1.342 -0.982,-1.469 -1.898,-1.469l-0.366,0l-0,-0.773c1.557,-0 4.24,0.102 6.386,0.102c2.159,-0 4.829,-0.102 6.569,-0.102c-0.039,1.312 -0.026,2.626 0.052,3.936l-0.772,0.208c-0.117,-1.672 -0.432,-3.008 -3.127,-3.008l-3.56,-0l0,6.739l3.049,0c1.545,0 1.872,-0.873 2.029,-2.266l0.759,-0c-0.092,1.981 -0.092,3.965 -0,5.946l-0.759,0.154c-0.157,-1.544 -0.236,-2.546 -2.003,-2.546l-3.075,-0l0,5.993c0,1.675 1.479,1.675 3.128,1.675c3.075,0 4.436,-0.208 5.208,-3.138l0.72,0.177c-0.34,1.353 -0.641,2.719 -0.877,4.095c-1.636,-0 -4.593,-0.101 -6.896,-0.101c-2.317,-0 -5.366,0.101 -6.831,0.101l-0,-0.776Z" style="fill:#211e1f;fill-rule:nonzero;"/><path d="M62.657,207.945c-1.649,-0 -4.593,-0.105 -6.909,-0.105c-2.304,-0 -5.353,0.105 -6.818,0.105l-0.105,-0l-0,-0.995l0.458,0c0.942,-0.014 1.78,-0.098 1.793,-1.354l-0,-13.484c-0.013,-1.257 -0.851,-1.34 -1.793,-1.36l-0.458,-0l-0,-0.991l0.105,0c1.57,0 4.227,0.098 6.386,0.098c2.159,0 4.815,-0.098 6.569,-0.098l0.118,0l-0.013,0.115c-0.013,0.443 -0.026,0.885 -0.026,1.329c-0,0.89 0.026,1.862 0.078,2.596l0,0.092l-0.078,0.024l-0.903,0.236l-0,-0.131c-0.157,-1.67 -0.38,-2.881 -3.023,-2.906l-3.455,-0l-0,6.513l2.944,-0c1.479,-0.013 1.741,-0.772 1.911,-2.158l0.013,-0.102l0.981,-0l0,0.115c-0.052,1.002 -0.078,2.006 -0.078,3.008c-0,0.974 0.026,1.952 0.078,2.932l0,0.09l-0.091,0.021l-0.89,0.178l-0.013,-0.12c-0.17,-1.571 -0.183,-2.431 -1.885,-2.45l-2.97,-0.001l-0,5.886c-0,1.562 1.348,1.553 3.023,1.562c3.088,-0.017 4.318,-0.167 5.09,-3.058l0.027,-0.103l0.117,0.021l0.812,0.21l-0.026,0.108c-0.328,1.362 -0.629,2.723 -0.864,4.085l-0.026,0.092l-0.079,-0Zm-0.091,-0.224c0.222,-1.309 0.51,-2.607 0.824,-3.896l-0.51,-0.129c-0.759,2.88 -2.251,3.136 -5.274,3.118c-1.623,0 -3.246,0 -3.246,-1.788l0,-6.104l3.193,-0c1.78,-0.021 1.963,1.065 2.094,2.529l0.55,-0.115c-0.092,-1.913 -0.092,-3.83 -0,-5.743l-0.55,-0c-0.144,1.34 -0.562,2.282 -2.12,2.263l-3.167,0l0,-6.965l3.678,-0c2.669,-0.02 3.114,1.362 3.232,2.981l0.55,-0.15c-0.053,-0.838 -0.079,-1.677 -0.079,-2.517c0,-0.441 0.013,-0.857 0.026,-1.221c-1.74,0.008 -4.344,0.099 -6.451,0.099c-2.107,0 -4.711,-0.091 -6.282,-0.099l0,0.545l0.249,0c0.916,0 2.015,0.161 2.015,1.583l0,13.484c0,1.417 -1.099,1.574 -2.015,1.581l-0.249,-0l0,0.543c1.505,-0.002 4.463,-0.099 6.714,-0.099c2.264,0 5.156,0.097 6.818,0.099l-0,0.001Zm4.423,-15.123c-0,-1.878 -1.021,-1.955 -1.819,-1.955l-0.458,0l-0,-0.774c0.811,-0 2.408,0.104 3.965,0.104c1.544,0 2.774,-0.104 4.135,-0.104c3.232,-0 6.111,0.876 6.111,4.535c0,2.31 -1.544,3.727 -3.572,4.528l4.384,6.585c0.72,1.089 1.23,1.393 2.499,1.543l0,0.776c-0.85,0 -1.675,-0.102 -2.525,-0.102c-0.786,-0 -1.61,0.102 -2.408,0.102c-1.976,-2.6 -3.664,-5.381 -5.339,-8.342l-1.689,-0l0,5.51c0,1.984 0.916,2.056 2.107,2.056l0.458,0l0,0.776c-1.465,0 -2.944,-0.102 -4.41,-0.102c-1.23,-0 -2.447,0.102 -3.716,0.102l-0,-0.776l0.458,0c0.955,0 1.819,-0.433 1.819,-1.387l-0,-13.076l-0,0.001Zm3.284,5.97l1.257,0c2.565,0 3.952,-0.977 3.952,-4.015c-0,-2.287 -1.466,-3.755 -3.756,-3.755c-0.759,-0 -1.086,0.08 -1.453,0.103l0,7.667Z" style="fill:#211e1f;fill-rule:nonzero;"/><path d="M82.234,207.945c-0.863,-0 -1.675,-0.104 -2.525,-0.104c-0.786,0 -1.597,0.105 -2.5,0.06c-1.963,-2.588 -3.651,-5.352 -5.313,-8.294l-1.505,0l0,5.393c0.026,1.937 0.798,1.92 1.989,1.949l0.576,-0l0,0.997l-0.118,-0c-1.465,-0 -2.957,-0.105 -4.41,-0.105c-1.23,0 -2.434,0.105 -3.716,0.105l-0.118,-0l-0,-0.997l0.576,-0c0.916,-0.005 1.701,-0.408 1.701,-1.275l-0,-13.076c-0.013,-1.826 -0.903,-1.816 -1.701,-1.842l-0.576,-0l-0,-0.999l0.118,0c0.824,0 2.408,0.102 3.965,0.102c1.531,0 2.774,-0.102 4.135,-0.102c3.232,0.008 6.216,0.903 6.216,4.639c0,2.326 -1.531,3.777 -3.507,4.586l4.305,6.474c0.72,1.067 1.165,1.333 2.421,1.493l0.092,0.014l-0,0.983l-0.105,-0.001Zm-12.078,-8.561l1.871,-0l0.026,0.056c1.675,2.957 3.363,5.733 5.248,8.286c0.785,0 1.609,-0.106 2.408,-0.106c0.824,0 1.609,0.089 2.407,0.101l0,-0.563c-1.203,-0.15 -1.766,-0.51 -2.473,-1.579l-4.462,-6.701l0.131,-0.052c2.002,-0.792 3.494,-2.167 3.494,-4.43c-0,-3.57 -2.762,-4.398 -5.994,-4.412c-1.348,-0 -2.578,0.102 -4.135,0.102c-1.505,-0 -3.023,-0.094 -3.861,-0.102l0,0.545l0.354,0c0.798,0.002 1.923,0.134 1.923,2.069l0,13.076c0,1.031 -0.955,1.503 -1.923,1.505l-0.354,0l0,0.542c1.231,-0.003 2.408,-0.101 3.612,-0.101c1.427,0 2.879,0.098 4.293,0.101l-0,-0.542l-0.341,0c-1.178,-0.002 -2.224,-0.148 -2.224,-2.179l-0,-5.616Zm0.117,-0.707l-0.117,-0l-0,-7.879l0.104,-0.009c0.354,-0.028 0.694,-0.101 1.466,-0.101c2.342,-0 3.86,1.524 3.86,3.871c0,3.072 -1.465,4.117 -4.056,4.117l-1.257,-0l0,0.001Zm1.257,-0.221c2.538,-0.021 3.821,-0.906 3.847,-3.897c-0.013,-2.249 -1.413,-3.644 -3.651,-3.653c-0.694,0 -1.008,0.064 -1.335,0.093l0,7.457l1.139,-0Zm28.122,4.308l0.039,-0.051l0,-9.649c0,-2.113 -1.452,-2.419 -2.224,-2.419l-0.563,-0l-0,-0.774c1.204,0 2.382,0.102 3.586,0.102c1.06,0 2.107,-0.102 3.166,-0.102l0,0.774l-0.392,-0c-1.073,-0 -2.277,0.204 -2.277,3.266l-0,11.712c-0,0.899 0.026,1.8 0.144,2.596l-0.969,0l-13.217,-14.771l0,10.603c0,2.241 0.445,3.009 2.421,3.009l0.432,0l0,0.776c-1.099,0 -2.211,-0.102 -3.311,-0.102c-1.151,-0 -2.342,0.102 -3.494,0.102l0,-0.776l0.367,0c1.766,0 2.303,-1.207 2.303,-3.264l-0,-10.839c-0,-1.441 -1.178,-2.314 -2.33,-2.314l-0.34,0l0,-0.772c0.982,0 1.976,0.102 2.958,0.102c0.759,0 1.505,-0.102 2.277,-0.102l11.424,12.893Z" style="fill:#211e1f;fill-rule:nonzero;"/><path d="M101.131,208.332l-1.047,-0.035l-13.021,-14.556l0,10.312c0.026,2.238 0.366,2.874 2.303,2.898l0.537,0l-0,0.995l-0.105,-0c-1.112,-0 -2.211,-0.105 -3.311,-0.105c-1.151,0 -2.342,0.105 -3.494,0.105l-0.118,-0l0,-0.995l0.472,0c1.701,-0.007 2.185,-1.101 2.198,-3.16l0,-10.833c0,-1.371 -1.112,-2.201 -2.212,-2.203l-0.458,-0l0,-0.995l0.118,-0c0.982,-0 1.989,0.101 2.958,0.101c0.746,-0 1.492,-0.102 2.355,-0.067l11.281,12.737l-0,-9.468c-0.013,-2.044 -1.374,-2.298 -2.12,-2.308l-0.681,-0l0,-0.995l0.118,-0c1.204,-0 2.395,0.101 3.586,0.101c1.047,-0 2.107,-0.102 3.153,-0.102l0.118,-0l0,0.996l-0.497,-0c-1.06,0.028 -2.146,0.123 -2.172,3.159l-0,11.709c-0,0.9 0.026,1.792 0.157,2.583l0.013,0.126l-0.131,0Zm-0.969,-0.225l0.838,-0c-0.105,-0.772 -0.131,-1.629 -0.131,-2.484l0,-11.709c0,-3.089 1.296,-3.375 2.395,-3.385l0.275,0l-0,-0.544c-1.008,0.008 -2.029,0.101 -3.049,0.101c-1.178,-0 -2.317,-0.093 -3.481,-0.101l-0,0.544l0.458,0c0.785,0.01 2.342,0.356 2.342,2.534l-0.039,9.728l-0.039,0.053l-0.079,0.083l-11.424,-12.941c-0.759,0 -1.505,0.1 -2.277,0.1c-0.956,-0 -1.911,-0.093 -2.853,-0.1l-0,0.545l0.235,-0c1.204,0.008 2.435,0.92 2.435,2.427l-0,10.833c-0,2.066 -0.576,3.382 -2.408,3.388l-0.262,-0.001l-0,0.544c1.112,-0.005 2.264,-0.099 3.389,-0.099c1.073,-0 2.133,0.094 3.193,0.099l0,-0.543l-0.314,0c-2.028,-0.001 -2.525,-0.888 -2.538,-3.128l-0,-10.887l13.334,14.943Zm-0.575,-5.393l-0,-0.008l-0.027,-0.019l0.027,0.027Zm8.192,1.442c-0.262,0.873 -0.563,1.547 -0.563,2.006c-0,0.775 1.073,0.901 1.924,0.901l0.274,-0l0,0.774c-1.033,-0.061 -2.067,-0.095 -3.101,-0.102c-0.929,0 -1.845,0.047 -2.774,0.102l-0,-0.776l0.157,0c1.007,0 1.858,-0.59 2.224,-1.673l4.11,-11.809c0.34,-0.953 0.798,-2.241 0.955,-3.194c0.824,-0.28 1.845,-0.795 2.329,-1.104c0.079,-0.026 0.131,-0.054 0.21,-0.054c0.078,0 0.13,0 0.183,0.08c0.078,0.204 0.144,0.437 0.235,0.643l4.711,13.46c0.314,0.899 0.615,1.852 0.956,2.625c0.301,0.721 0.85,1.026 1.688,1.026l0.157,0l-0,0.776c-1.178,-0.061 -2.356,-0.095 -3.533,-0.1c-1.27,-0 -2.552,0.045 -3.861,0.1l0,-0.776l0.288,0c0.589,0 1.597,-0.099 1.597,-0.743c-0,-0.335 -0.236,-1.029 -0.524,-1.854l-0.994,-2.987l-5.824,0l-0.824,2.68l-0,-0.001Zm3.742,-11.401l-0.052,0l-2.382,7.283l4.79,-0l-2.356,-7.283Z" style="fill:#211e1f;fill-rule:nonzero;"/><path d="M121.441,207.946c-1.152,-0.052 -2.303,-0.105 -3.534,-0.105c-1.256,0 -2.525,0.053 -3.847,0.105l-0.105,0.008l0,-1.007l0.393,0c0.589,0 1.466,-0.136 1.466,-0.629c0.013,-0.293 -0.223,-1 -0.498,-1.819l-0.981,-2.91l-5.653,-0l-0.799,2.6c-0.261,0.878 -0.575,1.558 -0.562,1.977c-0,0.628 0.955,0.781 1.819,0.781l0.392,0l0,1.006l-0.118,-0.007c-1.033,-0.052 -2.08,-0.105 -3.101,-0.105c-0.916,0 -1.845,0.053 -2.761,0.105l-0.118,0.008l0,-1.007l0.262,0c0.955,-0.003 1.753,-0.547 2.12,-1.595l4.109,-11.81c0.34,-0.954 0.798,-2.237 1.021,-3.263c0.811,-0.29 1.596,-0.66 2.329,-1.104c0.078,-0.025 0.144,-0.06 0.249,-0.06c0.052,-0.003 0.117,0.01 0.157,0.036c0.052,0.027 0.091,0.066 0.13,0.114c0.066,0.212 0.144,0.44 0.223,0.649l4.724,13.46c0.314,0.903 0.615,1.854 0.955,2.614c0.288,0.686 0.759,0.957 1.584,0.959l0.262,0l-0,1.007l-0.118,-0.008Zm-7.263,-0.23c1.269,-0.044 2.512,-0.095 3.729,-0.095c1.204,0 2.317,0.051 3.429,0.095l0,-0.537l-0.039,0c-0.877,0.005 -1.479,-0.34 -1.793,-1.099c-0.34,-0.781 -0.654,-1.735 -0.955,-2.637l-4.724,-13.457c-0.079,-0.205 -0.144,-0.439 -0.223,-0.621c-0.013,-0.025 -0.013,-0.025 -0.026,-0.025l-0.052,-0c-0.053,-0 -0.079,0.016 -0.144,0.034c-0.498,0.323 -1.531,0.827 -2.29,1.03c-0.158,0.973 -0.616,2.257 -0.956,3.211l-4.109,11.812c-0.392,1.116 -1.282,1.755 -2.329,1.752l-0.04,0l0,0.537c0.877,-0.044 1.767,-0.095 2.657,-0.095c0.995,0 2.002,0.051 2.984,0.095l-0,-0.537l-0.157,0c-0.838,-0.01 -2.003,-0.105 -2.042,-1.013c0,-0.513 0.314,-1.172 0.563,-2.041l0.118,0.034l-0.118,-0.038l0.851,-2.751l5.98,0l1.034,3.058c0.288,0.827 0.523,1.512 0.523,1.89c-0.039,0.79 -1.125,0.845 -1.701,0.861l-0.17,0l-0,0.537Zm-5.248,-7.567l2.46,-7.506l0.21,-0l2.434,7.506l-5.104,0Zm0.301,-0.222l4.502,-0l-2.238,-6.898l-2.264,6.898Zm13.348,-8.768c-1.923,-0 -2.002,0.463 -2.381,2.34l-0.773,-0c0.092,-0.719 0.223,-1.438 0.315,-2.188c0.091,-0.72 0.143,-1.438 0.143,-2.183l0.616,-0c0.209,0.772 0.85,0.745 1.544,0.745l13.243,-0c0.681,-0 1.322,-0.024 1.374,-0.799l0.615,0.104c-0.091,0.695 -0.196,1.389 -0.275,2.086c-0.052,0.693 -0.052,1.389 -0.052,2.083l-0.772,0.285c-0.052,-0.95 -0.17,-2.473 -1.898,-2.473l-4.2,-0l-0,13.692c-0,1.984 0.89,2.21 2.12,2.21l0.484,0l-0,0.776c-0.995,0 -2.787,-0.1 -4.175,-0.1c-1.544,-0 -3.337,0.1 -4.331,0.1l-0,-0.776l0.484,0c1.413,0 2.133,-0.125 2.133,-2.156l0,-13.746l-4.214,-0Z" style="fill:#211e1f;fill-rule:nonzero;"/><path d="M132.695,207.946c-1.008,-0 -2.814,-0.105 -4.188,-0.105c-1.531,0 -3.324,0.105 -4.331,0.105l-0.118,-0l0,-0.996l0.602,0c1.413,-0.034 1.976,-0.052 2.015,-2.047l0,-13.633l-4.096,0l0,-0.228l4.319,0l-0,13.861c-0,2.065 -0.825,2.268 -2.238,2.272l-0.38,0l0,0.551c1.021,-0.01 2.736,-0.103 4.227,-0.103c1.335,-0 3.063,0.093 4.07,0.103l0,-0.549l-0.379,-0c-1.23,-0.006 -2.238,-0.304 -2.238,-2.326l-0,-13.809l4.318,0c1.728,0.008 1.95,1.477 2.003,2.431l0.562,-0.206c0,-0.67 0,-1.343 0.053,-2.017c0.065,-0.663 0.157,-1.323 0.261,-1.978l-0.392,-0.067c-0.118,0.749 -0.838,0.791 -1.479,0.78l-13.374,0c-0.602,0.007 -1.256,-0.029 -1.492,-0.751l-0.419,-0c-0.013,0.7 -0.065,1.398 -0.157,2.091c-0.065,0.708 -0.196,1.39 -0.288,2.066l0.55,0c0.34,-1.794 0.563,-2.375 2.473,-2.349l0,0.228c-1.897,0.032 -1.858,0.355 -2.277,2.258l-0.013,0.086l-0.994,-0l0.013,-0.128c0.104,-0.727 0.235,-1.444 0.314,-2.188c0.104,-0.719 0.157,-1.433 0.157,-2.171l-0,-0.113l0.811,0l0.013,0.081c0.183,0.649 0.655,0.652 1.309,0.664l0.131,0.002l13.243,0c0.707,-0.013 1.217,-0.025 1.269,-0.695l0,-0.123l0.131,0.025l0.72,0.115l-0.013,0.112c-0.105,0.689 -0.209,1.382 -0.288,2.075c-0.052,0.685 -0.052,1.382 -0.052,2.076l-0,0.079l-0.066,0.029l-0.916,0.331l0,-0.15c-0.065,-0.966 -0.17,-2.366 -1.793,-2.366l-4.096,-0l0,13.582c0.027,1.941 0.799,2.074 2.016,2.099l0.602,0l-0,0.995l-0.105,-0l-0,0.001Zm5.535,-0.886l0.354,0c0.929,0 1.897,-0.124 1.897,-1.466l0,-13.48c0,-1.342 -0.968,-1.469 -1.897,-1.469l-0.354,-0l0,-0.772c0.995,-0 2.539,0.102 3.795,0.102c1.283,-0 2.827,-0.102 4.031,-0.102l0,0.772l-0.366,-0c-0.916,-0 -1.898,0.127 -1.898,1.469l0,13.482c0,1.34 0.982,1.465 1.898,1.465l0.366,0l0,0.775c-1.23,0 -2.774,-0.101 -4.057,-0.101c-1.256,0 -2.774,0.102 -3.769,0.102l0,-0.777Z" style="fill:#211e1f;fill-rule:nonzero;"/><path d="M146.056,207.945c-1.243,-0 -2.774,-0.105 -4.057,-0.105c-1.256,-0 -2.774,0.105 -3.769,0.105l-0.117,-0l-0,-0.996l0.471,-0c0.929,-0.015 1.78,-0.094 1.78,-1.355l-0,-13.481c-0,-1.256 -0.851,-1.343 -1.78,-1.36l-0.471,0l-0,-0.992l0.117,0c0.995,0 2.539,0.097 3.795,0.097c1.27,0 2.814,-0.097 4.031,-0.097l0.105,0l-0,0.992l-0.471,0c-0.929,0.017 -1.78,0.104 -1.793,1.36l-0,13.481c0.013,1.261 0.864,1.34 1.793,1.355l0.471,-0l-0,0.994l-0.105,0l0,0.002Zm-0.118,-0.225l0,-0.545l-0.248,0c-0.916,0 -2.003,-0.162 -2.003,-1.581l0,-13.481c0,-1.423 1.087,-1.584 2.003,-1.584l0.248,0l0,-0.545c-1.191,0.006 -2.669,0.099 -3.913,0.099c-1.217,0 -2.695,-0.093 -3.69,-0.099l0,0.545l0.249,0c0.916,0 2.002,0.161 2.015,1.584l0,13.481c-0.013,1.419 -1.099,1.581 -2.015,1.581l-0.249,0l0,0.545c0.995,-0.011 2.447,-0.099 3.664,-0.099c1.244,0 2.735,0.093 3.939,0.099Zm10.352,-18.234c5.47,0 9.827,3.402 9.827,8.881c0,5.92 -4.24,9.854 -9.697,9.854c-5.443,-0 -9.605,-3.706 -9.605,-9.239c0,-5.351 4.135,-9.496 9.475,-9.496Zm0.379,17.603c4.986,-0 5.85,-4.405 5.85,-8.157c-0,-3.761 -2.029,-8.315 -6.282,-8.315c-4.488,0 -5.823,4.015 -5.823,7.461c-0,4.606 2.107,9.011 6.255,9.011Z" style="fill:#211e1f;fill-rule:nonzero;"/><path d="M146.71,198.983c0.013,-5.414 4.188,-9.601 9.58,-9.609l-0,0.221c-5.274,0 -9.357,4.091 -9.357,9.388c-0,5.47 4.096,9.121 9.487,9.123c5.405,-0.002 9.58,-3.882 9.593,-9.744c-0.013,-5.41 -4.306,-8.759 -9.723,-8.767l-0,-0.221c5.509,0.004 9.932,3.438 9.932,8.988c0,5.981 -4.292,9.958 -9.802,9.969c-5.483,-0.011 -9.697,-3.755 -9.71,-9.349l0,0.001Zm3.599,-0.905c0,-3.46 1.348,-7.576 5.928,-7.576c4.358,0.01 6.386,4.65 6.399,8.43c-0.013,3.753 -0.889,8.264 -5.954,8.264l0,-0.218c4.868,-0.007 5.719,-4.293 5.732,-8.046c-0,-3.729 -2.002,-8.197 -6.177,-8.202c-4.397,0.005 -5.705,3.92 -5.705,7.348c-0,4.584 2.08,8.889 6.15,8.9l0,0.218c-4.266,-0.005 -6.373,-4.485 -6.373,-9.118Zm33.095,4.686l0.053,-0.05l-0,-9.65c-0,-2.112 -1.466,-2.419 -2.238,-2.419l-0.55,-0l0,-0.774c1.204,0 2.382,0.102 3.586,0.102c1.047,0 2.107,-0.102 3.154,-0.102l-0,0.774l-0.38,-0c-1.086,-0 -2.29,0.204 -2.29,3.266l0,11.713c0,0.899 0.026,1.799 0.157,2.597l-0.968,-0l-13.217,-14.772l-0,10.602c-0,2.241 0.431,3.009 2.408,3.009l0.431,0l0,0.776c-1.099,0 -2.198,-0.101 -3.31,-0.101c-1.152,0 -2.33,0.101 -3.481,0.101l-0,-0.776l0.353,0c1.78,0 2.303,-1.205 2.303,-3.262l0,-10.84c0,-1.441 -1.165,-2.313 -2.329,-2.313l-0.341,-0l0,-0.772c0.982,-0 1.99,0.102 2.958,0.102c0.772,-0 1.518,-0.102 2.29,-0.102l11.411,12.891Z" style="fill:#211e1f;fill-rule:nonzero;"/><path d="M184.896,208.332l-1.06,-0.038l-13.021,-14.554l0,10.313c0.027,2.238 0.367,2.871 2.29,2.894l0.563,0l0,1l-0.118,0c-1.112,0 -2.211,-0.104 -3.31,-0.104c-1.152,-0 -2.33,0.104 -3.495,0.104l-0.104,0l-0,-1l0.471,0c1.688,-0.005 2.172,-1.097 2.198,-3.149l0,-10.84c0,-1.37 -1.125,-2.201 -2.224,-2.203l-0.445,-0l-0,-0.992l0.104,-0c0.982,-0 1.99,0.098 2.958,0.098c0.759,-0 1.505,-0.098 2.369,-0.062l11.267,12.732l-0,-9.464c-0,-2.048 -1.374,-2.294 -2.12,-2.312l-0.681,-0l0,-0.992l0.118,-0c1.217,-0 2.395,0.099 3.586,0.099c1.06,0 2.107,-0.099 3.167,-0.099l0.104,-0l0,0.992l-0.497,-0c-1.047,0.031 -2.146,0.126 -2.159,3.159l-0,11.709c-0,0.9 0.013,1.797 0.144,2.585l0.013,0.124l-0.118,0Zm-0.981,-0.225l0.85,-0c-0.117,-0.772 -0.131,-1.629 -0.131,-2.484l0,-11.709c0,-3.095 1.283,-3.375 2.382,-3.385l0.288,0l0,-0.544c-1.021,0.008 -2.028,0.101 -3.062,0.101c-1.165,-0 -2.316,-0.093 -3.468,-0.101l-0,0.544l0.445,0c0.798,0.01 2.342,0.362 2.342,2.538l-0.026,9.724l-0.131,0.136l-11.424,-12.941c-0.746,0 -1.505,0.1 -2.277,0.1c-0.942,-0 -1.911,-0.093 -2.84,-0.1l0,0.545l0.223,-0c1.204,0.008 2.447,0.92 2.447,2.427l-0,10.84c-0,2.057 -0.576,3.375 -2.421,3.381l-0.249,-0.001l0,0.544c1.113,-0.005 2.251,-0.099 3.377,-0.099c1.073,-0 2.133,0.094 3.206,0.099l-0,-0.543l-0.341,0c-2.015,-0.001 -2.512,-0.888 -2.512,-3.126l-0,-10.893l13.322,14.947Zm-0.576,-5.393l-0,-0.008l-0.013,-0.019l0.013,0.027Zm8.192,1.442c-0.249,0.873 -0.563,1.547 -0.563,2.006c0,0.775 1.086,0.901 1.924,0.901l0.288,-0l-0,0.774c-1.034,-0.061 -2.068,-0.095 -3.115,-0.102c-0.916,0 -1.845,0.047 -2.761,0.102l0,-0.776l0.144,0c1.008,0 1.858,-0.59 2.238,-1.673l4.109,-11.809c0.327,-0.953 0.798,-2.241 0.942,-3.194c0.811,-0.29 1.597,-0.66 2.343,-1.104c0.078,-0.026 0.13,-0.054 0.209,-0.054c0.065,0 0.118,0 0.17,0.08c0.079,0.204 0.157,0.437 0.236,0.643l4.724,13.46c0.301,0.899 0.602,1.852 0.942,2.625c0.314,0.721 0.851,1.026 1.701,1.026l0.157,0l0,0.776c-1.191,-0.061 -2.368,-0.095 -3.546,-0.1c-1.283,0.006 -2.565,0.04 -3.848,0.1l0,-0.776l0.275,0c0.589,0 1.597,-0.099 1.597,-0.743c-0,-0.335 -0.236,-1.029 -0.524,-1.854l-0.994,-2.987l-5.824,0l-0.824,2.68l-0,-0.001Zm3.756,-11.401l-0.053,0l-2.394,7.283l4.802,-0l-2.355,-7.283Z" style="fill:#211e1f;fill-rule:nonzero;"/><path d="M205.206,207.946c-1.165,-0.047 -2.316,-0.105 -3.533,-0.105c-1.256,0 -2.539,0.058 -3.848,0.105l-0.117,0.007l-0,-1.003l0.392,0c0.589,0 1.479,-0.14 1.479,-0.633c0.013,-0.293 -0.222,-0.995 -0.51,-1.819l-0.969,-2.911l-5.666,0l-0.798,2.601c-0.249,0.882 -0.563,1.558 -0.55,1.973c-0,0.632 0.955,0.789 1.806,0.789l0.392,0l0,1.003l-0.117,-0.007c-1.021,-0.047 -2.081,-0.105 -3.102,-0.105c-0.916,0 -1.832,0.058 -2.761,0.105l-0.118,0.007l0,-1.003l0.262,0c0.955,-0.004 1.754,-0.555 2.133,-1.599l4.109,-11.81c0.327,-0.954 0.785,-2.237 1.021,-3.26c0.798,-0.28 1.832,-0.793 2.329,-1.109c0.066,-0.023 0.131,-0.052 0.236,-0.052c0.065,-0.005 0.118,0.005 0.17,0.031c0.052,0.027 0.092,0.068 0.118,0.118c0.078,0.202 0.144,0.435 0.235,0.644l4.724,13.459c0.301,0.903 0.602,1.853 0.943,2.62c0.301,0.682 0.772,0.95 1.583,0.958l0.275,0l-0,1.003l-0.118,-0.007Zm-7.276,-0.226c1.269,-0.049 2.513,-0.099 3.743,-0.099c1.191,0 2.303,0.05 3.428,0.095l-0.013,-0.538l-0.039,-0c-0.864,0.002 -1.479,-0.34 -1.793,-1.099c-0.34,-0.782 -0.641,-1.736 -0.942,-2.635l-4.724,-13.459c-0.079,-0.205 -0.157,-0.44 -0.223,-0.614c-0.026,-0.032 -0.013,-0.032 -0.039,-0.032l-0.052,-0c-0.053,-0 -0.079,0.018 -0.144,0.035c-0.497,0.317 -1.518,0.83 -2.277,1.029c-0.17,0.973 -0.628,2.257 -0.955,3.211l-4.11,11.813c-0.392,1.116 -1.295,1.753 -2.342,1.751l-0.039,-0l-0,0.538c0.89,-0.045 1.766,-0.095 2.656,-0.095c0.995,0 2.016,0.05 2.997,0.095l0,-0.538l-0.17,-0c-0.838,-0.011 -2.002,-0.101 -2.042,-1.017c0.014,-0.51 0.328,-1.165 0.576,-2.038l0.105,0.034l-0.105,-0.037l0.851,-2.751l5.98,-0l1.021,3.057c0.288,0.829 0.523,1.513 0.523,1.891c-0.039,0.79 -1.112,0.845 -1.701,0.861l-0.17,-0l0,0.542Zm-5.247,-7.573l2.46,-7.505l0.222,-0l2.421,7.505l-5.103,-0Zm0.314,-0.222l4.488,0l-2.238,-6.892l-2.25,6.892Zm2.172,-7.138l0.052,-0.021l-0.052,0.021Zm16.502,12.526c-0,1.031 0.719,1.337 1.544,1.442c1.047,0.079 2.198,0.079 3.389,-0.052c1.073,-0.128 2.002,-0.746 2.46,-1.39c0.406,-0.567 0.642,-1.288 0.786,-1.853l0.746,-0c-0.275,1.466 -0.642,2.91 -0.943,4.376c-2.25,0 -4.514,-0.101 -6.778,-0.101c-2.251,0 -4.515,0.101 -6.766,0.101l0,-0.775l0.353,0c0.93,0 1.924,-0.125 1.924,-1.722l0,-13.226c0,-1.341 -0.994,-1.467 -1.924,-1.467l-0.353,-0l0,-0.773c1.348,-0 2.696,0.102 4.044,0.102c1.321,-0 2.591,-0.102 3.913,-0.102l-0,0.773l-0.655,-0c-0.968,-0 -1.74,0.027 -1.74,1.387l-0,13.28Z" style="fill:#211e1f;fill-rule:nonzero;"/><path d="M219.653,207.946c-2.264,-0 -4.527,-0.103 -6.778,-0.103c-2.251,-0 -4.515,0.103 -6.779,0.103l-0.105,-0l0,-0.995l0.471,0c0.93,-0.022 1.806,-0.086 1.819,-1.612l0,-13.23c-0.013,-1.251 -0.889,-1.336 -1.819,-1.354l-0.471,-0l0,-0.992l0.105,-0c1.374,-0 2.709,0.098 4.057,0.098c1.308,-0 2.591,-0.098 3.913,-0.098l0.104,-0l0,0.992l-0.759,-0c-0.994,0.028 -1.609,-0.019 -1.622,1.279l-0,13.28c-0,0.958 0.628,1.217 1.426,1.33c0.458,0.031 0.929,0.052 1.426,0.052c0.628,0 1.283,-0.031 1.937,-0.102c1.047,-0.123 1.95,-0.729 2.395,-1.342c0.392,-0.55 0.615,-1.257 0.772,-1.818l0.026,-0.085l0.969,-0l-0.027,0.136c-0.288,1.471 -0.641,2.91 -0.955,4.373l-0.013,0.089l-0.092,-0.001Zm-0.091,-0.224c0.288,-1.396 0.628,-2.761 0.903,-4.152l-0.524,-0c-0.157,0.56 -0.392,1.25 -0.798,1.812c-0.471,0.668 -1.426,1.296 -2.539,1.433c-0.667,0.07 -1.335,0.105 -1.963,0.105c-0.497,0 -0.981,-0.024 -1.439,-0.056c-0.838,-0.092 -1.649,-0.45 -1.649,-1.55l-0,-13.281c-0,-1.429 0.903,-1.502 1.858,-1.502l0.537,-0l-0,-0.547c-1.27,0.008 -2.513,0.102 -3.795,0.102c-1.322,-0 -2.618,-0.094 -3.939,-0.102l-0,0.547l0.248,-0c0.916,-0 2.029,0.159 2.029,1.577l-0,13.23c-0,1.664 -1.113,1.839 -2.029,1.839l-0.248,-0l-0,0.544c2.224,-0.003 4.436,-0.098 6.661,-0.098c2.237,-0 4.462,0.095 6.687,0.098l-0,0.001Zm0.733,-18.581c1.544,-0 2.695,1.192 2.695,2.719c0,1.521 -1.151,2.701 -2.695,2.701c-1.558,0 -2.709,-1.18 -2.709,-2.701c-0,-1.527 1.151,-2.719 2.709,-2.719Zm-0,4.917c1.204,-0 2.133,-1.036 2.133,-2.198c-0,-1.168 -0.916,-2.213 -2.133,-2.213c-1.217,0 -2.147,1.045 -2.147,2.213c0,1.162 0.93,2.198 2.147,2.198Zm-1.348,-0.77l-0,-0.133c0.327,-0.048 0.392,-0.037 0.392,-0.244l0,-2.005c0,-0.282 -0.039,-0.379 -0.379,-0.363l-0,-0.138l1.374,0c0.484,0 0.916,0.227 0.916,0.719c-0,0.403 -0.262,0.701 -0.641,0.816l0.445,0.622c0.209,0.282 0.445,0.545 0.602,0.638l-0,0.088l-0.537,0c-0.249,0 -0.471,-0.534 -0.968,-1.248l-0.301,-0l-0,0.9c-0,0.178 0.065,0.167 0.405,0.215l0,0.133l-1.308,0Zm0.903,-1.428l0.327,0c0.34,0 0.51,-0.265 0.51,-0.691c0,-0.433 -0.248,-0.585 -0.536,-0.585l-0.301,0l-0,1.276Zm-215.361,-40.063c-0,-4.253 -2.212,-3.973 -4.332,-4.02l0,-1.229c1.845,0.091 3.73,0.091 5.575,0.091c1.976,0 4.659,-0.091 8.153,-0.091c12.209,-0 18.857,8.18 18.857,16.555c-0,4.684 -2.735,16.458 -19.42,16.458c-2.408,-0 -4.633,-0.093 -6.844,-0.093c-2.12,-0 -4.201,0.047 -6.321,0.093l0,-1.228c2.827,-0.285 4.201,-0.379 4.332,-3.597l-0,-22.939Zm4.632,22.184c0,3.643 2.591,4.067 4.894,4.067c10.195,-0 13.545,-7.711 13.545,-14.758c-0,-8.841 -5.667,-15.226 -14.762,-15.226c-1.936,0 -2.826,0.139 -3.677,0.189l0,25.728Zm25.27,4.352l0.903,0c1.321,0 2.264,0 2.264,-1.564l-0,-12.815c-0,-2.08 -0.707,-2.369 -2.461,-3.308l0,-0.758c2.225,-0.669 4.869,-1.56 5.052,-1.703c0.327,-0.189 0.615,-0.239 0.85,-0.239c0.236,-0 0.328,0.285 0.328,0.666l-0,18.157c-0,1.564 1.033,1.564 2.355,1.564l0.798,0l0,1.23c-1.596,0 -3.245,-0.094 -4.946,-0.094c-1.702,-0 -3.39,0.046 -5.143,0.094l-0,-1.23Zm5.051,-27.67c-1.23,0 -2.316,-1.133 -2.316,-2.363c-0,-1.184 1.138,-2.276 2.316,-2.276c1.217,0 2.316,0.999 2.316,2.276c0,1.277 -1.047,2.363 -2.316,2.363Zm9.527,13.572c-0,-1.748 -0.524,-2.219 -2.735,-3.118l-0,-0.898c2.028,-0.661 3.952,-1.277 6.216,-2.272c0.144,0 0.288,0.096 0.288,0.471l-0,3.077c2.682,-1.937 4.999,-3.549 8.166,-3.549c4.004,-0 5.417,2.933 5.417,6.622l0,12.201c0,1.564 1.034,1.564 2.356,1.564l0.85,0l0,1.23c-1.662,0 -3.31,-0.094 -4.999,-0.094c-1.701,-0 -3.402,0.046 -5.09,0.094l-0,-1.23l0.837,0c1.335,0 2.264,0 2.264,-1.564l0,-12.247c0,-2.699 -1.635,-4.02 -4.331,-4.02c-1.505,-0 -3.913,1.228 -5.47,2.271l-0,13.995c-0,1.565 1.034,1.565 2.355,1.565l0.851,0l-0,1.23c-1.649,0 -3.298,-0.094 -4.999,-0.094c-1.701,-0 -3.403,0.046 -5.091,0.094l0,-1.23l0.851,0c1.322,0 2.264,0 2.264,-1.565l-0,-12.533Zm24.144,2.273c-0.105,0.427 -0.105,1.135 0,2.746c0.275,4.491 3.154,8.179 6.923,8.179c2.604,-0 4.632,-1.419 6.373,-3.169l0.654,0.665c-2.172,2.883 -4.855,5.342 -8.715,5.342c-7.499,0 -9.017,-7.285 -9.017,-10.309c0,-9.272 6.229,-12.016 9.527,-12.016c3.821,-0 7.93,2.41 7.97,7.424c-0,0.288 -0,0.568 -0.04,0.854l-0.432,0.284l-13.243,0Zm8.349,-1.514c1.178,0 1.309,-0.615 1.309,-1.182c-0,-2.411 -1.453,-4.352 -4.096,-4.352c-2.879,-0 -4.855,2.125 -5.418,5.534l8.205,0Zm6.452,13.339l1.269,0c1.322,0 2.264,0 2.264,-1.564l-0,-13.289c-0,-1.466 -1.74,-1.75 -2.447,-2.128l-0,-0.706c3.442,-1.469 5.326,-2.7 5.758,-2.7c0.275,-0 0.419,0.143 0.419,0.618l-0,4.255l0.091,0c1.178,-1.842 3.167,-4.873 6.033,-4.873c1.191,-0 2.696,0.802 2.696,2.507c-0,1.277 -0.903,2.416 -2.212,2.416c-1.466,-0 -1.466,-1.139 -3.114,-1.139c-0.812,0 -3.442,1.089 -3.442,3.928l-0,11.111c-0,1.564 0.942,1.564 2.264,1.564l2.63,0l0,1.23c-2.591,-0.048 -4.567,-0.094 -6.595,-0.094c-1.937,-0 -3.913,0.046 -5.614,0.094l-0,-1.23Zm18.15,-5.347c0.615,3.122 2.5,5.772 5.955,5.772c2.774,0 3.808,-1.702 3.808,-3.358c-0,-5.581 -10.273,-3.784 -10.273,-11.398c0,-2.65 2.12,-6.056 7.302,-6.056c1.505,-0 3.533,0.429 5.379,1.375l0.327,4.82l-1.086,-0c-0.471,-2.976 -2.12,-4.68 -5.143,-4.68c-1.885,0 -3.664,1.089 -3.664,3.12c-0,5.538 10.927,3.832 10.927,11.257c-0,3.12 -2.5,6.434 -8.101,6.434c-1.897,0 -4.109,-0.663 -5.758,-1.607l-0.523,-5.44l0.85,-0.239Zm56.114,-17.877l-1.177,-0c-0.89,-5.532 -4.803,-7.756 -10.09,-7.756c-5.418,-0 -13.296,3.639 -13.296,14.99c0,9.559 6.792,16.415 14.055,16.415c4.659,0 8.532,-3.215 9.475,-8.183l1.086,0.282l-1.086,6.905c-1.976,1.233 -7.303,2.509 -10.43,2.509c-11.019,0 -18.007,-7.142 -18.007,-17.784c0,-9.696 8.637,-16.651 17.876,-16.651c3.821,-0 7.498,1.234 11.123,2.512l0.471,6.761Zm1.702,23.224l0.889,0c1.322,0 2.277,0 2.277,-1.564l0,-26.34c0,-3.076 -0.706,-3.171 -2.512,-3.69l-0,-0.758c1.897,-0.612 3.873,-1.466 4.868,-2.035c0.51,-0.282 0.89,-0.521 1.034,-0.521c0.288,0 0.379,0.286 0.379,0.666l0,32.678c0,1.564 1.034,1.564 2.356,1.564l0.798,0l0,1.23c-1.596,0 -3.245,-0.094 -4.946,-0.094c-1.702,-0 -3.39,0.046 -5.143,0.094l-0,-1.23Zm30.281,-1.375c0,0.854 0.511,0.901 1.309,0.901c0.576,0 1.269,-0.047 1.884,-0.047l0,0.995c-2.028,0.188 -5.889,1.183 -6.791,1.464l-0.236,-0.143l-0,-3.827c-2.827,2.316 -4.999,3.97 -8.349,3.97c-2.539,0 -5.182,-1.654 -5.182,-5.624l-0,-12.113c-0,-1.228 -0.183,-2.412 -2.827,-2.646l0,-0.9c1.701,-0.046 5.47,-0.33 6.085,-0.33c0.524,-0 0.524,0.331 0.524,1.371l-0,12.198c-0,1.422 -0,5.488 4.096,5.488c1.596,0 3.729,-1.228 5.705,-2.879l0,-12.73c0,-0.942 -2.264,-1.46 -3.952,-1.935l0,-0.852c4.227,-0.284 6.884,-0.661 7.342,-0.661c0.392,-0 0.392,0.33 0.392,0.853l0,17.447Zm9.383,-15.606c1.885,-1.608 4.423,-3.406 7.014,-3.406c5.484,-0 8.768,4.782 8.768,9.932c0,6.197 -4.515,12.393 -11.267,12.393c-3.481,0 -5.326,-1.136 -6.556,-1.654l-1.414,1.085l-0.981,-0.518c0.419,-2.79 0.654,-5.535 0.654,-8.417l0,-20.338c0,-3.076 -0.706,-3.171 -2.499,-3.69l-0,-0.758c1.897,-0.612 3.873,-1.466 4.855,-2.035c0.523,-0.282 0.903,-0.521 1.047,-0.521c0.274,0 0.379,0.286 0.379,0.666l0,17.261Zm0,12.864c0,1.798 1.688,4.828 4.855,4.828c5.038,-0 7.158,-4.969 7.158,-9.18c0,-5.107 -3.86,-9.362 -7.537,-9.362c-1.754,-0 -3.206,1.136 -4.476,2.226l0,11.488Zm-203.439,32.845l0.366,0c0.916,0 1.898,-0.125 1.898,-1.465l-0,-13.483c-0,-1.341 -0.982,-1.468 -1.898,-1.468l-0.366,-0l-0,-0.772c1.007,-0 2.538,0.102 3.808,0.102c1.282,-0 2.813,-0.102 4.017,-0.102l0,0.772l-0.353,-0c-0.929,-0 -1.898,0.127 -1.898,1.468l0,13.483c0,1.34 0.969,1.465 1.898,1.465l0.353,0l0,0.776c-1.23,0 -2.774,-0.102 -4.043,-0.102c-1.27,0 -2.775,0.102 -3.782,0.102l-0,-0.776Z" style="fill:#211e1f;fill-rule:nonzero;"/><path d="M7.93,207.946c-1.23,-0 -2.774,-0.105 -4.043,-0.105c-1.257,0 -2.775,0.105 -3.782,0.105l-0.105,-0l0,-0.996l0.471,0c0.929,-0.021 1.78,-0.097 1.78,-1.354l-0,-13.483c-0,-1.258 -0.851,-1.341 -1.78,-1.36l-0.471,0l0,-0.996l0.105,0c1.007,0 2.552,0.102 3.808,0.102c1.269,0 2.813,-0.102 4.017,-0.102l0.118,0l0,0.996l-0.471,0c-0.929,0.019 -1.78,0.102 -1.793,1.36l0,13.483c0.013,1.257 0.864,1.332 1.793,1.354l0.471,0l0,0.995l-0.118,-0l0,0.001Zm-0.104,-0.22l-0,-0.549l-0.249,-0c-0.916,-0 -2.002,-0.16 -2.015,-1.581l-0,-13.483c0.013,-1.423 1.099,-1.582 2.015,-1.582l0.249,-0l-0,-0.547c-1.191,-0 -2.67,0.101 -3.913,0.101c-1.217,-0 -2.696,-0.093 -3.691,-0.101l0,0.547l0.249,-0c0.916,-0 2.002,0.159 2.002,1.582l0,13.483c0,1.422 -1.086,1.581 -2.002,1.581l-0.249,-0l0,0.549c0.995,-0.01 2.448,-0.105 3.665,-0.105c1.243,0 2.735,0.097 3.939,0.105Zm17.732,-4.962l0.052,-0.051l-0,-9.649c-0,-2.113 -1.466,-2.418 -2.225,-2.418l-0.576,-0l0,-0.775c1.217,0 2.395,0.102 3.599,0.102c1.047,0 2.107,-0.102 3.154,-0.102l-0,0.774l-0.38,-0c-1.086,-0 -2.29,0.205 -2.29,3.266l0,11.712c0,0.9 0.026,1.8 0.157,2.596l-0.981,0l-13.204,-14.771l-0,10.603c-0,2.241 0.432,3.009 2.408,3.009l0.432,0l-0,0.776c-1.1,0 -2.199,-0.101 -3.311,-0.101c-1.152,0 -2.33,0.101 -3.481,0.101l-0,-0.776l0.353,0c1.78,0 2.316,-1.207 2.316,-3.264l0,-10.839c0,-1.44 -1.19,-2.312 -2.342,-2.312l-0.327,-0l-0,-0.774c0.968,0 1.976,0.102 2.944,0.102c0.772,0 1.518,-0.102 2.29,-0.102l11.412,12.893Z" style="fill:#211e1f;fill-rule:nonzero;"/><path d="M27.049,208.333l-1.06,-0.039l-13.02,-14.554l-0,10.313c0.026,2.239 0.366,2.872 2.303,2.898l0.549,0l0,0.995l-0.117,-0c-1.113,-0 -2.212,-0.103 -3.311,-0.103c-1.139,-0 -2.317,0.104 -3.481,0.104l-0.118,0l-0,-0.996l0.471,0c1.701,-0.009 2.186,-1.1 2.199,-3.152l-0,-10.839c-0,-1.371 -1.126,-2.202 -2.225,-2.204l-0.445,-0l-0,-0.993l0.118,-0c0.981,-0 1.976,0.098 2.944,0.098c0.759,-0 1.505,-0.098 2.369,-0.06l11.28,12.73l0,-9.464c-0.013,-2.048 -1.374,-2.294 -2.12,-2.311l-0.68,-0l-0,-0.993l0.104,-0c1.217,-0 2.395,0.098 3.599,0.098c1.047,-0 2.094,-0.098 3.154,-0.098l0.118,-0l-0,0.992l-0.498,-0c-1.06,0.031 -2.146,0.123 -2.172,3.157l0,11.711c0,0.899 0.026,1.8 0.144,2.579l0.026,0.131l-0.131,0Zm-0.981,-0.226l0.85,-0c-0.117,-0.773 -0.13,-1.629 -0.13,-2.484l-0,-11.711c-0,-3.088 1.295,-3.381 2.394,-3.381l0.275,-0l0,-0.545c-1.02,0.007 -2.028,0.1 -3.049,0.1c-1.178,-0 -2.316,-0.093 -3.481,-0.1l0,0.545l0.458,-0c0.785,-0 2.343,0.354 2.343,2.536l-0.04,9.724l-0.13,0.135l-11.412,-12.94c-0.772,0 -1.505,0.1 -2.29,0.1c-0.942,-0 -1.91,-0.093 -2.84,-0.1l0,0.545l0.223,-0c1.204,-0 2.447,0.922 2.447,2.429l0,10.838c0,2.057 -0.576,3.373 -2.421,3.381l-0.249,-0.008l0,0.555c1.113,-0.01 2.264,-0.103 3.377,-0.103c1.073,-0 2.146,0.094 3.206,0.104l-0,-0.548l-0.327,0c-2.016,-0.008 -2.526,-0.888 -2.526,-3.126l0,-10.893l13.322,14.947Zm-0.563,-5.394l0,-0.008l-0.026,-0.018l0.026,0.026Zm7.904,-11.554c-1.923,-0 -2.002,0.463 -2.381,2.34l-0.772,-0c0.104,-0.719 0.222,-1.438 0.3,-2.188c0.105,-0.72 0.158,-1.438 0.158,-2.183l0.615,-0c0.209,0.772 0.85,0.745 1.544,0.745l13.23,-0c0.694,-0 1.335,-0.024 1.4,-0.799l0.602,0.104c-0.091,0.695 -0.196,1.389 -0.275,2.086c-0.052,0.693 -0.052,1.389 -0.052,2.083l-0.772,0.287c-0.052,-0.953 -0.183,-2.475 -1.898,-2.475l-4.2,-0l-0,13.692c-0,1.984 0.89,2.21 2.12,2.21l0.497,0l-0,0.776c-1.008,0 -2.8,-0.1 -4.188,-0.1c-1.544,-0 -3.337,0.1 -4.344,0.1l-0,-0.776l0.497,0c1.413,0 2.12,-0.125 2.12,-2.156l-0,-13.746l-4.201,-0Z" style="fill:#211e1f;fill-rule:nonzero;"/><path d="M43.525,207.945c-1.008,-0 -2.814,-0.105 -4.188,-0.105c-1.531,-0 -3.337,0.105 -4.331,0.105l-0.118,-0l0,-0.996l0.602,-0c1.413,-0.034 1.976,-0.053 2.015,-2.047l0,-13.634l-4.096,-0l0,-0.228l4.319,-0l-0,13.861c-0,2.065 -0.825,2.273 -2.238,2.274l-0.379,0l-0,0.543c1.007,-0.005 2.735,-0.098 4.226,-0.098c1.335,0 3.049,0.093 4.07,0.098l0,-0.543l-0.379,0c-1.243,-0.001 -2.238,-0.306 -2.238,-2.328l-0,-13.807l4.318,-0c1.728,0.008 1.95,1.476 2.003,2.431l0.562,-0.205c0,-0.672 0,-1.344 0.04,-2.022c0.078,-0.662 0.17,-1.319 0.274,-1.976l-0.392,-0.066c-0.118,0.75 -0.838,0.787 -1.492,0.78l-13.361,0c-0.602,0 -1.256,-0.028 -1.492,-0.747l-0.419,0c-0.013,0.698 -0.052,1.395 -0.157,2.086c-0.078,0.708 -0.196,1.387 -0.288,2.066l0.55,0c0.34,-1.792 0.563,-2.373 2.473,-2.347l0,0.228c-1.897,0.032 -1.858,0.354 -2.277,2.256l-0.013,0.087l-0.994,0l0.013,-0.133c0.104,-0.721 0.235,-1.438 0.314,-2.188c0.104,-0.713 0.157,-1.428 0.157,-2.167l-0,-0.112l0.811,0l0.013,0.08c0.183,0.649 0.655,0.653 1.309,0.664l13.361,-0c0.72,-0.011 1.243,-0.021 1.282,-0.694l0.014,-0.122l0.117,0.025l0.72,0.115l-0.013,0.112c-0.105,0.689 -0.196,1.382 -0.275,2.077c-0.052,0.684 -0.052,1.38 -0.052,2.074l-0,0.081l-0.079,0.027l-0.903,0.333l-0.013,-0.151c-0.065,-0.967 -0.17,-2.366 -1.793,-2.366l-4.096,0l0,13.58c0.027,1.942 0.799,2.077 2.016,2.1l0.602,0l-0,0.996l-0.105,0l-0,0.003Zm5.405,-0.886l0.366,-0c0.916,-0 1.898,-0.125 1.898,-1.465l-0,-13.482c-0,-1.342 -0.982,-1.469 -1.898,-1.469l-0.366,0l-0,-0.773c1.557,-0 4.24,0.102 6.386,0.102c2.159,-0 4.829,-0.102 6.569,-0.102c-0.039,1.312 -0.026,2.626 0.052,3.936l-0.772,0.208c-0.117,-1.672 -0.432,-3.008 -3.127,-3.008l-3.56,-0l0,6.739l3.049,0c1.545,0 1.872,-0.873 2.029,-2.266l0.759,-0c-0.092,1.981 -0.092,3.965 -0,5.946l-0.759,0.154c-0.157,-1.544 -0.236,-2.546 -2.003,-2.546l-3.075,-0l0,5.993c0,1.675 1.479,1.675 3.128,1.675c3.075,0 4.436,-0.208 5.208,-3.138l0.72,0.177c-0.34,1.353 -0.641,2.719 -0.877,4.095c-1.636,-0 -4.593,-0.101 -6.896,-0.101c-2.317,-0 -5.366,0.101 -6.831,0.101l-0,-0.776Z" style="fill:#211e1f;fill-rule:nonzero;"/><path d="M62.657,207.945c-1.649,-0 -4.593,-0.105 -6.909,-0.105c-2.304,-0 -5.353,0.105 -6.818,0.105l-0.105,-0l-0,-0.995l0.458,0c0.942,-0.014 1.78,-0.098 1.793,-1.354l-0,-13.484c-0.013,-1.257 -0.851,-1.34 -1.793,-1.36l-0.458,-0l-0,-0.991l0.105,0c1.57,0 4.227,0.098 6.386,0.098c2.159,0 4.815,-0.098 6.569,-0.098l0.118,0l-0.013,0.115c-0.013,0.443 -0.026,0.885 -0.026,1.329c-0,0.89 0.026,1.862 0.078,2.596l0,0.092l-0.078,0.024l-0.903,0.236l-0,-0.131c-0.157,-1.67 -0.38,-2.881 -3.023,-2.906l-3.455,-0l-0,6.513l2.944,-0c1.479,-0.013 1.741,-0.772 1.911,-2.158l0.013,-0.102l0.981,-0l0,0.115c-0.052,1.002 -0.078,2.006 -0.078,3.008c-0,0.974 0.026,1.952 0.078,2.932l0,0.09l-0.091,0.021l-0.89,0.178l-0.013,-0.12c-0.17,-1.571 -0.183,-2.431 -1.885,-2.45l-2.97,-0.001l-0,5.886c-0,1.562 1.348,1.553 3.023,1.562c3.088,-0.017 4.318,-0.167 5.09,-3.058l0.027,-0.103l0.117,0.021l0.812,0.21l-0.026,0.108c-0.328,1.362 -0.629,2.723 -0.864,4.085l-0.026,0.092l-0.079,-0Zm-0.091,-0.224c0.222,-1.309 0.51,-2.607 0.824,-3.896l-0.51,-0.129c-0.759,2.88 -2.251,3.136 -5.274,3.118c-1.623,0 -3.246,0 -3.246,-1.788l0,-6.104l3.193,-0c1.78,-0.021 1.963,1.065 2.094,2.529l0.55,-0.115c-0.092,-1.913 -0.092,-3.83 -0,-5.743l-0.55,-0c-0.144,1.34 -0.562,2.282 -2.12,2.263l-3.167,0l0,-6.965l3.678,-0c2.669,-0.02 3.114,1.362 3.232,2.981l0.55,-0.15c-0.053,-0.838 -0.079,-1.677 -0.079,-2.517c0,-0.441 0.013,-0.857 0.026,-1.221c-1.74,0.008 -4.344,0.099 -6.451,0.099c-2.107,0 -4.711,-0.091 -6.282,-0.099l0,0.545l0.249,0c0.916,0 2.015,0.161 2.015,1.583l0,13.484c0,1.417 -1.099,1.574 -2.015,1.581l-0.249,-0l0,0.543c1.505,-0.002 4.463,-0.099 6.714,-0.099c2.264,0 5.156,0.097 6.818,0.099l-0,0.001Zm4.423,-15.123c-0,-1.878 -1.021,-1.955 -1.819,-1.955l-0.458,0l-0,-0.774c0.811,-0 2.408,0.104 3.965,0.104c1.544,0 2.774,-0.104 4.135,-0.104c3.232,-0 6.111,0.876 6.111,4.535c0,2.31 -1.544,3.727 -3.572,4.528l4.384,6.585c0.72,1.089 1.23,1.393 2.499,1.543l0,0.776c-0.85,0 -1.675,-0.102 -2.525,-0.102c-0.786,-0 -1.61,0.102 -2.408,0.102c-1.976,-2.6 -3.664,-5.381 -5.339,-8.342l-1.689,-0l0,5.51c0,1.984 0.916,2.056 2.107,2.056l0.458,0l0,0.776c-1.465,0 -2.944,-0.102 -4.41,-0.102c-1.23,-0 -2.447,0.102 -3.716,0.102l-0,-0.776l0.458,0c0.955,0 1.819,-0.433 1.819,-1.387l-0,-13.076l-0,0.001Zm3.284,5.97l1.257,0c2.565,0 3.952,-0.977 3.952,-4.015c-0,-2.287 -1.466,-3.755 -3.756,-3.755c-0.759,-0 -1.086,0.08 -1.453,0.103l0,7.667Z" style="fill:#211e1f;fill-rule:nonzero;"/><path d="M82.234,207.945c-0.863,-0 -1.675,-0.104 -2.525,-0.104c-0.786,0 -1.597,0.105 -2.5,0.06c-1.963,-2.588 -3.651,-5.352 -5.313,-8.294l-1.505,0l0,5.393c0.026,1.937 0.798,1.92 1.989,1.949l0.576,-0l0,0.997l-0.118,-0c-1.465,-0 -2.957,-0.105 -4.41,-0.105c-1.23,0 -2.434,0.105 -3.716,0.105l-0.118,-0l-0,-0.997l0.576,-0c0.916,-0.005 1.701,-0.408 1.701,-1.275l-0,-13.076c-0.013,-1.826 -0.903,-1.816 -1.701,-1.842l-0.576,-0l-0,-0.999l0.118,0c0.824,0 2.408,0.102 3.965,0.102c1.531,0 2.774,-0.102 4.135,-0.102c3.232,0.008 6.216,0.903 6.216,4.639c0,2.326 -1.531,3.777 -3.507,4.586l4.305,6.474c0.72,1.067 1.165,1.333 2.421,1.493l0.092,0.014l-0,0.983l-0.105,-0.001Zm-12.078,-8.561l1.871,-0l0.026,0.056c1.675,2.957 3.363,5.733 5.248,8.286c0.785,0 1.609,-0.106 2.408,-0.106c0.824,0 1.609,0.089 2.407,0.101l0,-0.563c-1.203,-0.15 -1.766,-0.51 -2.473,-1.579l-4.462,-6.701l0.131,-0.052c2.002,-0.792 3.494,-2.167 3.494,-4.43c-0,-3.57 -2.762,-4.398 -5.994,-4.412c-1.348,-0 -2.578,0.102 -4.135,0.102c-1.505,-0 -3.023,-0.094 -3.861,-0.102l0,0.545l0.354,0c0.798,0.002 1.923,0.134 1.923,2.069l0,13.076c0,1.031 -0.955,1.503 -1.923,1.505l-0.354,0l0,0.542c1.231,-0.003 2.408,-0.101 3.612,-0.101c1.427,0 2.879,0.098 4.293,0.101l-0,-0.542l-0.341,0c-1.178,-0.002 -2.224,-0.148 -2.224,-2.179l-0,-5.616Zm0.117,-0.707l-0.117,-0l-0,-7.879l0.104,-0.009c0.354,-0.028 0.694,-0.101 1.466,-0.101c2.342,-0 3.86,1.524 3.86,3.871c0,3.072 -1.465,4.117 -4.056,4.117l-1.257,-0l0,0.001Zm1.257,-0.221c2.538,-0.021 3.821,-0.906 3.847,-3.897c-0.013,-2.249 -1.413,-3.644 -3.651,-3.653c-0.694,0 -1.008,0.064 -1.335,0.093l0,7.457l1.139,-0Zm28.122,4.308l0.039,-0.051l0,-9.649c0,-2.113 -1.452,-2.419 -2.224,-2.419l-0.563,-0l-0,-0.774c1.204,0 2.382,0.102 3.586,0.102c1.06,0 2.107,-0.102 3.166,-0.102l0,0.774l-0.392,-0c-1.073,-0 -2.277,0.204 -2.277,3.266l-0,11.712c-0,0.899 0.026,1.8 0.144,2.596l-0.969,0l-13.217,-14.771l0,10.603c0,2.241 0.445,3.009 2.421,3.009l0.432,0l0,0.776c-1.099,0 -2.211,-0.102 -3.311,-0.102c-1.151,-0 -2.342,0.102 -3.494,0.102l0,-0.776l0.367,0c1.766,0 2.303,-1.207 2.303,-3.264l-0,-10.839c-0,-1.441 -1.178,-2.314 -2.33,-2.314l-0.34,0l0,-0.772c0.982,0 1.976,0.102 2.958,0.102c0.759,0 1.505,-0.102 2.277,-0.102l11.424,12.893Z" style="fill:#211e1f;fill-rule:nonzero;"/><path d="M101.131,208.332l-1.047,-0.035l-13.021,-14.556l0,10.312c0.026,2.238 0.366,2.874 2.303,2.898l0.537,0l-0,0.995l-0.105,-0c-1.112,-0 -2.211,-0.105 -3.311,-0.105c-1.151,0 -2.342,0.105 -3.494,0.105l-0.118,-0l0,-0.995l0.472,0c1.701,-0.007 2.185,-1.101 2.198,-3.16l0,-10.833c0,-1.371 -1.112,-2.201 -2.212,-2.203l-0.458,-0l0,-0.995l0.118,-0c0.982,-0 1.989,0.101 2.958,0.101c0.746,-0 1.492,-0.102 2.355,-0.067l11.281,12.737l-0,-9.468c-0.013,-2.044 -1.374,-2.298 -2.12,-2.308l-0.681,-0l0,-0.995l0.118,-0c1.204,-0 2.395,0.101 3.586,0.101c1.047,-0 2.107,-0.102 3.153,-0.102l0.118,-0l0,0.996l-0.497,-0c-1.06,0.028 -2.146,0.123 -2.172,3.159l-0,11.709c-0,0.9 0.026,1.792 0.157,2.583l0.013,0.126l-0.131,0Zm-0.969,-0.225l0.838,-0c-0.105,-0.772 -0.131,-1.629 -0.131,-2.484l0,-11.709c0,-3.089 1.296,-3.375 2.395,-3.385l0.275,0l-0,-0.544c-1.008,0.008 -2.029,0.101 -3.049,0.101c-1.178,-0 -2.317,-0.093 -3.481,-0.101l-0,0.544l0.458,0c0.785,0.01 2.342,0.356 2.342,2.534l-0.039,9.728l-0.039,0.053l-0.079,0.083l-11.424,-12.941c-0.759,0 -1.505,0.1 -2.277,0.1c-0.956,-0 -1.911,-0.093 -2.853,-0.1l-0,0.545l0.235,-0c1.204,0.008 2.435,0.92 2.435,2.427l-0,10.833c-0,2.066 -0.576,3.382 -2.408,3.388l-0.262,-0.001l-0,0.544c1.112,-0.005 2.264,-0.099 3.389,-0.099c1.073,-0 2.133,0.094 3.193,0.099l0,-0.543l-0.314,0c-2.028,-0.001 -2.525,-0.888 -2.538,-3.128l-0,-10.887l13.334,14.943Zm-0.575,-5.393l-0,-0.008l-0.027,-0.019l0.027,0.027Zm8.192,1.442c-0.262,0.873 -0.563,1.547 -0.563,2.006c-0,0.775 1.073,0.901 1.924,0.901l0.274,-0l0,0.774c-1.033,-0.061 -2.067,-0.095 -3.101,-0.102c-0.929,0 -1.845,0.047 -2.774,0.102l-0,-0.776l0.157,0c1.007,0 1.858,-0.59 2.224,-1.673l4.11,-11.809c0.34,-0.953 0.798,-2.241 0.955,-3.194c0.824,-0.28 1.845,-0.795 2.329,-1.104c0.079,-0.026 0.131,-0.054 0.21,-0.054c0.078,0 0.13,0 0.183,0.08c0.078,0.204 0.144,0.437 0.235,0.643l4.711,13.46c0.314,0.899 0.615,1.852 0.956,2.625c0.301,0.721 0.85,1.026 1.688,1.026l0.157,0l-0,0.776c-1.178,-0.061 -2.356,-0.095 -3.533,-0.1c-1.27,-0 -2.552,0.045 -3.861,0.1l0,-0.776l0.288,0c0.589,0 1.597,-0.099 1.597,-0.743c-0,-0.335 -0.236,-1.029 -0.524,-1.854l-0.994,-2.987l-5.824,0l-0.824,2.68l-0,-0.001Zm3.742,-11.401l-0.052,0l-2.382,7.283l4.79,-0l-2.356,-7.283Z" style="fill:#211e1f;fill-rule:nonzero;"/><path d="M121.441,207.946c-1.152,-0.052 -2.303,-0.105 -3.534,-0.105c-1.256,0 -2.525,0.053 -3.847,0.105l-0.105,0.008l0,-1.007l0.393,0c0.589,0 1.466,-0.136 1.466,-0.629c0.013,-0.293 -0.223,-1 -0.498,-1.819l-0.981,-2.91l-5.653,-0l-0.799,2.6c-0.261,0.878 -0.575,1.558 -0.562,1.977c-0,0.628 0.955,0.781 1.819,0.781l0.392,0l0,1.006l-0.118,-0.007c-1.033,-0.052 -2.08,-0.105 -3.101,-0.105c-0.916,0 -1.845,0.053 -2.761,0.105l-0.118,0.008l0,-1.007l0.262,0c0.955,-0.003 1.753,-0.547 2.12,-1.595l4.109,-11.81c0.34,-0.954 0.798,-2.237 1.021,-3.263c0.811,-0.29 1.596,-0.66 2.329,-1.104c0.078,-0.025 0.144,-0.06 0.249,-0.06c0.052,-0.003 0.117,0.01 0.157,0.036c0.052,0.027 0.091,0.066 0.13,0.114c0.066,0.212 0.144,0.44 0.223,0.649l4.724,13.46c0.314,0.903 0.615,1.854 0.955,2.614c0.288,0.686 0.759,0.957 1.584,0.959l0.262,0l-0,1.007l-0.118,-0.008Zm-7.263,-0.23c1.269,-0.044 2.512,-0.095 3.729,-0.095c1.204,0 2.317,0.051 3.429,0.095l0,-0.537l-0.039,0c-0.877,0.005 -1.479,-0.34 -1.793,-1.099c-0.34,-0.781 -0.654,-1.735 -0.955,-2.637l-4.724,-13.457c-0.079,-0.205 -0.144,-0.439 -0.223,-0.621c-0.013,-0.025 -0.013,-0.025 -0.026,-0.025l-0.052,-0c-0.053,-0 -0.079,0.016 -0.144,0.034c-0.498,0.323 -1.531,0.827 -2.29,1.03c-0.158,0.973 -0.616,2.257 -0.956,3.211l-4.109,11.812c-0.392,1.116 -1.282,1.755 -2.329,1.752l-0.04,0l0,0.537c0.877,-0.044 1.767,-0.095 2.657,-0.095c0.995,0 2.002,0.051 2.984,0.095l-0,-0.537l-0.157,0c-0.838,-0.01 -2.003,-0.105 -2.042,-1.013c0,-0.513 0.314,-1.172 0.563,-2.041l0.118,0.034l-0.118,-0.038l0.851,-2.751l5.98,0l1.034,3.058c0.288,0.827 0.523,1.512 0.523,1.89c-0.039,0.79 -1.125,0.845 -1.701,0.861l-0.17,0l-0,0.537Zm-5.248,-7.567l2.46,-7.506l0.21,-0l2.434,7.506l-5.104,0Zm0.301,-0.222l4.502,-0l-2.238,-6.898l-2.264,6.898Zm13.348,-8.768c-1.923,-0 -2.002,0.463 -2.381,2.34l-0.773,-0c0.092,-0.719 0.223,-1.438 0.315,-2.188c0.091,-0.72 0.143,-1.438 0.143,-2.183l0.616,-0c0.209,0.772 0.85,0.745 1.544,0.745l13.243,-0c0.681,-0 1.322,-0.024 1.374,-0.799l0.615,0.104c-0.091,0.695 -0.196,1.389 -0.275,2.086c-0.052,0.693 -0.052,1.389 -0.052,2.083l-0.772,0.285c-0.052,-0.95 -0.17,-2.473 -1.898,-2.473l-4.2,-0l-0,13.692c-0,1.984 0.89,2.21 2.12,2.21l0.484,0l-0,0.776c-0.995,0 -2.787,-0.1 -4.175,-0.1c-1.544,-0 -3.337,0.1 -4.331,0.1l-0,-0.776l0.484,0c1.413,0 2.133,-0.125 2.133,-2.156l0,-13.746l-4.214,-0Z" style="fill:#211e1f;fill-rule:nonzero;"/><path d="M132.695,207.946c-1.008,-0 -2.814,-0.105 -4.188,-0.105c-1.531,0 -3.324,0.105 -4.331,0.105l-0.118,-0l0,-0.996l0.602,0c1.413,-0.034 1.976,-0.052 2.015,-2.047l0,-13.633l-4.096,0l0,-0.228l4.319,0l-0,13.861c-0,2.065 -0.825,2.268 -2.238,2.272l-0.38,0l0,0.551c1.021,-0.01 2.736,-0.103 4.227,-0.103c1.335,-0 3.063,0.093 4.07,0.103l0,-0.549l-0.379,-0c-1.23,-0.006 -2.238,-0.304 -2.238,-2.326l-0,-13.809l4.318,0c1.728,0.008 1.95,1.477 2.003,2.431l0.562,-0.206c0,-0.67 0,-1.343 0.053,-2.017c0.065,-0.663 0.157,-1.323 0.261,-1.978l-0.392,-0.067c-0.118,0.749 -0.838,0.791 -1.479,0.78l-13.374,0c-0.602,0.007 -1.256,-0.029 -1.492,-0.751l-0.419,-0c-0.013,0.7 -0.065,1.398 -0.157,2.091c-0.065,0.708 -0.196,1.39 -0.288,2.066l0.55,0c0.34,-1.794 0.563,-2.375 2.473,-2.349l0,0.228c-1.897,0.032 -1.858,0.355 -2.277,2.258l-0.013,0.086l-0.994,-0l0.013,-0.128c0.104,-0.727 0.235,-1.444 0.314,-2.188c0.104,-0.719 0.157,-1.433 0.157,-2.171l-0,-0.113l0.811,0l0.013,0.081c0.183,0.649 0.655,0.652 1.309,0.664l0.131,0.002l13.243,0c0.707,-0.013 1.217,-0.025 1.269,-0.695l0,-0.123l0.131,0.025l0.72,0.115l-0.013,0.112c-0.105,0.689 -0.209,1.382 -0.288,2.075c-0.052,0.685 -0.052,1.382 -0.052,2.076l-0,0.079l-0.066,0.029l-0.916,0.331l0,-0.15c-0.065,-0.966 -0.17,-2.366 -1.793,-2.366l-4.096,-0l0,13.582c0.027,1.941 0.799,2.074 2.016,2.099l0.602,0l-0,0.995l-0.105,-0l-0,0.001Zm5.535,-0.886l0.354,0c0.929,0 1.897,-0.124 1.897,-1.466l0,-13.48c0,-1.342 -0.968,-1.469 -1.897,-1.469l-0.354,-0l0,-0.772c0.995,-0 2.539,0.102 3.795,0.102c1.283,-0 2.827,-0.102 4.031,-0.102l0,0.772l-0.366,-0c-0.916,-0 -1.898,0.127 -1.898,1.469l0,13.482c0,1.34 0.982,1.465 1.898,1.465l0.366,0l0,0.775c-1.23,0 -2.774,-0.101 -4.057,-0.101c-1.256,0 -2.774,0.102 -3.769,0.102l0,-0.777Z" style="fill:#211e1f;fill-rule:nonzero;"/><path d="M146.056,207.945c-1.243,-0 -2.774,-0.105 -4.057,-0.105c-1.256,-0 -2.774,0.105 -3.769,0.105l-0.117,-0l-0,-0.996l0.471,-0c0.929,-0.015 1.78,-0.094 1.78,-1.355l-0,-13.481c-0,-1.256 -0.851,-1.343 -1.78,-1.36l-0.471,0l-0,-0.992l0.117,0c0.995,0 2.539,0.097 3.795,0.097c1.27,0 2.814,-0.097 4.031,-0.097l0.105,0l-0,0.992l-0.471,0c-0.929,0.017 -1.78,0.104 -1.793,1.36l-0,13.481c0.013,1.261 0.864,1.34 1.793,1.355l0.471,-0l-0,0.994l-0.105,0l0,0.002Zm-0.118,-0.225l0,-0.545l-0.248,0c-0.916,0 -2.003,-0.162 -2.003,-1.581l0,-13.481c0,-1.423 1.087,-1.584 2.003,-1.584l0.248,0l0,-0.545c-1.191,0.006 -2.669,0.099 -3.913,0.099c-1.217,0 -2.695,-0.093 -3.69,-0.099l0,0.545l0.249,0c0.916,0 2.002,0.161 2.015,1.584l0,13.481c-0.013,1.419 -1.099,1.581 -2.015,1.581l-0.249,0l0,0.545c0.995,-0.011 2.447,-0.099 3.664,-0.099c1.244,0 2.735,0.093 3.939,0.099Zm10.352,-18.234c5.47,0 9.827,3.402 9.827,8.881c0,5.92 -4.24,9.854 -9.697,9.854c-5.443,-0 -9.605,-3.706 -9.605,-9.239c0,-5.351 4.135,-9.496 9.475,-9.496Zm0.379,17.603c4.986,-0 5.85,-4.405 5.85,-8.157c-0,-3.761 -2.029,-8.315 -6.282,-8.315c-4.488,0 -5.823,4.015 -5.823,7.461c-0,4.606 2.107,9.011 6.255,9.011Z" style="fill:#211e1f;fill-rule:nonzero;"/><path d="M146.71,198.983c0.013,-5.414 4.188,-9.601 9.58,-9.609l-0,0.221c-5.274,0 -9.357,4.091 -9.357,9.388c-0,5.47 4.096,9.121 9.487,9.123c5.405,-0.002 9.58,-3.882 9.593,-9.744c-0.013,-5.41 -4.306,-8.759 -9.723,-8.767l-0,-0.221c5.509,0.004 9.932,3.438 9.932,8.988c0,5.981 -4.292,9.958 -9.802,9.969c-5.483,-0.011 -9.697,-3.755 -9.71,-9.349l0,0.001Zm3.599,-0.905c0,-3.46 1.348,-7.576 5.928,-7.576c4.358,0.01 6.386,4.65 6.399,8.43c-0.013,3.753 -0.889,8.264 -5.954,8.264l0,-0.218c4.868,-0.007 5.719,-4.293 5.732,-8.046c-0,-3.729 -2.002,-8.197 -6.177,-8.202c-4.397,0.005 -5.705,3.92 -5.705,7.348c-0,4.584 2.08,8.889 6.15,8.9l0,0.218c-4.266,-0.005 -6.373,-4.485 -6.373,-9.118Zm33.095,4.686l0.053,-0.05l-0,-9.65c-0,-2.112 -1.466,-2.419 -2.238,-2.419l-0.55,-0l0,-0.774c1.204,0 2.382,0.102 3.586,0.102c1.047,0 2.107,-0.102 3.154,-0.102l-0,0.774l-0.38,-0c-1.086,-0 -2.29,0.204 -2.29,3.266l0,11.713c0,0.899 0.026,1.799 0.157,2.597l-0.968,-0l-13.217,-14.772l-0,10.602c-0,2.241 0.431,3.009 2.408,3.009l0.431,0l0,0.776c-1.099,0 -2.198,-0.101 -3.31,-0.101c-1.152,0 -2.33,0.101 -3.481,0.101l-0,-0.776l0.353,0c1.78,0 2.303,-1.205 2.303,-3.262l0,-10.84c0,-1.441 -1.165,-2.313 -2.329,-2.313l-0.341,-0l0,-0.772c0.982,-0 1.99,0.102 2.958,0.102c0.772,-0 1.518,-0.102 2.29,-0.102l11.411,12.891Z" style="fill:#211e1f;fill-rule:nonzero;"/><path d="M184.896,208.332l-1.06,-0.038l-13.021,-14.554l0,10.313c0.027,2.238 0.367,2.871 2.29,2.894l0.563,0l0,1l-0.118,0c-1.112,0 -2.211,-0.104 -3.31,-0.104c-1.152,-0 -2.33,0.104 -3.495,0.104l-0.104,0l-0,-1l0.471,0c1.688,-0.005 2.172,-1.097 2.198,-3.149l0,-10.84c0,-1.37 -1.125,-2.201 -2.224,-2.203l-0.445,-0l-0,-0.992l0.104,-0c0.982,-0 1.99,0.098 2.958,0.098c0.759,-0 1.505,-0.098 2.369,-0.062l11.267,12.732l-0,-9.464c-0,-2.048 -1.374,-2.294 -2.12,-2.312l-0.681,-0l0,-0.992l0.118,-0c1.217,-0 2.395,0.099 3.586,0.099c1.06,0 2.107,-0.099 3.167,-0.099l0.104,-0l0,0.992l-0.497,-0c-1.047,0.031 -2.146,0.126 -2.159,3.159l-0,11.709c-0,0.9 0.013,1.797 0.144,2.585l0.013,0.124l-0.118,0Zm-0.981,-0.225l0.85,-0c-0.117,-0.772 -0.131,-1.629 -0.131,-2.484l0,-11.709c0,-3.095 1.283,-3.375 2.382,-3.385l0.288,0l0,-0.544c-1.021,0.008 -2.028,0.101 -3.062,0.101c-1.165,-0 -2.316,-0.093 -3.468,-0.101l-0,0.544l0.445,0c0.798,0.01 2.342,0.362 2.342,2.538l-0.026,9.724l-0.131,0.136l-11.424,-12.941c-0.746,0 -1.505,0.1 -2.277,0.1c-0.942,-0 -1.911,-0.093 -2.84,-0.1l0,0.545l0.223,-0c1.204,0.008 2.447,0.92 2.447,2.427l-0,10.84c-0,2.057 -0.576,3.375 -2.421,3.381l-0.249,-0.001l0,0.544c1.113,-0.005 2.251,-0.099 3.377,-0.099c1.073,-0 2.133,0.094 3.206,0.099l-0,-0.543l-0.341,0c-2.015,-0.001 -2.512,-0.888 -2.512,-3.126l-0,-10.893l13.322,14.947Zm-0.576,-5.393l-0,-0.008l-0.013,-0.019l0.013,0.027Zm8.192,1.442c-0.249,0.873 -0.563,1.547 -0.563,2.006c0,0.775 1.086,0.901 1.924,0.901l0.288,-0l-0,0.774c-1.034,-0.061 -2.068,-0.095 -3.115,-0.102c-0.916,0 -1.845,0.047 -2.761,0.102l0,-0.776l0.144,0c1.008,0 1.858,-0.59 2.238,-1.673l4.109,-11.809c0.327,-0.953 0.798,-2.241 0.942,-3.194c0.811,-0.29 1.597,-0.66 2.343,-1.104c0.078,-0.026 0.13,-0.054 0.209,-0.054c0.065,0 0.118,0 0.17,0.08c0.079,0.204 0.157,0.437 0.236,0.643l4.724,13.46c0.301,0.899 0.602,1.852 0.942,2.625c0.314,0.721 0.851,1.026 1.701,1.026l0.157,0l0,0.776c-1.191,-0.061 -2.368,-0.095 -3.546,-0.1c-1.283,0.006 -2.565,0.04 -3.848,0.1l0,-0.776l0.275,0c0.589,0 1.597,-0.099 1.597,-0.743c-0,-0.335 -0.236,-1.029 -0.524,-1.854l-0.994,-2.987l-5.824,0l-0.824,2.68l-0,-0.001Zm3.756,-11.401l-0.053,0l-2.394,7.283l4.802,-0l-2.355,-7.283Z" style="fill:#211e1f;fill-rule:nonzero;"/><path d="M205.206,207.946c-1.165,-0.047 -2.316,-0.105 -3.533,-0.105c-1.256,0 -2.539,0.058 -3.848,0.105l-0.117,0.007l-0,-1.003l0.392,0c0.589,0 1.479,-0.14 1.479,-0.633c0.013,-0.293 -0.222,-0.995 -0.51,-1.819l-0.969,-2.911l-5.666,0l-0.798,2.601c-0.249,0.882 -0.563,1.558 -0.55,1.973c-0,0.632 0.955,0.789 1.806,0.789l0.392,0l0,1.003l-0.117,-0.007c-1.021,-0.047 -2.081,-0.105 -3.102,-0.105c-0.916,0 -1.832,0.058 -2.761,0.105l-0.118,0.007l0,-1.003l0.262,0c0.955,-0.004 1.754,-0.555 2.133,-1.599l4.109,-11.81c0.327,-0.954 0.785,-2.237 1.021,-3.26c0.798,-0.28 1.832,-0.793 2.329,-1.109c0.066,-0.023 0.131,-0.052 0.236,-0.052c0.065,-0.005 0.118,0.005 0.17,0.031c0.052,0.027 0.092,0.068 0.118,0.118c0.078,0.202 0.144,0.435 0.235,0.644l4.724,13.459c0.301,0.903 0.602,1.853 0.943,2.62c0.301,0.682 0.772,0.95 1.583,0.958l0.275,0l-0,1.003l-0.118,-0.007Zm-7.276,-0.226c1.269,-0.049 2.513,-0.099 3.743,-0.099c1.191,0 2.303,0.05 3.428,0.095l-0.013,-0.538l-0.039,-0c-0.864,0.002 -1.479,-0.34 -1.793,-1.099c-0.34,-0.782 -0.641,-1.736 -0.942,-2.635l-4.724,-13.459c-0.079,-0.205 -0.157,-0.44 -0.223,-0.614c-0.026,-0.032 -0.013,-0.032 -0.039,-0.032l-0.052,-0c-0.053,-0 -0.079,0.018 -0.144,0.035c-0.497,0.317 -1.518,0.83 -2.277,1.029c-0.17,0.973 -0.628,2.257 -0.955,3.211l-4.11,11.813c-0.392,1.116 -1.295,1.753 -2.342,1.751l-0.039,-0l-0,0.538c0.89,-0.045 1.766,-0.095 2.656,-0.095c0.995,0 2.016,0.05 2.997,0.095l0,-0.538l-0.17,-0c-0.838,-0.011 -2.002,-0.101 -2.042,-1.017c0.014,-0.51 0.328,-1.165 0.576,-2.038l0.105,0.034l-0.105,-0.037l0.851,-2.751l5.98,-0l1.021,3.057c0.288,0.829 0.523,1.513 0.523,1.891c-0.039,0.79 -1.112,0.845 -1.701,0.861l-0.17,-0l0,0.542Zm-5.247,-7.573l2.46,-7.505l0.222,-0l2.421,7.505l-5.103,-0Zm0.314,-0.222l4.488,0l-2.238,-6.892l-2.25,6.892Zm2.172,-7.138l0.052,-0.021l-0.052,0.021Zm16.502,12.526c-0,1.031 0.719,1.337 1.544,1.442c1.047,0.079 2.198,0.079 3.389,-0.052c1.073,-0.128 2.002,-0.746 2.46,-1.39c0.406,-0.567 0.642,-1.288 0.786,-1.853l0.746,-0c-0.275,1.466 -0.642,2.91 -0.943,4.376c-2.25,0 -4.514,-0.101 -6.778,-0.101c-2.251,0 -4.515,0.101 -6.766,0.101l0,-0.775l0.353,0c0.93,0 1.924,-0.125 1.924,-1.722l0,-13.226c0,-1.341 -0.994,-1.467 -1.924,-1.467l-0.353,-0l0,-0.773c1.348,-0 2.696,0.102 4.044,0.102c1.321,-0 2.591,-0.102 3.913,-0.102l-0,0.773l-0.655,-0c-0.968,-0 -1.74,0.027 -1.74,1.387l-0,13.28Z" style="fill:#211e1f;fill-rule:nonzero;"/><path d="M219.653,207.946c-2.264,-0 -4.527,-0.103 -6.778,-0.103c-2.251,-0 -4.515,0.103 -6.779,0.103l-0.105,-0l0,-0.995l0.471,0c0.93,-0.022 1.806,-0.086 1.819,-1.612l0,-13.23c-0.013,-1.251 -0.889,-1.337 -1.819,-1.354l-0.471,-0l0,-0.994l0.105,0c1.374,0 2.709,0.1 4.057,0.1c1.308,-0 2.591,-0.1 3.913,-0.1l0.104,0l0,0.994l-0.759,-0c-0.994,0.027 -1.609,-0.019 -1.622,1.278l-0,13.281c-0,0.958 0.628,1.217 1.426,1.33c0.458,0.031 0.929,0.051 1.426,0.051c0.628,-0 1.283,-0.03 1.937,-0.101c1.047,-0.124 1.95,-0.729 2.395,-1.342c0.392,-0.55 0.615,-1.257 0.772,-1.818l0.026,-0.085l0.969,-0l-0.027,0.136c-0.288,1.471 -0.641,2.91 -0.955,4.373l-0.013,0.088l-0.092,-0Zm-0.091,-0.225c0.288,-1.395 0.628,-2.76 0.903,-4.151l-0.524,-0c-0.157,0.56 -0.392,1.25 -0.798,1.811c-0.471,0.669 -1.426,1.297 -2.539,1.434c-0.667,0.068 -1.335,0.105 -1.963,0.105c-0.497,0 -0.981,-0.024 -1.439,-0.056c-0.838,-0.092 -1.649,-0.45 -1.649,-1.55l-0,-13.281c-0,-1.429 0.903,-1.502 1.858,-1.502l0.537,-0l-0,-0.547c-1.27,0.008 -2.513,0.102 -3.795,0.102c-1.322,-0 -2.618,-0.094 -3.939,-0.102l-0,0.547l0.248,-0c0.916,-0 2.029,0.159 2.029,1.575l-0,13.232c-0,1.664 -1.113,1.839 -2.029,1.839l-0.248,-0l-0,0.544c2.224,-0.003 4.436,-0.1 6.661,-0.1c2.237,0 4.462,0.097 6.687,0.1Zm0.733,-18.58c1.544,-0 2.695,1.192 2.695,2.719c0,1.521 -1.151,2.701 -2.695,2.701c-1.558,0 -2.709,-1.18 -2.709,-2.701c-0,-1.527 1.151,-2.719 2.709,-2.719Zm-0,4.917c1.204,-0 2.133,-1.036 2.133,-2.198c-0,-1.168 -0.916,-2.213 -2.133,-2.213c-1.217,0 -2.147,1.045 -2.147,2.213c0,1.162 0.93,2.198 2.147,2.198Zm-1.348,-0.77l-0,-0.135c0.327,-0.046 0.392,-0.035 0.392,-0.242l0,-2.005c0,-0.282 -0.039,-0.379 -0.379,-0.365l-0,-0.136l1.374,0c0.484,0 0.916,0.225 0.916,0.719c-0,0.403 -0.262,0.701 -0.641,0.816l0.445,0.622c0.209,0.282 0.445,0.545 0.602,0.638l-0,0.088l-0.537,0c-0.249,0 -0.471,-0.534 -0.968,-1.25l-0.301,0l-0,0.901c-0,0.178 0.065,0.167 0.405,0.214l0,0.135l-1.308,0Zm0.903,-1.428l0.327,0c0.34,0 0.51,-0.265 0.51,-0.691c0,-0.433 -0.248,-0.585 -0.536,-0.585l-0.301,0l-0,1.276Z" style="fill:#211e1f;fill-rule:nonzero;"/></g><g><path d="M125.38,143.424c38.997,0.188 74.578,-31.968 74.578,-71.088c0,-42.78 -35.581,-72.351 -74.578,-72.336l-33.554,0c-39.455,-0.015 -71.935,29.565 -71.935,72.336c0,39.127 32.48,71.276 71.935,71.088l33.554,0Z" style="fill:#0079be;fill-rule:nonzero;"/><path d="M91.984,5.927c-36.053,0.011 -65.275,29.393 -65.275,65.657c0,36.256 29.222,65.636 65.275,65.648c36.065,-0.011 65.287,-29.392 65.287,-65.648c0,-36.265 -29.222,-65.646 -65.287,-65.657Zm-41.379,65.657c0.039,-17.721 11.045,-32.831 26.565,-38.836l-0,77.662c-15.52,-6.001 -26.526,-21.104 -26.565,-38.826Zm56.192,38.844l0,-77.682c15.521,5.99 26.552,21.11 26.578,38.839c0,8.399 -2.538,16.603 -7.276,23.535c-4.75,6.932 -11.476,12.267 -19.302,15.308Z" style="fill:#fff;fill-rule:nonzero;"/><path d="M125.38,143.424c38.997,0.188 74.578,-31.968 74.578,-71.088c0,-42.78 -35.581,-72.351 -74.578,-72.336l-33.554,0c-39.455,-0.015 -71.935,29.565 -71.935,72.336c0,39.127 32.48,71.276 71.935,71.088l33.554,0Z" style="fill:#0079be;fill-rule:nonzero;"/><path d="M91.984,5.927c-36.053,0.011 -65.275,29.393 -65.275,65.657c0,36.256 29.222,65.636 65.275,65.648c36.065,-0.011 65.287,-29.392 65.287,-65.648c0,-36.265 -29.222,-65.646 -65.287,-65.657Zm-41.379,65.657c0.039,-17.721 11.045,-32.831 26.565,-38.836l-0,77.662c-15.52,-6.001 -26.526,-21.104 -26.565,-38.826Zm56.192,38.844l0,-77.682c15.521,5.99 26.552,21.11 26.578,38.839c0,8.399 -2.538,16.603 -7.276,23.535c-4.75,6.932 -11.476,12.267 -19.302,15.308Z" style="fill:#fff;fill-rule:nonzero;"/></g></g></svg>