<svg width="41" height="41" viewBox="0 0 41 41" fill="none" xmlns="http://www.w3.org/2000/svg">
<rect x="0.323242" y="0.140137" width="40" height="40" rx="20" fill="#292929"/>
<path d="M28.3232 20.1401C28.323 18.6113 27.8847 17.1146 27.0603 15.8272C26.2359 14.5397 25.0598 13.5155 23.6713 12.8757C22.2829 12.2359 20.7401 12.0073 19.2258 12.217C17.7115 12.4267 16.2889 13.0659 15.1266 14.059C13.9643 15.0521 13.1108 16.3574 12.6673 17.8204C12.2238 19.2835 12.2088 20.843 12.624 22.3143C13.0392 23.7856 13.8674 25.1071 15.0103 26.1224C16.1533 27.1377 17.5632 27.8042 19.0732 28.0431V22.4531H17.0422V20.1401H19.0732V18.3771C19.0732 16.3721 20.2672 15.2651 22.0952 15.2651C22.9702 15.2651 23.8852 15.4211 23.8852 15.4211V17.3901H22.8772C21.8832 17.3901 21.5732 18.0071 21.5732 18.6401V20.1401H23.7922L23.4372 22.4531H21.5732V28.0431C23.455 27.745 25.1686 26.7853 26.4059 25.3366C27.6433 23.8879 28.3231 22.0453 28.3232 20.1401Z" fill="white"/>
</svg>
