<?xml version="1.0" encoding="UTF-8" standalone="no"?><!DOCTYPE svg PUBLIC "-//W3C//DTD SVG 1.1//EN" "http://www.w3.org/Graphics/SVG/1.1/DTD/svg11.dtd"><svg width="100%" height="100%" viewBox="0 0 210 209" version="1.1" xmlns="http://www.w3.org/2000/svg" xmlns:xlink="http://www.w3.org/1999/xlink" xml:space="preserve" xmlns:serif="http://www.serif.com/" style="fill-rule:evenodd;clip-rule:evenodd;stroke-linejoin:round;stroke-miterlimit:2;"><path d="M209.616,104.806c0,-57.884 -46.921,-104.806 -104.806,-104.806c-57.884,0 -104.81,46.922 -104.81,104.806c-0,52.309 38.328,95.667 88.439,103.527l0,-73.228l-26.62,0l-0,-30.299l26.62,-0l0,-23.089c0,-26.264 15.638,-40.769 39.586,-40.769c11.455,-0 23.455,2.043 23.455,2.043l0,25.783l-13.205,-0c-13.028,-0 -17.084,8.08 -17.084,16.381l0,19.651l29.063,-0l-4.643,30.289l-24.42,-0l0,73.238c50.098,-7.86 88.425,-51.218 88.425,-103.527Z" style="fill:#fff;fill-opacity:0.9;fill-rule:nonzero;"/></svg>