<?xml version="1.0" encoding="UTF-8" standalone="no"?><!DOCTYPE svg PUBLIC "-//W3C//DTD SVG 1.1//EN" "http://www.w3.org/Graphics/SVG/1.1/DTD/svg11.dtd"><svg width="100%" height="100%" viewBox="0 0 109 209" version="1.1" xmlns="http://www.w3.org/2000/svg" xmlns:xlink="http://www.w3.org/1999/xlink" xml:space="preserve" xmlns:serif="http://www.serif.com/" style="fill-rule:evenodd;clip-rule:evenodd;stroke-linejoin:round;stroke-miterlimit:2;"><path d="M80.199,0l-0.571,0c-14.433,0 -25.997,4.278 -34.682,12.833c-8.591,8.47 -12.928,20.355 -13.012,35.655l-0,27.759l-31.934,0l0,37.059l31.934,0l-0,95.027l38.309,0l-0,-95.027l31.803,0l4.879,-37.059l-36.682,0l-0,-23.663c-0,-6.009 1.252,-10.517 3.758,-13.521c2.458,-2.959 7.189,-4.46 14.19,-4.506l0.328,-0.001l19.659,-0l0,-33.053c-6.553,-0.971 -15.696,-1.471 -27.418,-1.501l-0.561,-0.002Z" style="fill:#fff;fill-rule:nonzero;"/></svg>