<?xml version="1.0" encoding="UTF-8" standalone="no"?><!DOCTYPE svg PUBLIC "-//W3C//DTD SVG 1.1//EN" "http://www.w3.org/Graphics/SVG/1.1/DTD/svg11.dtd"><svg width="100%" height="100%" viewBox="0 0 211 209" version="1.1" xmlns="http://www.w3.org/2000/svg" xmlns:xlink="http://www.w3.org/1999/xlink" xml:space="preserve" xmlns:serif="http://www.serif.com/" style="fill-rule:evenodd;clip-rule:evenodd;stroke-linejoin:round;stroke-miterlimit:2;"><path d="M92.621,0.01c-51.002,-0 -92.621,40.762 -92.621,91.361c-0,50.598 41.609,91.36 92.621,91.36c21.996,0 42.239,-7.581 58.16,-20.263l42.86,42.86c0.907,0.94 1.994,1.69 3.196,2.206c1.201,0.516 2.493,0.788 3.8,0.799c1.308,0.012 2.604,-0.237 3.814,-0.733c1.21,-0.495 2.309,-1.225 3.234,-2.15c0.924,-0.925 1.655,-2.024 2.15,-3.234c0.495,-1.21 0.745,-2.506 0.734,-3.814c-0.012,-1.307 -0.284,-2.599 -0.8,-3.8c-0.516,-1.201 -1.266,-2.288 -2.206,-3.196l-42.771,-42.771c13.242,-16.145 20.47,-36.384 20.45,-57.264c-0,-50.609 -41.609,-91.371 -92.621,-91.371l-0,0.01Zm-72.929,91.361c-0,-39.443 32.511,-71.679 72.929,-71.679c40.418,0 72.929,32.236 72.929,71.679c0,39.443 -32.511,71.669 -72.929,71.669c-40.418,-0 -72.929,-32.216 -72.929,-71.669Z" style="fill:#fff;fill-rule:nonzero;"/></svg>