<?xml version="1.0" encoding="UTF-8" standalone="no"?><!DOCTYPE svg PUBLIC "-//W3C//DTD SVG 1.1//EN" "http://www.w3.org/Graphics/SVG/1.1/DTD/svg11.dtd"><svg width="100%" height="100%" viewBox="0 0 211 209" version="1.1" xmlns="http://www.w3.org/2000/svg" xmlns:xlink="http://www.w3.org/1999/xlink" xml:space="preserve" xmlns:serif="http://www.serif.com/" style="fill-rule:evenodd;clip-rule:evenodd;stroke-linejoin:round;stroke-miterlimit:2;"><g><path d="M140.271,91.477c-0,25.856 -21.292,46.823 -47.542,46.823c-26.26,-0 -47.552,-20.967 -47.552,-46.823c-0,-25.856 21.292,-46.822 47.552,-46.822c26.26,-0 47.542,20.966 47.542,46.822Z" style="fill:#fff;fill-rule:nonzero;"/><path d="M-0,91.477c-0,-50.667 41.657,-91.477 92.729,-91.477c51.061,0 92.728,40.81 92.728,91.477c0.02,20.904 -7.216,41.168 -20.473,57.331l42.82,42.821c1.796,1.859 2.79,4.349 2.767,6.933c-0.023,2.585 -1.06,5.057 -2.887,6.885c-1.828,1.827 -4.3,2.863 -6.885,2.886c-2.584,0.023 -5.074,-0.971 -6.933,-2.766l-42.91,-42.909c-16.544,13.172 -37.078,20.327 -58.227,20.286c-51.062,0 -92.729,-40.8 -92.729,-91.467Zm92.729,-71.762c-40.465,0 -73.014,32.273 -73.014,71.762c-0,39.489 32.549,71.752 73.014,71.752c40.464,0 73.014,-32.263 73.014,-71.762c-0,-39.479 -32.55,-71.752 -73.014,-71.752Z" style="fill:#fff;fill-rule:nonzero;"/></g></svg>