<?xml version="1.0" encoding="UTF-8" standalone="no"?><!DOCTYPE svg PUBLIC "-//W3C//DTD SVG 1.1//EN" "http://www.w3.org/Graphics/SVG/1.1/DTD/svg11.dtd"><svg width="100%" height="100%" viewBox="0 0 871 871" version="1.1" xmlns="http://www.w3.org/2000/svg" xmlns:xlink="http://www.w3.org/1999/xlink" xml:space="preserve" xmlns:serif="http://www.serif.com/" style="fill-rule:evenodd;clip-rule:evenodd;stroke-linejoin:round;stroke-miterlimit:2;"><path d="M438.163,868.054l-8.25,0c-114.755,-1.087 -224.401,-47.579 -304.963,-129.3c-80.571,-81.721 -125.492,-192.021 -124.946,-306.775c0.542,-114.762 46.513,-224.625 127.85,-305.579c81.342,-80.954 191.425,-126.4 306.184,-126.4c114.754,0 224.841,45.446 306.179,126.4c81.341,80.954 127.312,190.817 127.854,305.579c0.541,114.754 -44.384,225.054 -124.946,306.775c-80.563,81.721 -190.217,128.213 -304.963,129.3Zm-22.245,-770.525c-12.263,14.813 -25.121,38.684 -36.73,71.779c-20.02,57.238 -33.966,135.421 -37.274,224.017l192.441,0c-3.254,-88.596 -17.254,-166.779 -37.271,-224.017c-11.558,-33.095 -24.416,-56.966 -36.679,-71.779c-10.525,-12.75 -17.687,-15.462 -20.887,-16.058l-2.388,-0c-2.983,0.379 -10.308,2.821 -21.212,16.058Zm-155.442,295.796c3.367,-96.083 18.45,-183.704 41.942,-250.871c5.371,-15.408 11.283,-30.058 17.85,-43.729c-64.059,21 -120.763,59.908 -163.413,112.113c-42.65,52.2 -69.462,115.529 -77.262,182.487l180.883,0Zm-180.883,81.383c7.8,66.963 34.612,130.288 77.262,182.492c42.65,52.204 99.354,91.108 163.413,112.113c-6.763,-14.238 -12.742,-28.838 -17.904,-43.73c-23.492,-67.166 -38.521,-154.787 -41.888,-250.875l-180.883,0Zm262.321,0c3.308,88.6 17.254,166.78 37.274,224.017c11.609,33.096 24.467,56.971 36.73,71.779c10.958,13.238 18.229,15.734 21.212,16.117l2.388,-0.054c3.254,-0.546 10.308,-3.313 20.887,-16.063c12.263,-14.808 25.121,-38.683 36.679,-71.779c20.071,-57.237 33.963,-135.417 37.271,-224.017l-192.442,0Zm273.88,0c-3.313,96.088 -18.392,183.709 -41.888,250.875c-4.446,12.75 -9.275,24.959 -14.537,36.567c59.366,-23.467 111.258,-62.583 150.15,-113.204c38.896,-50.613 63.337,-110.829 70.721,-174.238l-164.446,0Zm164.446,-81.383c-7.392,-63.4 -31.834,-123.617 -70.73,-174.233c-38.891,-50.613 -90.783,-89.738 -150.141,-113.204c5.262,11.608 10.091,23.87 14.537,36.566c23.496,67.167 38.575,154.788 41.888,250.871l164.446,0Z" style="fill:#fff;fill-rule:nonzero;"/></svg>