<?xml version="1.0" encoding="UTF-8" standalone="no"?><!DOCTYPE svg PUBLIC "-//W3C//DTD SVG 1.1//EN" "http://www.w3.org/Graphics/SVG/1.1/DTD/svg11.dtd"><svg width="100%" height="100%" viewBox="0 0 209 209" version="1.1" xmlns="http://www.w3.org/2000/svg" xmlns:xlink="http://www.w3.org/1999/xlink" xml:space="preserve" xmlns:serif="http://www.serif.com/" style="fill-rule:evenodd;clip-rule:evenodd;stroke-linejoin:round;stroke-miterlimit:2;"><rect x="-1709.93" y="-3052.61" width="4500" height="8000" style="fill:#151515;"/><path d="M105.159,208.333l-1.98,0c-27.541,-0.261 -53.856,-11.419 -73.191,-31.032c-19.337,-19.613 -30.118,-46.085 -29.987,-73.626c0.13,-27.543 11.163,-53.91 30.684,-73.339c19.522,-19.429 45.942,-30.336 73.484,-30.336c27.541,0 53.962,10.907 73.483,30.336c19.522,19.429 30.555,45.796 30.685,73.339c0.13,27.541 -10.652,54.013 -29.987,73.626c-19.335,19.613 -45.652,30.771 -73.191,31.032Zm-5.339,-184.926c-2.943,3.555 -6.029,9.284 -8.815,17.227c-4.805,13.737 -8.152,32.501 -8.946,53.764l46.186,0c-0.781,-21.263 -4.141,-40.027 -8.945,-53.764c-2.774,-7.943 -5.86,-13.672 -8.803,-17.227c-2.526,-3.06 -4.245,-3.711 -5.013,-3.854l-0.573,0c-0.716,0.091 -2.474,0.677 -5.091,3.854Zm-37.306,70.991c0.808,-23.06 4.428,-44.089 10.066,-60.209c1.289,-3.698 2.708,-7.214 4.284,-10.495c-15.374,5.04 -28.983,14.378 -39.219,26.907c-10.236,12.528 -16.671,27.727 -18.543,43.797l43.412,0Zm-43.412,19.532c1.872,16.071 8.307,31.269 18.543,43.798c10.236,12.529 23.845,21.866 39.219,26.907c-1.623,-3.417 -3.058,-6.921 -4.297,-10.495c-5.638,-16.12 -9.245,-37.149 -10.053,-60.21l-43.412,0Zm62.957,0c0.794,21.264 4.141,40.027 8.946,53.764c2.786,7.943 5.872,13.673 8.815,17.227c2.63,3.177 4.375,3.776 5.091,3.868l0.573,-0.013c0.781,-0.131 2.474,-0.795 5.013,-3.855c2.943,-3.554 6.029,-9.284 8.803,-17.227c4.817,-13.737 8.151,-32.5 8.945,-53.764l-46.186,0Zm65.731,0c-0.795,23.061 -4.414,44.09 -10.053,60.21c-1.067,3.06 -2.226,5.99 -3.489,8.776c14.248,-5.632 26.702,-15.02 36.036,-27.169c9.335,-12.147 15.201,-26.599 16.973,-41.817l-39.467,0Zm39.467,-19.532c-1.774,-15.216 -7.64,-29.668 -16.975,-41.816c-9.334,-12.147 -21.788,-21.537 -36.034,-27.169c1.263,2.786 2.422,5.729 3.489,8.776c5.639,16.12 9.258,37.149 10.053,60.209l39.467,0Z" style="fill:#fff;fill-rule:nonzero;"/></svg>