<?xml version="1.0" encoding="UTF-8" standalone="no"?><!DOCTYPE svg PUBLIC "-//W3C//DTD SVG 1.1//EN" "http://www.w3.org/Graphics/SVG/1.1/DTD/svg11.dtd"><svg width="100%" height="100%" viewBox="0 0 204 189" version="1.1" xmlns="http://www.w3.org/2000/svg" xmlns:xlink="http://www.w3.org/1999/xlink" xml:space="preserve" xmlns:serif="http://www.serif.com/" style="fill-rule:evenodd;clip-rule:evenodd;stroke-linejoin:round;stroke-miterlimit:2;"><g><path d="M202.292,45.277c-2.25,-11.189 -7.858,-21.429 -16.073,-29.351c-8.217,-7.923 -18.651,-13.154 -29.917,-14.998c-8.463,-1.349 -17.123,-0.722 -25.305,1.83c-8.181,2.552 -15.662,6.962 -21.856,12.884c-2.016,1.875 -4.669,2.918 -7.422,2.918c-2.754,0 -5.405,-1.043 -7.422,-2.918c-10.285,-9.948 -24.009,-15.551 -38.318,-15.641c-14.309,-0.092 -28.102,5.335 -38.514,15.151c-10.411,9.816 -16.638,23.268 -17.388,37.556c-0.75,14.29 4.034,28.319 13.361,39.172l77.031,91.796c1.378,1.641 3.101,2.959 5.042,3.863c1.942,0.905 4.059,1.374 6.203,1.374c2.142,-0 4.258,-0.469 6.201,-1.374c1.941,-0.904 3.663,-2.222 5.042,-3.863l77.031,-91.796c5.446,-6.323 9.385,-13.802 11.517,-21.872c2.132,-8.068 2.401,-16.516 0.787,-24.705l-0,-0.026Z" style="fill:#fff;fill-rule:nonzero;"/></g></svg>