<?xml version="1.0" encoding="UTF-8" standalone="no"?><!DOCTYPE svg PUBLIC "-//W3C//DTD SVG 1.1//EN" "http://www.w3.org/Graphics/SVG/1.1/DTD/svg11.dtd"><svg width="100%" height="100%" viewBox="0 0 209 209" version="1.1" xmlns="http://www.w3.org/2000/svg" xmlns:xlink="http://www.w3.org/1999/xlink" xml:space="preserve" xmlns:serif="http://www.serif.com/" style="fill-rule:evenodd;clip-rule:evenodd;stroke-linejoin:round;stroke-miterlimit:2;"><g><path d="M208.333,8.333l0,191.667c0,4.599 -3.734,8.333 -8.333,8.333l-191.667,0c-4.599,0 -8.333,-3.734 -8.333,-8.333l-0,-191.667c-0,-4.599 3.734,-8.333 8.333,-8.333l191.667,0c4.599,0 8.333,3.734 8.333,8.333Z" style="fill:url(#_Linear1);"/><g><path d="M154.453,79.557c-1.125,-5.594 -3.929,-10.714 -8.036,-14.675c-4.109,-3.962 -9.326,-6.577 -14.959,-7.499c-4.231,-0.675 -8.561,-0.361 -12.652,0.915c-4.091,1.276 -7.831,3.481 -10.928,6.442c-1.008,0.937 -2.335,1.459 -3.711,1.459c-1.377,-0 -2.703,-0.522 -3.711,-1.459c-5.143,-4.974 -12.005,-7.776 -19.159,-7.821c-7.155,-0.046 -14.051,2.668 -19.257,7.576c-5.206,4.908 -8.32,11.633 -8.695,18.778c-0.375,7.145 2.018,14.159 6.681,19.586l38.516,45.898c0.689,0.82 1.55,1.479 2.52,1.931c0.972,0.453 2.03,0.687 3.102,0.687c1.071,0 2.129,-0.234 3.101,-0.687c0.97,-0.452 1.831,-1.111 2.521,-1.931l38.515,-45.898c2.723,-3.162 4.693,-6.902 5.759,-10.936c1.066,-4.034 1.2,-8.258 0.393,-12.353l0,-0.013Z" style="fill:#fff;fill-rule:nonzero;"/></g></g><defs><linearGradient id="_Linear1" x1="0" y1="0" x2="1" y2="0" gradientUnits="userSpaceOnUse" gradientTransform="matrix(208.333,208.333,-208.333,208.333,-1.13687e-13,1.13687e-13)"><stop offset="0" style="stop-color:#450af5;stop-opacity:1"/><stop offset="1" style="stop-color:#c4efd9;stop-opacity:1"/></linearGradient></defs></svg>