<?xml version="1.0" encoding="UTF-8" standalone="no"?><!DOCTYPE svg PUBLIC "-//W3C//DTD SVG 1.1//EN" "http://www.w3.org/Graphics/SVG/1.1/DTD/svg11.dtd"><svg width="100%" height="100%" viewBox="0 0 200 209" version="1.1" xmlns="http://www.w3.org/2000/svg" xmlns:xlink="http://www.w3.org/1999/xlink" xml:space="preserve" xmlns:serif="http://www.serif.com/" style="fill-rule:evenodd;clip-rule:evenodd;stroke-linejoin:round;stroke-miterlimit:2;"><path d="M114.705,4.009c-4.55,-2.626 -9.709,-4.009 -14.962,-4.009c-5.252,-0 -10.412,1.383 -14.961,4.009l-74.808,43.189c-3.032,1.751 -5.55,4.269 -7.301,7.301c-1.751,3.033 -2.673,6.473 -2.673,9.975l0,133.885c0,2.645 1.051,5.182 2.921,7.053c1.871,1.87 4.408,2.921 7.053,2.921l59.846,0c2.645,0 5.183,-1.051 7.053,-2.921c1.87,-1.871 2.922,-4.408 2.922,-7.053l-0,-59.846l39.897,0l-0,59.846c-0,2.645 1.051,5.182 2.921,7.053c1.871,1.87 4.408,2.921 7.053,2.921l59.846,0c2.645,0 5.183,-1.051 7.053,-2.921c1.87,-1.871 2.922,-4.408 2.922,-7.053l-0,-133.885c-0,-3.502 -0.922,-6.942 -2.674,-9.975c-1.75,-3.032 -4.269,-5.55 -7.301,-7.301l-74.807,-43.189Z" style="fill:#fff;fill-rule:nonzero;"/></svg>