<svg width="41" height="41" viewBox="0 0 41 41" fill="none" xmlns="http://www.w3.org/2000/svg">
<rect x="0.323242" y="0.140137" width="40" height="40" rx="20" fill="#292929"/>
<path d="M20.3232 13.5802C22.4592 13.5802 22.7122 13.5892 23.5562 13.6272C24.3362 13.6632 24.7592 13.7932 25.0412 13.9032C25.3892 14.0312 25.7042 14.2352 25.9622 14.5012C26.2282 14.7592 26.4322 15.0742 26.5612 15.4222C26.6712 15.7042 26.8012 16.1282 26.8362 16.9072C26.8752 17.7512 26.8832 18.0042 26.8832 20.1402C26.8832 22.2762 26.8752 22.5292 26.8362 23.3722C26.8012 24.1522 26.6702 24.5762 26.5612 24.8582C26.4279 25.203 26.224 25.5161 25.9626 25.7775C25.7012 26.0389 25.388 26.2428 25.0432 26.3762C24.7612 26.4862 24.3372 26.6162 23.5572 26.6512C22.7142 26.6902 22.4602 26.6982 20.3242 26.6982C18.1882 26.6982 17.9342 26.6902 17.0922 26.6512C16.3122 26.6162 15.8882 26.4862 15.6062 26.3762C15.2583 26.248 14.9435 26.0433 14.6852 25.7772C14.4193 25.5192 14.2146 25.2048 14.0862 24.8572C13.9762 24.5752 13.8462 24.1512 13.8112 23.3712C13.7732 22.5272 13.7642 22.2752 13.7642 20.1392C13.7642 18.0032 13.7732 17.7492 13.8112 16.9062C13.8472 16.1262 13.9772 15.7032 14.0862 15.4212C14.2152 15.0732 14.4192 14.7582 14.6852 14.5002C14.9435 14.2346 15.2578 14.0299 15.6052 13.9012C15.8882 13.7912 16.3122 13.6612 17.0922 13.6262C17.9352 13.5882 18.1882 13.5792 20.3242 13.5792L20.3232 13.5802ZM20.3242 12.1382C18.1522 12.1382 17.8792 12.1482 17.0262 12.1862C16.1722 12.2262 15.5912 12.3622 15.0832 12.5592C14.5495 12.7603 14.066 13.0753 13.6662 13.4822C13.2592 13.8822 12.9442 14.3652 12.7432 14.8992C12.5452 15.4072 12.4102 15.9892 12.3712 16.8412C12.3332 17.6922 12.3232 17.9662 12.3232 20.1402C12.3232 22.3122 12.3332 22.5852 12.3712 23.4382C12.4112 24.2912 12.5452 24.8712 12.7432 25.3792C12.9432 25.9132 13.2592 26.3962 13.6662 26.7962C14.0662 27.2032 14.5492 27.5182 15.0832 27.7192C15.5912 27.9172 16.1732 28.0522 17.0252 28.0912C17.8772 28.1302 18.1512 28.1392 20.3242 28.1392C22.4962 28.1392 22.7692 28.1292 23.6222 28.0912C24.4752 28.0512 25.0552 27.9172 25.5622 27.7192C26.0939 27.5139 26.5767 27.1996 26.9797 26.7966C27.3827 26.3936 27.6969 25.9108 27.9022 25.3792C28.1012 24.8712 28.2362 24.2892 28.2752 23.4372C28.3142 22.5862 28.3232 22.3122 28.3232 20.1392C28.3232 17.9662 28.3132 17.6942 28.2752 16.8412C28.2352 15.9882 28.1012 15.4082 27.9032 14.9012C27.7023 14.367 27.3874 13.8831 26.9802 13.4832C26.5805 13.0763 26.097 12.7613 25.5632 12.5602C25.0552 12.3632 24.4732 12.2272 23.6212 12.1892C22.7702 12.1482 22.4962 12.1392 20.3232 12.1392L20.3242 12.1382Z" fill="white"/>
<path d="M20.3232 16.0322C19.2337 16.0322 18.1888 16.465 17.4184 17.2354C16.648 18.0058 16.2152 19.0507 16.2152 20.1402C16.2152 21.2297 16.648 22.2746 17.4184 23.045C18.1888 23.8154 19.2337 24.2482 20.3232 24.2482C21.4127 24.2482 22.4576 23.8154 23.228 23.045C23.9984 22.2746 24.4312 21.2297 24.4312 20.1402C24.4312 19.0507 23.9984 18.0058 23.228 17.2354C22.4576 16.465 21.4127 16.0322 20.3232 16.0322ZM20.3232 22.8072C19.9686 22.814 19.6161 22.7501 19.2865 22.6192C18.9568 22.4882 18.6566 22.2928 18.4034 22.0444C18.1501 21.796 17.949 21.4996 17.8117 21.1726C17.6743 20.8455 17.6036 20.4944 17.6036 20.1397C17.6036 19.785 17.6743 19.4338 17.8117 19.1068C17.949 18.7797 18.1501 18.4833 18.4034 18.2349C18.6566 17.9866 18.9568 17.7912 19.2865 17.6602C19.6161 17.5292 19.9686 17.4653 20.3232 17.4722C21.0218 17.4857 21.6871 17.7727 22.1763 18.2715C22.6655 18.7702 22.9396 19.441 22.9396 20.1397C22.9396 20.8383 22.6655 21.5091 22.1763 22.0079C21.6871 22.5067 21.0218 22.7937 20.3232 22.8072ZM24.5932 16.8292C24.8478 16.8292 25.092 16.728 25.2721 16.548C25.4521 16.368 25.5532 16.1238 25.5532 15.8692C25.5532 15.6146 25.4521 15.3704 25.2721 15.1904C25.092 15.0103 24.8478 14.9092 24.5932 14.9092C24.3386 14.9092 24.0945 15.0103 23.9144 15.1904C23.7344 15.3704 23.6332 15.6146 23.6332 15.8692C23.6332 16.1238 23.7344 16.368 23.9144 16.548C24.0945 16.728 24.3386 16.8292 24.5932 16.8292Z" fill="white"/>
</svg>
