<?xml version="1.0" encoding="UTF-8" standalone="no"?><!DOCTYPE svg PUBLIC "-//W3C//DTD SVG 1.1//EN" "http://www.w3.org/Graphics/SVG/1.1/DTD/svg11.dtd"><svg width="100%" height="100%" viewBox="0 0 209 209" version="1.1" xmlns="http://www.w3.org/2000/svg" xmlns:xlink="http://www.w3.org/1999/xlink" xml:space="preserve" xmlns:serif="http://www.serif.com/" style="fill-rule:evenodd;clip-rule:evenodd;stroke-linejoin:round;stroke-miterlimit:2;"><path d="M104.253,0c-28.311,0 -31.864,0.124 -42.984,0.629c-11.097,0.508 -18.672,2.264 -25.3,4.84c-6.857,2.66 -12.673,6.219 -18.467,12.011c-5.798,5.79 -9.36,11.602 -12.031,18.451c-2.585,6.625 -4.344,14.197 -4.843,25.282c-0.498,11.111 -0.628,14.664 -0.628,42.954c0,28.29 0.126,31.829 0.63,42.94c0.51,11.09 2.267,18.659 4.843,25.282c2.665,6.852 6.226,12.663 12.023,18.453c5.792,5.794 11.608,9.362 18.459,12.023c6.633,2.576 14.21,4.331 25.306,4.839c11.119,0.506 14.67,0.629 42.979,0.629c28.313,0 31.855,-0.123 42.974,-0.629c11.098,-0.508 18.682,-2.263 25.314,-4.84c6.854,-2.66 12.662,-6.228 18.454,-12.022c5.798,-5.79 9.36,-11.601 12.031,-18.45c2.563,-6.626 4.322,-14.198 4.843,-25.283c0.5,-11.111 0.63,-14.652 0.63,-42.942c-0,-28.29 -0.13,-31.841 -0.63,-42.952c-0.521,-11.089 -2.28,-18.659 -4.843,-25.282c-2.671,-6.851 -6.233,-12.663 -12.031,-18.453c-5.799,-5.794 -11.598,-9.353 -18.46,-12.011c-6.646,-2.576 -14.225,-4.332 -25.323,-4.84c-11.119,-0.505 -14.659,-0.629 -42.979,-0.629l0.033,0Zm-9.352,18.772c2.776,-0.005 5.873,-0 9.352,-0c27.833,-0 31.132,0.1 42.123,0.599c10.164,0.464 15.68,2.161 19.355,3.587c4.864,1.888 8.333,4.145 11.979,7.791c3.649,3.646 5.907,7.118 7.801,11.979c1.427,3.667 3.127,9.18 3.59,19.336c0.499,10.981 0.608,14.279 0.608,42.079c-0,27.799 -0.109,31.098 -0.608,42.079c-0.465,10.156 -2.163,15.668 -3.59,19.336c-1.889,4.861 -4.152,8.322 -7.801,11.966c-3.648,3.646 -7.112,5.903 -11.979,7.791c-3.671,1.432 -9.191,3.125 -19.355,3.589c-10.989,0.499 -14.29,0.608 -42.123,0.608c-27.836,-0 -31.134,-0.109 -42.124,-0.608c-10.163,-0.469 -15.68,-2.166 -19.356,-3.591c-4.865,-1.888 -8.34,-4.145 -11.988,-7.791c-3.649,-3.646 -5.908,-7.11 -7.801,-11.973c-1.427,-3.667 -3.128,-9.18 -3.59,-19.336c-0.5,-10.981 -0.6,-14.279 -0.6,-42.096c0,-27.817 0.1,-31.098 0.6,-42.079c0.465,-10.157 2.163,-15.669 3.59,-19.34c1.889,-4.862 4.152,-8.334 7.801,-11.98c3.648,-3.646 7.123,-5.902 11.988,-7.795c3.674,-1.432 9.193,-3.125 19.356,-3.591c9.617,-0.434 13.344,-0.565 32.772,-0.586l0,0.026Zm64.996,17.296c-6.906,-0 -12.509,5.592 -12.509,12.495c-0,6.901 5.603,12.5 12.509,12.5c6.906,0 12.51,-5.599 12.51,-12.5c-0,-6.901 -5.604,-12.5 -12.51,-12.5l0,0.005Zm-55.644,14.605c-29.564,-0 -53.534,23.952 -53.534,53.494c0,29.542 23.97,53.483 53.534,53.483c29.564,-0 53.525,-23.941 53.525,-53.483c-0,-29.542 -23.963,-53.494 -53.527,-53.494l0.002,-0Zm-0,18.771c19.189,0 34.748,15.545 34.748,34.723c-0,19.175 -15.559,34.722 -34.748,34.722c-19.192,-0 -34.748,-15.547 -34.748,-34.722c-0,-19.178 15.556,-34.723 34.748,-34.723Z" style="fill:#fff;fill-rule:nonzero;"/></svg>