<?xml version="1.0" encoding="UTF-8" standalone="no"?><!DOCTYPE svg PUBLIC "-//W3C//DTD SVG 1.1//EN" "http://www.w3.org/Graphics/SVG/1.1/DTD/svg11.dtd"><svg width="100%" height="100%" viewBox="0 0 338 209" version="1.1" xmlns="http://www.w3.org/2000/svg" xmlns:xlink="http://www.w3.org/1999/xlink" xml:space="preserve" xmlns:serif="http://www.serif.com/" style="fill-rule:evenodd;clip-rule:evenodd;stroke-linejoin:round;stroke-miterlimit:2;"><g><path d="M337.179,104.265c0,57.575 -46.662,104.068 -104.253,104.068c-57.57,0 -104.436,-46.493 -104.436,-104.068c-0,-57.573 46.662,-104.265 104.233,-104.265c57.794,0 104.456,46.692 104.456,104.265Z" style="fill:#f79f1a;fill-rule:nonzero;"/><path d="M208.506,104.265c0,57.575 -46.662,104.068 -104.253,104.068c-57.57,0 -104.253,-46.691 -104.253,-104.068c0,-57.375 46.683,-104.265 104.253,-104.265c57.591,0 104.253,46.692 104.253,104.265Z" style="fill:#ea001b;fill-rule:nonzero;"/><path d="M168.396,22.357c-24.42,18.994 -39.906,48.671 -39.906,81.908c-0,33.24 15.69,62.917 39.906,81.911c24.42,-18.994 39.907,-48.671 39.907,-81.911c-0,-33.237 -15.487,-62.914 -39.907,-81.908Z" style="fill:#ff5f01;fill-rule:nonzero;"/></g></svg>