<?xml version="1.0" encoding="UTF-8" standalone="no"?><!DOCTYPE svg PUBLIC "-//W3C//DTD SVG 1.1//EN" "http://www.w3.org/Graphics/SVG/1.1/DTD/svg11.dtd"><svg width="100%" height="100%" viewBox="0 0 209 209" version="1.1" xmlns="http://www.w3.org/2000/svg" xmlns:xlink="http://www.w3.org/1999/xlink" xml:space="preserve" xmlns:serif="http://www.serif.com/" style="fill-rule:evenodd;clip-rule:evenodd;stroke-linejoin:round;stroke-miterlimit:2;"><path d="M208.333,104.167c0,2.858 -1.136,5.599 -3.157,7.618c-2.019,2.022 -4.76,3.158 -7.619,3.158l-82.614,-0l-0,82.614c-0,2.859 -1.136,5.6 -3.158,7.619c-2.019,2.021 -4.76,3.157 -7.618,3.157c-2.859,0 -5.6,-1.136 -7.619,-3.157c-2.021,-2.019 -3.157,-4.76 -3.157,-7.619l-0,-82.614l-82.615,-0c-2.858,-0 -5.6,-1.136 -7.619,-3.158c-2.021,-2.019 -3.157,-4.76 -3.157,-7.618c0,-2.859 1.136,-5.6 3.157,-7.619c2.019,-2.021 4.761,-3.157 7.619,-3.157l82.615,-0l-0,-82.615c-0,-2.858 1.136,-5.6 3.157,-7.619c2.019,-2.021 4.76,-3.157 7.619,-3.157c2.858,-0 5.599,1.136 7.618,3.157c2.022,2.019 3.158,4.761 3.158,7.619l-0,82.615l82.614,-0c2.859,-0 5.6,1.136 7.619,3.157c2.021,2.019 3.157,4.76 3.157,7.619Z" style="fill:#fff;fill-rule:nonzero;"/></svg>