<svg width="16" height="17" viewBox="0 0 16 17" fill="none" xmlns="http://www.w3.org/2000/svg">
<g clip-path="url(#clip0_0_1293)">
<path d="M15 15.2031H1V13.7031H15V15.2031ZM15 10.7031H1V9.20312H15V10.7031ZM1 3.70312C1 3.04008 1.26339 2.4042 1.73223 1.93536C2.20107 1.46652 2.83696 1.20313 3.5 1.20312H12.5C13.163 1.20313 13.7989 1.46652 14.2678 1.93536C14.7366 2.4042 15 3.04008 15 3.70312C15 4.36617 14.7366 5.00205 14.2678 5.47089C13.7989 5.93973 13.163 6.20312 12.5 6.20312H3.5C2.83696 6.20312 2.20107 5.93973 1.73223 5.47089C1.26339 5.00205 1 4.36617 1 3.70312ZM3.5 2.70312C3.23478 2.70312 2.98043 2.80848 2.79289 2.99602C2.60536 3.18355 2.5 3.43791 2.5 3.70312C2.5 3.96834 2.60536 4.2227 2.79289 4.41023C2.98043 4.59777 3.23478 4.70312 3.5 4.70312H12.5C12.7652 4.70312 13.0196 4.59777 13.2071 4.41023C13.3946 4.2227 13.5 3.96834 13.5 3.70312C13.5 3.43791 13.3946 3.18355 13.2071 2.99602C13.0196 2.80848 12.7652 2.70312 12.5 2.70312H3.5Z" fill="#A7A7A7"/>
</g>
<defs>
<clipPath id="clip0_0_1293">
<rect width="16" height="16" fill="white" transform="translate(0 0.203125)"/>
</clipPath>
</defs>
</svg>
