<?xml version="1.0" encoding="UTF-8" standalone="no"?><!DOCTYPE svg PUBLIC "-//W3C//DTD SVG 1.1//EN" "http://www.w3.org/Graphics/SVG/1.1/DTD/svg11.dtd"><svg width="100%" height="100%" viewBox="0 0 456 127" version="1.1" xmlns="http://www.w3.org/2000/svg" xmlns:xlink="http://www.w3.org/1999/xlink" xml:space="preserve" xmlns:serif="http://www.serif.com/" style="fill-rule:evenodd;clip-rule:evenodd;stroke-linejoin:round;stroke-miterlimit:2;"><path d="M40.267,88.931c-10.572,-0 -20.522,-3.732 -29.228,-12.438c-0.623,-0 -0.623,0.622 -0.623,0.622l-9.95,11.816c-0.621,0.621 -0.621,1.243 0,1.865c11.195,9.951 24.876,14.925 39.801,14.925c21.145,0 34.204,-11.816 34.204,-29.228c0,-14.926 -9.328,-23.01 -31.094,-28.608c-18.035,-4.353 -21.145,-7.462 -21.145,-13.681c0,-6.219 6.219,-9.95 14.304,-9.95c8.085,-0 15.547,3.109 24.254,9.328c-0,0 0.622,0.622 1.243,0.622c0.622,0 0.622,-0.622 0.622,-0.622l8.707,-12.438c0.622,-0.622 0.622,-0.622 -0,-1.244c-9.95,-8.084 -21.766,-12.437 -34.826,-12.437c-19.278,-0 -32.96,11.816 -32.96,28.606c-0,18.035 12.438,23.632 32.338,28.608c17.413,3.731 19.901,7.462 19.901,13.681c-0,6.841 -6.219,10.573 -15.548,10.573Zm59.08,-47.886l-0,-8.085c-0,-0.622 -0.622,-1.244 -1.244,-1.244l-16.169,0c-0.622,0 -1.244,0.622 -1.244,1.244l0,91.418c0,0.622 0.622,1.244 1.244,1.244l16.169,0c0.622,0 1.244,-0.622 1.244,-1.244l-0,-28.607c6.219,6.841 13.06,9.95 22.388,9.95c16.791,0 33.582,-13.059 33.582,-37.935c0,-24.875 -16.791,-37.313 -33.582,-37.313c-9.328,-0 -16.169,3.109 -22.388,10.572Zm18.656,48.507c-11.193,0 -19.278,-9.328 -19.278,-21.766c0,-12.438 8.085,-21.144 19.278,-21.144c11.195,-0 18.658,8.706 18.658,21.144c-0,12.438 -7.463,21.766 -18.658,21.766Zm42.289,-21.144c0,21.144 16.791,37.313 38.558,37.313c21.766,0 38.557,-16.79 38.557,-37.935c-0,-21.144 -16.17,-37.313 -37.936,-37.313c-21.766,-0 -39.179,16.791 -39.179,37.935Zm18.657,-0.622c-0,-12.438 8.085,-21.144 19.901,-21.144c11.816,-0 20.522,9.328 20.522,21.766c-0,12.438 -8.085,21.144 -19.901,21.144c-11.816,0 -20.522,-9.328 -20.522,-21.766Zm87.065,-36.07l-0,-18.034c-0,-0.622 -0,-1.244 -0.622,-1.244l-16.169,-0c-0.622,-0 -1.244,0.622 -1.244,1.244l-0,18.034l-8.085,0c-0.622,0 -1.243,0.622 -1.243,1.244l-0,13.682c-0,0.622 0.621,1.243 1.243,1.243l8.085,0l-0,36.07c-0,14.304 6.841,21.766 21.144,21.766c5.597,0 11.194,-1.243 15.548,-3.731c0.621,0 0.621,-0.622 0.621,-1.243l0,-13.061c0,-0.621 0,-1.243 -0.621,-1.243l-1.245,-0c-3.109,1.866 -6.84,2.488 -9.95,2.488c-4.975,-0 -7.462,-2.488 -7.462,-7.463l-0,-33.583l18.657,0c0.621,0 1.243,-0.621 1.243,-1.243l0,-13.682c0,-0.622 -0.622,-1.244 -1.243,-1.244l-18.657,0Zm80.225,-1.865c-0,-6.841 2.487,-9.329 8.086,-9.329c3.106,0 6.217,0 9.324,1.244l0.624,0c0,0 0.619,-0.622 0.619,-1.244l0,-13.059c0,-0.622 0,-1.244 -0.619,-1.244c-3.112,-1.244 -7.461,-1.866 -13.685,-1.866c-14.922,0 -22.384,8.707 -22.384,24.254l0,3.109l-8.085,0c-0.625,0 -1.244,0.622 -1.244,1.244l-0,13.682c-0,0.622 0.619,1.243 1.244,1.243l8.085,0l0,55.349c0,0.622 0.619,1.244 1.244,1.244l16.166,-0c0.625,-0 0.625,-0.622 0.625,-1.244l-0,-55.349l15.547,0l23.009,55.349c-2.488,5.597 -4.975,6.841 -8.705,6.841c-3.112,-0 -6.218,-0.622 -9.33,-2.488l-0.624,0l-0.619,0.622l-5.599,11.816c-0,0.622 -0,1.865 0.624,1.865c5.594,3.11 10.573,4.354 16.791,4.354c11.817,-0 18.654,-5.597 24.252,-20.523l27.989,-72.139l-0,-1.244c-0,-0.622 -0.625,-0.622 -1.249,-0.622l-16.791,0c-0.619,0 -0.619,0.622 -0.619,1.244l-17.416,48.508l-18.653,-48.508c0,-0.622 -0.624,-1.244 -1.244,-1.244l-27.363,0l-0,-1.865Zm-51.616,1.865c-0.625,0 -1.244,0.622 -1.244,1.244l0,70.274c0,0.622 0.619,1.244 1.244,1.244l16.166,-0c0.625,-0 0.625,-0.622 0.625,-1.244l-0,-70.274c-0,-0.622 -0,-1.244 -0.625,-1.244l-16.166,0Zm-3.734,-20.522c0,6.219 5.596,11.816 11.814,11.816c6.223,-0 11.198,-5.597 11.198,-11.816c-0,-6.219 -4.975,-11.194 -11.198,-11.194c-6.218,-0 -11.814,4.975 -11.814,11.194Zm152.364,42.91c6.218,0 11.816,-4.974 11.816,-11.193c0,-6.219 -5.598,-11.195 -11.816,-11.195c-6.218,0 -11.192,4.976 -11.192,11.195c-0,6.219 4.974,11.193 11.192,11.193Zm-0,-21.144c5.598,-0 10.573,4.354 10.573,9.951c-0,5.597 -4.975,9.95 -10.573,9.95c-5.599,-0 -9.949,-4.353 -9.949,-9.95c0,-5.597 4.35,-9.951 9.949,-9.951Zm2.487,11.194c1.868,-0.622 3.111,-1.866 3.111,-3.731c0,-2.488 -2.487,-3.731 -4.979,-3.731l-4.974,-0l-0,11.816l2.487,-0l-0,-3.732l2.487,-0l2.492,3.732l3.107,-0l-3.731,-4.354Zm-1.868,-5.597c1.249,0 2.492,0.622 2.492,1.866c0,1.244 -1.243,1.865 -2.492,1.865l-2.487,0l-0,-3.731l2.487,0Z" style="fill:#fff;fill-rule:nonzero;"/></svg>