<?xml version="1.0" encoding="UTF-8" standalone="no"?><!DOCTYPE svg PUBLIC "-//W3C//DTD SVG 1.1//EN" "http://www.w3.org/Graphics/SVG/1.1/DTD/svg11.dtd"><svg width="100%" height="100%" viewBox="0 0 209 209" version="1.1" xmlns="http://www.w3.org/2000/svg" xmlns:xlink="http://www.w3.org/1999/xlink" xml:space="preserve" xmlns:serif="http://www.serif.com/" style="fill-rule:evenodd;clip-rule:evenodd;stroke-linejoin:round;stroke-miterlimit:2;"><path d="M-0,103.856c-0,57.214 47.264,104.477 104.478,104.477c57.213,0 104.477,-47.263 104.477,-104.477c0,-57.214 -47.264,-103.856 -104.477,-103.856c-57.214,0 -104.478,46.642 -104.478,103.856Zm143.035,48.507c-24.254,-14.925 -55.349,-18.656 -91.418,-10.572c-8.707,1.244 -9.95,-11.194 -2.487,-12.438c39.801,-9.328 73.383,-4.975 100.746,11.816c6.841,4.354 -0,14.926 -6.841,11.194Zm10.572,-27.985c-27.985,-17.413 -70.895,-22.388 -103.856,-12.437c-10.572,3.109 -14.303,-13.061 -4.353,-15.548c37.935,-11.194 84.577,-5.597 116.916,14.303c8.706,5.598 -0,19.279 -8.707,13.682Zm-108.831,-44.154c-10.572,3.731 -17.413,-14.303 -5.597,-18.657c36.691,-11.194 98.881,-9.328 137.438,13.682c10.572,5.597 0.622,23.01 -10.572,16.791c-33.582,-19.9 -89.552,-21.766 -121.269,-11.816Z" style="fill:#fff;fill-rule:nonzero;"/></svg>