<?xml version="1.0" encoding="UTF-8" standalone="no"?><!DOCTYPE svg PUBLIC "-//W3C//DTD SVG 1.1//EN" "http://www.w3.org/Graphics/SVG/1.1/DTD/svg11.dtd"><svg width="100%" height="100%" viewBox="0 0 871 871" version="1.1" xmlns="http://www.w3.org/2000/svg" xmlns:xlink="http://www.w3.org/1999/xlink" xml:space="preserve" xmlns:serif="http://www.serif.com/" style="fill-rule:evenodd;clip-rule:evenodd;stroke-linejoin:round;stroke-miterlimit:2;"><path d="M0,432.733c0,238.392 196.933,435.321 435.325,435.321c238.388,0 435.321,-196.929 435.321,-435.321c-0,-238.391 -196.933,-432.733 -435.321,-432.733c-238.392,-0 -435.325,194.342 -435.325,432.733Zm595.979,202.113c-101.058,-62.188 -230.621,-77.733 -380.908,-44.05c-36.279,5.183 -41.459,-46.642 -10.363,-51.825c165.838,-38.867 305.763,-20.729 419.775,49.233c28.504,18.142 0,62.192 -28.504,46.642Zm44.05,-116.604c-116.604,-72.554 -295.396,-93.284 -432.733,-51.821c-44.05,12.954 -59.596,-54.421 -18.138,-64.783c158.063,-46.642 352.405,-23.321 487.15,59.595c36.275,23.325 0,80.33 -36.279,57.009Zm-453.462,-183.975c-44.05,15.546 -72.555,-59.596 -23.321,-77.738c152.879,-46.641 412.004,-38.866 572.658,57.009c44.05,23.32 2.592,95.875 -44.05,69.962c-139.925,-82.917 -373.133,-90.692 -505.287,-49.233Z" style="fill:#1ed760;fill-rule:nonzero;"/></svg>