<?xml version="1.0" encoding="UTF-8" standalone="no"?><!DOCTYPE svg PUBLIC "-//W3C//DTD SVG 1.1//EN" "http://www.w3.org/Graphics/SVG/1.1/DTD/svg11.dtd"><svg width="100%" height="100%" viewBox="0 0 696 209" version="1.1" xmlns="http://www.w3.org/2000/svg" xmlns:xlink="http://www.w3.org/1999/xlink" xml:space="preserve" xmlns:serif="http://www.serif.com/" style="fill-rule:evenodd;clip-rule:evenodd;stroke-linejoin:round;stroke-miterlimit:2;"><path d="M0,103.856c0,57.214 47.264,104.477 104.478,104.477c57.213,0 104.477,-47.263 104.477,-104.477c0,-57.214 -47.264,-103.856 -104.477,-103.856c-57.214,0 -104.478,46.642 -104.478,103.856Zm143.035,48.507c-24.254,-14.925 -55.349,-18.656 -91.418,-10.572c-8.707,1.244 -9.95,-11.194 -2.487,-12.438c39.801,-9.328 73.383,-4.975 100.746,11.816c6.841,4.354 -0,14.926 -6.841,11.194Zm10.572,-27.985c-27.985,-17.413 -70.895,-22.388 -103.856,-12.437c-10.572,3.109 -14.303,-13.061 -4.353,-15.548c37.935,-11.194 84.577,-5.597 116.916,14.303c8.706,5.598 -0,19.279 -8.707,13.682Zm-108.831,-44.154c-10.572,3.731 -17.413,-14.303 -5.597,-18.657c36.691,-11.194 98.881,-9.328 137.438,13.682c10.572,5.597 0.622,23.01 -10.572,16.791c-33.582,-19.9 -89.552,-21.766 -121.269,-11.816Zm235.697,56.592c-10.572,0 -20.523,-3.732 -29.229,-12.438c-0.622,0 -0.622,0.622 -0.622,0.622l-9.95,11.816c-0.622,0.622 -0.622,1.244 -0,1.865c11.194,9.951 24.875,14.926 39.801,14.926c21.144,-0 34.203,-11.816 34.203,-29.229c0,-14.925 -9.328,-23.01 -31.094,-28.607c-18.035,-4.353 -21.144,-7.462 -21.144,-13.681c-0,-6.219 6.219,-9.95 14.303,-9.95c8.085,-0 15.548,3.109 24.254,9.328c0,-0 0.622,0.622 1.244,0.622c0.621,-0 0.621,-0.622 0.621,-0.622l8.707,-12.438c0.622,-0.622 0.622,-0.622 0,-1.244c-9.95,-8.084 -21.766,-12.438 -34.826,-12.438c-19.278,0 -32.96,11.816 -32.96,28.607c0,18.035 12.438,23.632 32.339,28.607c17.412,3.732 19.9,7.463 19.9,13.682c-0,6.84 -6.219,10.572 -15.547,10.572Zm59.079,-47.886l0,-8.084c0,-0.622 -0.622,-1.244 -1.244,-1.244l-16.169,-0c-0.622,-0 -1.244,0.622 -1.244,1.244l0,91.418c0,0.621 0.622,1.244 1.244,1.244l16.169,-0c0.622,-0 1.244,-0.623 1.244,-1.244l0,-28.607c6.219,6.84 13.06,9.95 22.388,9.95c16.791,-0 33.583,-13.06 33.583,-37.935c-0,-24.876 -16.792,-37.314 -33.583,-37.314c-9.328,0 -16.169,3.11 -22.388,10.572Zm18.657,48.508c-11.194,-0 -19.279,-9.328 -19.279,-21.766c0,-12.438 8.085,-21.145 19.279,-21.145c11.194,0 18.657,8.707 18.657,21.145c-0,12.438 -7.463,21.766 -18.657,21.766Zm42.288,-21.144c0,21.144 16.792,37.313 38.558,37.313c21.766,-0 38.557,-16.791 38.557,-37.935c-0,-21.145 -16.169,-37.314 -37.935,-37.314c-21.766,0 -39.18,16.791 -39.18,37.936Zm18.657,-0.622c0,-12.438 8.085,-21.145 19.901,-21.145c11.816,0 20.522,9.329 20.522,21.767c-0,12.437 -8.084,21.144 -19.9,21.144c-11.816,-0 -20.523,-9.328 -20.523,-21.766Zm87.065,-36.07l0,-18.035c0,-0.622 0,-1.243 -0.622,-1.243l-16.169,-0c-0.622,-0 -1.244,0.621 -1.244,1.243l0,18.035l-8.085,-0c-0.621,-0 -1.243,0.622 -1.243,1.244l-0,13.681c-0,0.622 0.622,1.244 1.243,1.244l8.085,-0l0,36.07c0,14.303 6.841,21.766 21.145,21.766c5.597,-0 11.193,-1.244 15.547,-3.731c0.622,-0 0.622,-0.622 0.622,-1.244l-0,-13.06c-0,-0.622 -0,-1.244 -0.622,-1.244l-1.244,0c-3.11,1.866 -6.841,2.488 -9.95,2.488c-4.976,0 -7.463,-2.488 -7.463,-7.463l0,-33.582l18.657,-0c0.622,-0 1.243,-0.622 1.243,-1.244l0,-13.681c0,-0.622 -0.621,-1.244 -1.243,-1.244l-18.657,-0Zm80.225,-1.866c-0,-6.841 2.487,-9.328 8.086,-9.328c3.106,-0 6.218,-0 9.324,1.244l0.624,-0c0,-0 0.619,-0.622 0.619,-1.244l0,-13.06c0,-0.622 0,-1.243 -0.619,-1.243c-3.111,-1.244 -7.461,-1.866 -13.684,-1.866c-14.923,-0 -22.384,8.706 -22.384,24.254l-0,3.109l-8.086,-0c-0.625,-0 -1.244,0.622 -1.244,1.244l0,13.681c0,0.622 0.619,1.244 1.244,1.244l8.086,-0l-0,55.348c-0,0.623 0.619,1.244 1.243,1.244l16.166,0c0.625,0 0.625,-0.621 0.625,-1.244l-0,-55.348l15.547,-0l23.009,55.348c-2.487,5.597 -4.974,6.841 -8.705,6.841c-3.112,0 -6.218,-0.622 -9.33,-2.487l-0.624,-0l-0.619,0.622l-5.599,11.816c0,0.621 0,1.865 0.625,1.865c5.593,3.109 10.573,4.353 16.79,4.353c11.817,0 18.654,-5.597 24.253,-20.522l27.988,-72.139l-0,-1.244c-0,-0.622 -0.625,-0.622 -1.249,-0.622l-16.791,-0c-0.619,-0 -0.619,0.622 -0.619,1.244l-17.415,48.507l-18.654,-48.507c0,-0.622 -0.624,-1.244 -1.243,-1.244l-27.364,-0l-0,-1.866Zm-51.616,1.866c-0.624,-0 -1.244,0.622 -1.244,1.244l0,70.273c0,0.623 0.62,1.244 1.244,1.244l16.166,0c0.625,0 0.625,-0.621 0.625,-1.244l-0,-70.273c-0,-0.622 -0,-1.244 -0.625,-1.244l-16.166,-0Zm-3.733,-20.523c-0,6.219 5.596,11.816 11.813,11.816c6.224,0 11.198,-5.597 11.198,-11.816c-0,-6.218 -4.974,-11.193 -11.198,-11.193c-6.217,-0 -11.813,4.975 -11.813,11.193Zm152.363,42.911c6.218,-0 11.817,-4.975 11.817,-11.194c-0,-6.219 -5.599,-11.194 -11.817,-11.194c-6.218,-0 -11.192,4.975 -11.192,11.194c-0,6.219 4.974,11.194 11.192,11.194Zm0,-21.144c5.599,-0 10.573,4.353 10.573,9.95c-0,5.597 -4.974,9.95 -10.573,9.95c-5.599,0 -9.948,-4.353 -9.948,-9.95c-0,-5.597 4.349,-9.95 9.948,-9.95Zm2.487,11.194c1.868,-0.622 3.112,-1.866 3.112,-3.731c-0,-2.488 -2.487,-3.732 -4.98,-3.732l-4.974,0l-0,11.816l2.487,0l-0,-3.731l2.487,-0l2.493,3.731l3.106,0l-3.731,-4.353Zm-1.868,-5.597c1.249,-0 2.493,0.621 2.493,1.866c-0,1.243 -1.244,1.865 -2.493,1.865l-2.487,-0l-0,-3.731l2.487,-0Z" style="fill:#fff;fill-rule:nonzero;"/></svg>