<?xml version="1.0" encoding="UTF-8" standalone="no"?><!DOCTYPE svg PUBLIC "-//W3C//DTD SVG 1.1//EN" "http://www.w3.org/Graphics/SVG/1.1/DTD/svg11.dtd"><svg width="100%" height="100%" viewBox="0 0 435 209" version="1.1" xmlns="http://www.w3.org/2000/svg" xmlns:xlink="http://www.w3.org/1999/xlink" xml:space="preserve" xmlns:serif="http://www.serif.com/" style="fill-rule:evenodd;clip-rule:evenodd;stroke-linejoin:round;stroke-miterlimit:2;"><g><path d="M104.167,190.476l101.19,0l46.13,-172.619l-147.32,-0c-47.619,-0 -86.31,38.691 -86.31,86.31c0,47.618 38.691,86.309 86.31,86.309Z" style="fill:#fff;"/><path d="M330.357,0l-226.19,0c-58.036,0 -104.167,46.132 -104.167,104.167c-0,58.036 46.131,104.166 104.167,104.166l226.19,0c58.035,0 104.165,-46.13 104.165,-104.166c0,-58.035 -47.617,-104.167 -104.165,-104.167Zm-312.5,104.167c0,-47.619 38.691,-86.31 86.31,-86.31l147.32,-0l-46.13,172.619l-101.19,0c-47.619,0 -86.31,-38.691 -86.31,-86.309Z" style="fill:#06f;"/><path d="M360.119,59.523c2.977,2.975 2.977,8.928 -0,11.903l-31.25,32.74l32.737,32.737c2.977,2.977 2.977,8.929 0,11.905c-2.974,2.975 -8.928,2.975 -11.903,0l-32.739,-32.739l-32.738,32.739c-2.977,2.975 -8.928,2.975 -11.905,0c-2.975,-2.976 -2.975,-8.928 -0,-11.905l31.25,-32.737l-32.738,-32.74c-2.976,-2.975 -2.976,-8.928 0,-11.903c2.977,-2.977 8.929,-2.977 11.906,-0l32.737,32.737l32.738,-32.737c2.976,-2.977 8.928,-2.977 11.905,-0Z" style="fill:#fff;fill-rule:nonzero;"/><path d="M183.035,61.01c2.977,2.977 4.465,8.929 1.49,11.906l-62.501,72.916c-1.488,1.489 -2.976,2.976 -4.464,2.976c-2.976,1.488 -7.441,1.488 -10.417,-1.487l-32.738,-32.739c-2.976,-2.975 -2.976,-8.929 0,-11.904c2.976,-2.977 8.929,-2.977 11.905,0l26.786,25.296l56.547,-66.964c2.976,-2.975 8.928,-2.975 13.392,0Z" style="fill:#06f;fill-rule:nonzero;"/></g></svg>