<svg width="16" height="17" viewBox="0 0 16 17" fill="none" xmlns="http://www.w3.org/2000/svg">
<path d="M9.74096 1.05316C9.85504 1.11902 9.94977 1.21378 10.0156 1.32788C10.0814 1.44199 10.116 1.57142 10.116 1.70316V14.7032C10.116 14.8348 10.0814 14.9642 10.0157 15.0783C9.94987 15.1924 9.8552 15.2872 9.74117 15.353C9.62714 15.4189 9.49777 15.4536 9.36608 15.4536C9.23439 15.4537 9.10501 15.419 8.99096 15.3532L2.06596 11.3532C1.23215 10.8697 0.623976 10.0755 0.37468 9.14446C0.125383 8.21344 0.255298 7.22157 0.735958 6.38616C1.0548 5.83319 1.51348 5.37383 2.06596 5.05416L8.99096 1.05416C9.10497 0.988329 9.23431 0.953674 9.36596 0.953674C9.49761 0.953674 9.62694 0.987329 9.74096 1.05316ZM2.81696 6.35316C2.49293 6.54122 2.22397 6.81109 2.03701 7.13575C1.85006 7.46042 1.75165 7.8285 1.75165 8.20316C1.75165 8.57781 1.85006 8.94589 2.03701 9.27056C2.22397 9.59523 2.49293 9.8651 2.81696 10.0532L8.61696 13.4032V3.00316L2.81696 6.35316ZM11.5 10.6432V5.76315C11.9466 5.99532 12.3209 6.34562 12.5821 6.77586C12.8434 7.20611 12.9815 7.6998 12.9815 8.20316C12.9815 8.70651 12.8434 9.2002 12.5821 9.63045C12.3209 10.0607 11.9466 10.411 11.5 10.6432Z" fill="white" fill-opacity="0.698"/>
<path d="M11.5 13.8171C12.7765 13.5323 13.9179 12.821 14.7359 11.8005C15.5539 10.7799 15.9996 9.51103 15.9996 8.20311C15.9996 6.8952 15.5539 5.62634 14.7359 4.60577C13.9179 3.58521 12.7765 2.87389 11.5 2.58911V4.13911C12.3687 4.40678 13.1288 4.94581 13.6688 5.67714C14.2087 6.40846 14.5 7.29357 14.5 8.20261C14.5 9.11165 14.2087 9.99676 13.6688 10.7281C13.1288 11.4594 12.3687 11.9984 11.5 12.2661V13.8161V13.8171Z" fill="white" fill-opacity="0.698"/>
</svg>
